SplineFontDB: 3.2
FontName: SeriousShannsBold
FullName: Serious Shanns Bold
FamilyName: Serious Shanns Bold
Weight: Bold
Copyright: https://github.com/kaBeech/serious-shanns/blob/main/LICENSE
Version: 4.0.0
ItalicAngle: 0
UnderlinePosition: 0
UnderlineWidth: 0
Ascent: 1638
Descent: 410
InvalidEm: 0
sfntRevision: 0x00003333
LayerCount: 2
Layer: 0 0 "Back" 1
Layer: 1 0 "Fore" 0
XUID: [1021 45 630387186 1689187]
StyleMap: 0x0040
FSType: 4
OS2Version: 3
OS2_WeightWidthSlopeOnly: 0
OS2_UseTypoMetrics: 0
CreationTime: 1532631502
ModificationTime: 315532800
PfmFamily: 81
TTFWeight: 700
TTFWidth: 5
LineGap: 0
VLineGap: 0
Panose: 0 0 0 0 0 0 0 0 0 0
OS2TypoAscent: 1255
OS2TypoAOffset: 0
OS2TypoDescent: -385
OS2TypoDOffset: 0
OS2TypoLinegap: 201
OS2WinAscent: 1593
OS2WinAOffset: 0
OS2WinDescent: 631
OS2WinDOffset: 0
HheadAscent: 1630
HheadAOffset: 0
HheadDescent: -649
HheadDOffset: 0
OS2SubXSize: 649
OS2SubYSize: 600
OS2SubXOff: 0
OS2SubYOff: 76
OS2SupXSize: 649
OS2SupYSize: 600
OS2SupXOff: 0
OS2SupYOff: 350
OS2StrikeYSize: 0
OS2StrikeYPos: 270
OS2CapHeight: 1180
OS2XHeight: 993
OS2Vendor: 'NONE'
OS2CodePages: 00000001.00000000
OS2UnicodeRanges: 00000001.00000000.00000000.00000000
MarkAttachClasses: 1
DEI: 91125
LangName: 1033 "" "" "Normal" "" "" "Version 0.2.0"
Encoding: UnicodeBmp
UnicodeInterp: none
NameList: AGL For New Fonts
DisplaySize: -48
AntiAlias: 1
FitToEm: 0
WinInfo: 0 16 14
BeginPrivate: 9
BlueValues 39 [-80 -12 1028 1071 1450 1470 1567 1575]
OtherBlues 11 [-608 -588]
BlueScale 9 0.0291667
BlueShift 1 4
StdHW 5 [225]
StdVW 5 [262]
StemSnapH 5 [225]
StemSnapV 9 [262 274]
ForceBold 4 true
EndPrivate
BeginChars: 65537 104

StartChar: .notdef
Encoding: 65536 -1 0
Width: 1214
GlyphClass: 1
Flags: HW
LayerCount: 2
Fore
SplineSet
145 -573 m 1
 145 1559 l 1
 1071 1559 l 1
 1071 -573 l 1
 145 -573 l 1
305 1399 m 1
 305 -414 l 1
 911 -414 l 1
 911 1399 l 1
 305 1399 l 1
EndSplineSet
Validated: 1
EndChar

StartChar: exclam
Encoding: 33 33 1
Width: 1214
GlyphClass: 2
Flags: HW
HStem: -76 367<491 731>
VStem: 416 383<-8 219> 485 250<509 778> 502 236<603 1607>
LayerCount: 2
Fore
SplineSet
752 1511 m 0x90
 752 1499 748 1423 743 1282 c 0
 739 1141 737 1029 737 944 c 0
 737 904 738 863 739 819 c 0
 740 777 741 740 741 709 c 0
 741 678 740 656 737 645 c 0x90
 736 634 735 620 735 602 c 0xa0
 735 584 736 568 737 553 c 0x90
 733 515 718 485 692 465 c 0
 669 446 641 435 608 434 c 2
 600 434 l 2
 566 434 538 446 516 471 c 0
 496 491 485 519 485 553 c 0xa0
 485 569 489 590 494 616 c 0
 498 643 501 664 502 676 c 0
 503 688 504 709 504 739 c 2
 504 823 l 2
 504 850 503 892 502 948 c 0
 499 1014 498 1077 498 1137 c 2
 498 1278 l 2
 499 1312 501 1354 502 1405 c 0
 503 1456 504 1489 504 1505 c 1
 505 1549 518 1583 543 1608 c 0
 566 1631 596 1642 631 1642 c 2
 637 1642 l 2
 670 1642 697 1632 719 1610 c 0
 741 1588 752 1555 752 1511 c 0x90
592 -76 m 2
 544 -76 504 -60 471 -27 c 0
 434 11 416 58 416 111 c 0
 416 160 436 202 477 236 c 0
 519 273 566 291 618 291 c 0
 670 291 714 275 748 242 c 0
 782 208 799 166 799 118 c 0xc0
 799 91 798 36 750 -14 c 0
 716 -48 670 -69 614 -76 c 2
 592 -76 l 2
EndSplineSet
Validated: 1
EndChar

StartChar: quotedbl
Encoding: 34 34 2
Width: 1214
GlyphClass: 2
Flags: HW
VStem: 311 250<898 1201> 317 260<906 1604> 639 266<905 1605>
LayerCount: 2
Fore
SplineSet
905 1511 m 2x20
 905 1473 l 2
 905 1403 904 1314 903 1206 c 0
 900 1093 896 1014 891 969 c 0
 886 935 870 909 844 891 c 0
 822 875 798 866 772 866 c 0
 738 866 707 877 680 897 c 0
 654 916 641 942 641 975 c 2
 641 987 l 2
 644 1033 645 1089 645 1155 c 0
 645 1293 643 1416 639 1522 c 2
 639 1528 l 2
 639 1547 643 1564 653 1580 c 0
 663 1596 676 1607 694 1614 c 0
 719 1624 743 1629 768 1630 c 0
 788 1630 805 1628 818 1624 c 0
 831 1620 844 1615 856 1608 c 0
 871 1600 883 1587 892 1570 c 0
 901 1553 905 1533 905 1511 c 2x20
578 1513 m 2x60
 578 1427 l 2x60
 578 1387 576 1314 573 1206 c 0
 570 1093 566 1014 561 969 c 0
 556 935 541 909 516 891 c 0
 494 875 470 866 444 866 c 0
 410 866 379 877 350 897 c 0
 324 916 311 942 311 975 c 0xa0
 311 979 312 984 313 989 c 0
 316 1029 318 1076 318 1129 c 0
 318 1147 317 1165 317 1184 c 2
 317 1253 l 2
 316 1391 313 1484 309 1530 c 0
 309 1548 314 1564 324 1579 c 0
 335 1595 349 1607 365 1614 c 0
 390 1624 414 1629 440 1630 c 0
 460 1630 477 1628 490 1624 c 0
 503 1620 516 1614 530 1606 c 0
 544 1598 555 1585 563 1569 c 0
 571 1553 577 1533 578 1513 c 2x60
EndSplineSet
Validated: 1
EndChar

StartChar: numbersign
Encoding: 35 35 3
Width: 1214
GlyphClass: 2
Flags: HW
HStem: -29 43G<253 269 717 733> 367 219<77 199 502 651 948 1087> 887 223<157 303 604 745 1040 1133>
LayerCount: 2
Fore
SplineSet
745 887 m 1
 561 887 l 1
 502 586 l 1
 551 587 614 588 690 588 c 1
 709 685 727 785 745 887 c 1
303 883 m 1
 266 882 246 882 242 883 c 0
 205 883 176 891 156 909 c 0
 133 929 120 956 119 987 c 2
 119 993 l 2
 119 1022 130 1047 152 1069 c 0
 174 1091 205 1103 246 1104 c 0
 269 1105 302 1106 346 1106 c 1
 401 1405 l 2
 413 1447 435 1476 465 1491 c 0
 484 1502 504 1508 526 1509 c 0
 536 1509 545 1508 555 1505 c 0
 590 1498 618 1481 637 1454 c 0
 651 1435 657 1413 657 1387 c 0
 657 1375 656 1362 653 1350 c 2
 604 1110 l 1
 784 1110 l 1
 836 1389 l 2
 848 1433 869 1463 899 1479 c 0
 918 1490 939 1495 961 1495 c 0
 972 1495 981 1494 991 1491 c 0
 1026 1484 1054 1467 1073 1440 c 0
 1085 1422 1093 1401 1094 1376 c 0
 1094 1362 1091 1348 1087 1333 c 0
 1073 1282 1058 1209 1040 1112 c 1
 1077 1111 1109 1099 1135 1079 c 0
 1162 1056 1177 1030 1178 1001 c 0
 1178 970 1167 944 1147 922 c 0
 1127 900 1096 888 1055 887 c 2
 1053 887 l 1
 999 887 l 1
 948 586 l 1
 1004 586 l 2
 1044 586 1071 576 1087 557 c 0
 1103 538 1113 514 1116 485 c 2
 1116 483 l 2
 1116 450 1109 425 1094 406 c 0
 1075 381 1045 369 1004 369 c 2
 911 369 l 1
 885 224 866 125 854 70 c 0
 840 33 816 6 782 -12 c 0
 762 -23 743 -29 723 -29 c 0
 717 -29 l 0
 706 -29 695 -28 684 -25 c 0
 651 -18 626 4 610 39 c 0
 602 58 597 77 596 96 c 0
 596 112 599 129 604 147 c 0
 616 196 632 270 651 367 c 1
 555 367 l 2
 515 367 484 366 459 365 c 1
 422 181 401 84 397 76 c 0
 385 42 362 14 328 -6 c 0
 303 -21 280 -29 258 -29 c 0
 247 -29 236 -28 225 -25 c 0
 192 -18 168 5 152 43 c 0
 144 62 139 80 139 98 c 0
 139 117 143 137 150 156 c 0
 160 189 176 257 199 362 c 1
 168 362 l 2
 128 362 98 371 76 387 c 0
 51 405 39 430 39 461 c 2
 39 467 l 2
 39 496 50 521 70 543 c 0
 90 563 121 575 162 578 c 0
 173 578 187 579 205 580 c 2
 244 580 l 1
 303 883 l 1
EndSplineSet
Validated: 1
EndChar

StartChar: dollar
Encoding: 36 36 4
Width: 1214
GlyphClass: 2
Flags: HW
HStem: -66 219<361 481>
VStem: 94 242<994 1191> 492 240<-179 -66 190 651 936 1255> 918 242<300 560>
LayerCount: 2
Fore
SplineSet
681 -266 m 0
 654 -286 623 -297 588 -297 c 2
 584 -297 l 2
 547 -297 519 -285 500 -260 c 0
 485 -242 477 -218 477 -188 c 0
 477 -181 478 -170 479 -153 c 0
 480 -136 481 -107 481 -66 c 1
 432 -65 385 -57 340 -45 c 0
 295 -33 256 -16 223 4 c 0
 157 45 109 95 78 152 c 0
 64 182 57 208 57 233 c 0
 57 241 58 249 59 256 c 0
 66 287 86 310 117 324 c 0
 135 332 148 337 158 339 c 0
 168 341 175 342 182 342 c 0
 189 342 196 341 201 340 c 0
 217 339 232 333 246 321 c 0
 260 309 274 293 289 274 c 0
 316 236 347 206 381 184 c 0
 410 166 445 157 487 154 c 1
 490 357 492 540 492 702 c 1
 488 702 480 704 469 707 c 0
 461 708 450 709 436 709 c 0
 380 714 329 728 283 750 c 0
 241 772 205 797 178 827 c 0
 151 857 130 890 116 924 c 0
 102 958 94 993 94 1028 c 0
 94 1079 102 1128 118 1174 c 0
 134 1220 157 1264 190 1304 c 0
 223 1344 267 1378 322 1407 c 0
 374 1433 432 1452 496 1464 c 1
 497 1491 498 1524 498 1561 c 1
 499 1627 521 1668 565 1686 c 0
 580 1691 599 1694 621 1694 c 0
 666 1694 699 1680 719 1651 c 0
 734 1631 742 1602 743 1567 c 2
 743 1483 l 1
 774 1480 816 1472 868 1460 c 0
 920 1449 960 1440 987 1430 c 0
 1018 1419 1042 1400 1057 1374 c 0
 1068 1355 1073 1335 1073 1315 c 0
 1073 1308 1072 1301 1071 1294 c 0
 1068 1274 1061 1257 1048 1244 c 0
 1035 1231 1018 1224 999 1221 c 0
 989 1220 982 1219 975 1219 c 0
 968 1219 960 1219 951 1220 c 0
 942 1221 932 1223 918 1227 c 0
 903 1230 884 1235 864 1245 c 0
 823 1263 781 1273 739 1276 c 1
 736 1144 734 1018 733 899 c 1
 794 889 851 875 903 856 c 0
 952 836 993 811 1025 782 c 0
 1057 753 1084 721 1105 684 c 0
 1126 647 1140 610 1148 575 c 0
 1156 540 1159 503 1159 465 c 0
 1159 401 1148 341 1125 284 c 0
 1102 227 1071 177 1031 135 c 0
 991 93 944 57 891 27 c 0
 840 0 785 -22 725 -37 c 1
 725 -107 726 -154 729 -180 c 0
 724 -217 708 -246 681 -266 c 0
387 1198 m 0
 353 1167 336 1129 336 1087 c 0
 336 1050 352 1018 383 991 c 0
 410 966 447 948 492 936 c 1
 493 1021 494 1130 494 1262 c 1
 452 1246 416 1224 387 1198 c 0
856 281 m 0
 897 322 918 368 918 421 c 0
 918 439 916 463 909 489 c 0
 904 508 894 530 879 553 c 0
 853 591 803 624 731 651 c 1
 730 494 729 392 728 344 c 0
 727 296 726 245 725 190 c 1
 777 215 821 246 856 281 c 0
EndSplineSet
Validated: 1
EndChar

StartChar: percent
Encoding: 37 37 5
Width: 1214
GlyphClass: 2
Flags: HW
LayerCount: 2
Fore
SplineSet
58 1007 m 0
 38 1049 29 1093 29 1139 c 2
 29 1143 l 2
 29 1229 54 1301 105 1358 c 0
 156 1415 231 1444 328 1444 c 0
 411 1444 480 1419 535 1370 c 0
 564 1344 585 1311 600 1270 c 0
 611 1237 616 1200 616 1159 c 0
 616 1057 587 980 528 928 c 0
 476 883 399 860 297 860 c 0
 241 860 193 874 151 902 c 0
 109 930 78 965 58 1007 c 0
127 -92 m 0
 109 -84 95 -73 84 -61 c 0
 69 -45 61 -26 61 -3 c 0
 61 20 68 44 82 70 c 0
 111 127 179 246 287 428 c 0
 519 794 635 978 635 979 c 0
 751 1163 828 1295 868 1376 c 1
 868 1361 869 1362 870 1378 c 1
 892 1408 920 1427 954 1432 c 0
 964 1435 973 1436 983 1436 c 0
 1005 1436 1027 1430 1047 1419 c 0
 1078 1404 1096 1383 1100 1356 c 0
 1101 1351 1102 1344 1102 1339 c 0
 1102 1316 1093 1291 1075 1264 c 0
 1024 1183 898 977 696 647 c 0
 490 317 354 93 287 -23 c 0
 256 -78 218 -104 176 -104 c 0
 161 -104 145 -100 127 -92 c 0
382 1224 m 0
 366 1238 342 1245 309 1245 c 0
 283 1245 264 1238 252 1223 c 0
 237 1205 228 1180 225 1147 c 2
 225 1141 l 2
 225 1116 231 1097 242 1085 c 0
 253 1073 277 1066 317 1063 c 2
 319 1063 l 2
 345 1063 365 1069 379 1083 c 0
 394 1099 403 1122 406 1149 c 2
 406 1155 l 2
 406 1186 398 1210 382 1224 c 0
632 71 m 0
 611 114 600 160 600 209 c 2
 600 213 l 2
 600 303 628 378 684 437 c 0
 740 496 818 526 918 526 c 0
 996 526 1061 502 1114 451 c 0
 1141 425 1162 389 1174 344 c 0
 1184 311 1188 276 1188 236 c 0
 1188 222 1187 209 1186 195 c 0
 1182 105 1156 36 1108 -11 c 0
 1060 -58 989 -82 893 -82 c 2
 883 -82 l 2
 826 -81 774 -66 730 -37 c 0
 686 -8 653 28 632 71 c 0
907 125 m 0
 908 125 910 124 913 123 c 0
 938 123 956 130 967 145 c 0
 982 163 990 188 993 219 c 2
 993 223 l 2
 993 256 987 281 975 297 c 0
 961 316 937 326 903 326 c 0
 877 326 858 317 844 299 c 0
 828 279 818 251 815 217 c 2
 815 211 l 2
 815 184 821 162 833 148 c 0
 845 134 869 126 907 125 c 0
EndSplineSet
Validated: 1
EndChar

StartChar: ampersand
Encoding: 38 38 6
Width: 1214
GlyphClass: 2
Flags: HW
LayerCount: 2
Fore
SplineSet
1135 23 m 0
 1135 16 1134 8 1133 0 c 0
 1128 -48 1110 -79 1083 -94 c 0
 1057 -104 1041 -109 1034 -109 c 2
 1032 -109 l 2
 1014 -109 995 -104 975 -94 c 0
 940 -76 910 -46 885 -2 c 0
 881 5 874 20 865 44 c 0
 856 68 850 85 846 96 c 1
 815 56 l 2
 808 47 796 34 780 17 c 0
 764 0 750 -13 738 -23 c 0
 726 -33 711 -43 691 -56 c 0
 671 -69 652 -79 633 -85 c 0
 614 -91 592 -97 567 -102 c 0
 542 -107 518 -111 492 -111 c 0
 410 -111 335 -90 267 -48 c 0
 199 -6 148 49 110 117 c 0
 72 185 53 259 53 338 c 0
 53 457 75 558 119 643 c 0
 171 743 251 821 362 877 c 1
 327 933 l 2
 313 956 302 973 294 985 c 0
 286 997 277 1013 267 1033 c 0
 257 1053 250 1070 246 1085 c 0
 236 1126 231 1166 231 1206 c 0
 231 1232 235 1258 242 1285 c 0
 249 1312 261 1339 279 1366 c 0
 297 1393 318 1418 344 1439 c 0
 370 1460 403 1477 444 1489 c 0
 485 1501 531 1507 582 1507 c 0
 624 1507 666 1501 707 1488 c 0
 748 1475 785 1456 819 1430 c 0
 853 1404 881 1369 901 1327 c 0
 921 1285 932 1238 932 1186 c 0
 932 1140 925 1096 913 1056 c 0
 901 1016 885 981 867 954 c 0
 849 927 826 902 799 878 c 0
 772 854 748 835 729 823 c 0
 710 811 690 801 670 791 c 1
 695 750 729 698 773 636 c 0
 817 574 850 528 870 498 c 1
 874 506 880 519 888 536 c 0
 896 553 902 570 910 586 c 0
 918 602 925 615 930 623 c 0
 957 664 985 688 1012 698 c 0
 1023 702 1035 705 1047 705 c 0
 1066 705 1085 700 1104 690 c 0
 1135 675 1154 649 1159 612 c 0
 1160 604 1162 596 1163 586 c 0
 1163 557 1155 527 1139 496 c 0
 1132 482 1112 455 1079 415 c 0
 1046 375 1019 339 999 309 c 1
 1014 284 1035 250 1060 206 c 0
 1085 162 1101 135 1106 125 c 0
 1125 92 1135 58 1135 23 c 0
475 1171 m 0
 475 1141 484 1108 500 1073 c 0
 516 1038 535 1007 555 981 c 1
 577 988 596 996 613 1005 c 0
 630 1014 648 1024 664 1038 c 0
 680 1052 691 1070 699 1090 c 0
 707 1110 711 1135 711 1165 c 0
 711 1207 698 1240 672 1263 c 0
 646 1286 615 1296 577 1296 c 0
 539 1296 512 1285 496 1262 c 0
 482 1242 475 1211 475 1171 c 0
307 356 m 0
 307 290 324 237 359 195 c 0
 394 153 439 131 494 131 c 0
 524 131 555 136 588 147 c 0
 599 151 611 158 624 167 c 0
 637 176 646 183 653 188 c 0
 660 193 669 203 680 215 c 0
 691 227 698 236 702 241 c 0
 706 246 712 253 719 263 c 0
 726 273 730 280 733 283 c 0
 714 324 696 360 678 393 c 0
 662 424 631 473 586 537 c 0
 541 601 507 650 485 684 c 1
 455 669 430 651 408 631 c 0
 382 606 361 580 347 551 c 0
 333 522 322 492 316 461 c 0
 310 430 307 394 307 356 c 0
EndSplineSet
Validated: 1
EndChar

StartChar: quotesingle
Encoding: 39 39 7
Width: 1214
GlyphClass: 2
Flags: HW
VStem: 475 266<926 1582> 475 250<920 1231>
LayerCount: 2
Fore
SplineSet
741 1491 m 2x80
 741 1407 l 2x80
 741 1370 740 1313 739 1237 c 0
 736 1118 732 1036 725 991 c 0x40
 720 956 705 929 680 911 c 0
 658 896 634 889 608 889 c 0
 573 889 541 900 514 920 c 0
 488 939 475 965 475 999 c 0
 475 1003 476 1007 477 1010 c 0
 480 1065 481 1126 481 1194 c 0
 481 1291 479 1393 475 1499 c 2
 475 1505 l 2
 475 1524 479 1541 487 1556 c 0
 497 1572 510 1585 528 1593 c 0
 553 1603 578 1608 604 1608 c 0
 624 1608 641 1606 653 1602 c 0
 667 1598 680 1592 692 1585 c 0
 707 1577 719 1564 727 1546 c 0
 735 1530 740 1511 741 1491 c 2x80
EndSplineSet
Validated: 1
EndChar

StartChar: parenleft
Encoding: 40 40 8
Width: 1214
GlyphClass: 2
Flags: HW
HStem: -295 223<749 908> 1477 215<720 904>
VStem: 276 251<316 1123>
LayerCount: 2
Fore
SplineSet
938 -190 m 0
 938 -220 926 -245 903 -264 c 0
 880 -283 855 -294 829 -295 c 0
 731 -295 643 -260 565 -190 c 0
 487 -120 425 -27 377 92 c 0
 329 211 298 348 283 502 c 0
 279 544 276 596 276 659 c 0
 276 722 281 801 289 895 c 0
 303 1057 330 1191 371 1296 c 0
 389 1344 412 1391 442 1436 c 0
 472 1481 508 1523 549 1563 c 0
 589 1601 633 1632 682 1657 c 0
 730 1680 777 1692 824 1692 c 0
 827 1692 828 1692 831 1692 c 0
 869 1692 899 1680 918 1657 c 0
 933 1639 940 1614 940 1583 c 0
 940 1546 928 1519 905 1501 c 0
 883 1485 857 1477 827 1477 c 0
 797 1477 768 1467 741 1448 c 0
 714 1430 690 1405 668 1372 c 0
 624 1306 591 1224 569 1126 c 0
 551 1054 539 958 532 838 c 0
 529 791 528 747 528 708 c 0
 528 695 528 682 528 670 c 0
 528 621 529 577 532 539 c 0
 539 458 553 379 575 301 c 0
 597 223 623 157 653 104 c 0
 682 49 712 6 745 -27 c 0
 775 -57 803 -72 829 -72 c 0
 862 -72 889 -80 909 -98 c 0
 928 -116 938 -146 938 -190 c 0
EndSplineSet
Validated: 1
EndChar

StartChar: parenright
Encoding: 41 41 9
Width: 1214
GlyphClass: 2
Flags: HW
HStem: -295 223<308 467> 1477 215<312 497>
VStem: 689 251<316 1117>
LayerCount: 2
Fore
SplineSet
387 -295 m 0
 361 -295 336 -284 313 -264 c 0
 290 -245 279 -220 279 -190 c 0
 279 -146 288 -116 307 -98 c 0
 325 -80 349 -72 380 -72 c 0
 382 -72 385 -72 387 -72 c 0
 412 -72 439 -57 469 -27 c 0
 503 6 534 49 563 104 c 0
 592 159 618 225 641 301 c 0
 663 379 677 458 684 539 c 0
 687 570 689 603 689 638 c 0
 689 650 688 662 688 674 c 0
 688 722 687 777 684 838 c 0
 677 958 665 1054 647 1126 c 0
 625 1223 593 1305 549 1372 c 0
 529 1405 504 1430 475 1448 c 0
 448 1466 419 1476 389 1477 c 0
 359 1477 333 1485 311 1501 c 0
 288 1519 276 1546 276 1583 c 0
 276 1603 280 1622 287 1638 c 0
 294 1653 303 1665 317 1675 c 0
 334 1686 354 1692 377 1692 c 0
 380 1692 382 1692 385 1692 c 0
 436 1692 486 1680 535 1657 c 0
 584 1632 628 1601 668 1563 c 0
 708 1525 742 1482 772 1436 c 0
 802 1391 827 1344 846 1296 c 0
 886 1191 913 1057 928 895 c 0
 936 801 940 722 940 659 c 0
 940 596 938 544 934 502 c 0
 919 348 888 211 840 92 c 0
 792 -27 728 -120 649 -190 c 0
 573 -260 485 -295 387 -295 c 0
EndSplineSet
Validated: 1
EndChar

StartChar: asterisk
Encoding: 42 42 10
Width: 1214
GlyphClass: 2
Flags: HW
HStem: 575 262<103 397> 592 244<801 1120> 602 207<799 1036>
LayerCount: 2
Fore
SplineSet
430 209 m 2x20
 410 209 l 2
 400 209 388 210 374 213 c 0
 360 216 346 221 332 229 c 0
 318 237 306 250 295 266 c 0
 284 282 276 302 272 324 c 2
 272 338 l 2
 272 358 278 379 289 401 c 2
 401 584 l 1
 312 579 245 575 199 575 c 0
 158 575 125 589 102 616 c 0
 82 641 71 669 70 702 c 2
 70 709 l 2
 70 736 77 764 92 791 c 0
 102 807 116 819 135 827 c 0
 150 834 166 838 184 838 c 2
 195 838 l 2x80
 250 834 326 828 426 821 c 1
 378 900 338 963 305 1008 c 0
 286 1039 276 1070 276 1100 c 0
 276 1105 278 1111 279 1116 c 0
 283 1154 299 1181 328 1196 c 0
 346 1207 365 1212 388 1212 c 0
 411 1212 434 1206 457 1192 c 0
 480 1178 498 1159 512 1133 c 0
 526 1104 558 1040 610 940 c 1
 650 1011 683 1075 709 1131 c 0
 721 1157 738 1176 760 1189 c 0
 782 1202 803 1208 823 1208 c 0
 845 1208 866 1203 885 1192 c 0
 903 1182 917 1168 928 1150 c 0
 939 1132 944 1110 944 1085 c 0
 944 1058 936 1033 920 1010 c 0
 883 955 842 888 797 809 c 1x20
 891 810 959 817 1001 829 c 0
 1019 833 1031 836 1036 836 c 0x40
 1062 836 1085 827 1104 809 c 0x20
 1131 783 1146 755 1147 725 c 0
 1147 695 1139 666 1124 639 c 0
 1114 623 1101 610 1085 600 c 0
 1073 595 1061 592 1047 592 c 0x40
 1040 592 1033 593 1026 594 c 0
 998 600 951 602 887 602 c 0
 874 602 860 602 846 602 c 2
 799 602 l 1
 915 401 l 2
 930 371 938 344 938 319 c 0
 938 314 937 308 936 303 c 0
 932 270 918 247 893 233 c 0
 874 221 850 215 821 215 c 0
 799 215 778 219 756 229 c 0
 729 241 710 262 700 291 c 0
 685 336 658 398 618 479 c 1
 567 378 536 310 522 276 c 0
 515 254 503 238 486 227 c 0
 469 216 450 210 430 209 c 2x20
EndSplineSet
Validated: 1
EndChar

StartChar: plus
Encoding: 43 43 11
Width: 1214
GlyphClass: 2
Flags: HW
LayerCount: 2
Fore
SplineSet
711 711 m 1
 713 512 l 2
 713 472 703 444 684 428 c 0
 665 410 641 400 612 399 c 2
 610 399 l 2
 577 399 553 407 535 422 c 0
 510 441 498 471 498 512 c 2
 498 707 l 1
 315 705 l 2
 274 705 243 715 223 737 c 0
 201 759 190 786 190 817 c 2
 190 823 l 2
 190 852 200 877 219 899 c 0
 239 921 269 932 307 932 c 0
 310 932 332 931 373 930 c 0
 414 929 456 928 498 928 c 1
 498 1009 496 1077 492 1133 c 0
 492 1171 504 1199 530 1217 c 0
 549 1231 574 1237 604 1237 c 2
 612 1237 l 2
 641 1237 666 1231 686 1217 c 0
 709 1201 721 1174 721 1137 c 2
 721 1124 l 2
 717 1054 714 989 713 926 c 1
 913 926 l 2
 953 926 981 916 997 897 c 0
 1013 878 1023 854 1026 825 c 2
 1026 823 l 2
 1026 808 1025 795 1022 784 c 0
 1019 772 1014 760 1006 748 c 0
 996 733 983 722 967 715 c 0
 955 711 941 709 926 709 c 2
 911 709 l 2
 891 712 861 713 823 713 c 0
 783 713 746 712 711 711 c 1
EndSplineSet
Validated: 1
EndChar

StartChar: comma
Encoding: 44 44 12
Width: 1214
GlyphClass: 2
Flags: HW
LayerCount: 2
Fore
SplineSet
549 -457 m 0
 527 -465 508 -469 492 -469 c 0
 476 -469 461 -466 449 -461 c 0
 431 -456 414 -445 399 -430 c 0
 384 -415 376 -396 373 -373 c 2
 373 -360 l 2
 373 -340 379 -319 393 -299 c 0
 420 -261 459 -173 508 -35 c 0
 557 100 588 197 600 254 c 0
 605 279 618 297 637 311 c 0
 656 326 677 334 700 334 c 2
 705 334 l 2
 721 334 738 333 756 330 c 0
 783 322 805 306 823 281 c 0
 837 262 844 240 844 217 c 0
 844 207 843 200 842 193 c 0
 828 126 798 22 752 -119 c 0
 706 -261 670 -349 645 -383 c 0
 619 -418 587 -443 549 -457 c 0
EndSplineSet
Validated: 1
EndChar

StartChar: hyphen
Encoding: 45 45 13
Width: 1214
GlyphClass: 2
Flags: HW
LayerCount: 2
Fore
SplineSet
377 700 m 0
 455 700 547 701 653 702 c 0
 761 703 823 706 838 707 c 0
 878 707 906 697 922 678 c 0
 938 659 947 635 950 606 c 2
 950 604 l 2
 950 571 943 546 928 528 c 0
 909 503 879 490 838 489 c 0
 820 489 751 486 631 481 c 0
 511 476 427 472 379 471 c 0
 348 471 322 480 303 496 c 0
 278 515 266 544 266 584 c 2
 266 594 l 2
 266 632 278 661 303 680 c 0
 321 694 346 700 377 700 c 0
EndSplineSet
Validated: 1
EndChar

StartChar: period
Encoding: 46 46 14
Width: 1214
GlyphClass: 2
Flags: HW
HStem: -53 365<489 731>
VStem: 416 383<14 241>
LayerCount: 2
Fore
SplineSet
592 -53 m 2
 544 -53 504 -37 471 -4 c 0
 434 34 416 78 416 129 c 0
 416 180 436 223 477 258 c 0
 518 294 563 311 613 311 c 0
 615 311 616 311 618 311 c 0
 670 311 714 295 748 262 c 0
 782 228 799 188 799 141 c 0
 799 114 798 58 750 8 c 0
 716 -26 670 -46 614 -53 c 2
 592 -53 l 2
EndSplineSet
Validated: 1
EndChar

StartChar: slash
Encoding: 47 47 15
Width: 1214
GlyphClass: 2
Flags: HW
LayerCount: 2
Fore
SplineSet
231 -137 m 0
 212 -147 193 -152 174 -152 c 0
 155 -152 137 -146 121 -135 c 0
 94 -119 77 -87 72 -41 c 0
 71 -34 71 -26 72 -18 c 0
 72 19 81 53 100 84 c 0
 299 412 470 702 612 956 c 1
 612 956 l 1
 701 1112 795 1290 895 1489 c 0
 909 1515 926 1534 948 1546 c 0
 970 1560 992 1568 1014 1569 c 0
 1036 1569 1057 1564 1079 1554 c 0
 1110 1538 1131 1514 1141 1481 c 0
 1144 1471 1145 1462 1145 1452 c 0
 1145 1429 1138 1403 1124 1374 c 0
 1089 1303 989 1132 825 860 c 0
 661 588 561 419 526 352 c 0
 504 310 469 238 420 137 c 0
 371 36 340 -25 328 -47 c 0
 302 -89 269 -119 231 -137 c 0
EndSplineSet
Validated: 1
EndChar

StartChar: zero
Encoding: 48 48 16
Width: 1214
GlyphClass: 2
Flags: HW
HStem: -49 221<425 753> 1253 217<458 766>
VStem: 78 248<469 1086> 893 238<340 818 821 938>
LayerCount: 2
Fore
SplineSet
893 938 m 1
 744 677 573 454 379 270 c 1
 416 206 476 173 559 172 c 0
 599 172 633 175 662 181 c 0
 691 187 717 197 743 211 c 0
 795 238 835 294 862 377 c 0
 867 393 874 437 881 509 c 0
 888 581 892 664 895 758 c 0
 895 778 896 799 896 819 c 0
 896 859 895 899 893 938 c 1
733 1229 m 0
 698 1245 658 1253 616 1253 c 0
 541 1253 483 1235 441 1197 c 0
 399 1159 367 1096 344 1006 c 0
 334 971 328 933 324 893 c 0
 321 852 319 806 319 754 c 0
 319 672 322 577 326 469 c 1
 503 696 666 928 813 1167 c 1
 790 1193 763 1214 733 1229 c 0
1130 1006 m 2
 1130 1004 l 2
 1137 923 1141 841 1141 758 c 0
 1141 675 1138 593 1133 512 c 0
 1128 431 1118 368 1106 322 c 0
 1081 235 1051 164 1014 109 c 0
 995 82 973 58 949 39 c 0
 925 20 900 5 874 -6 c 0
 847 -17 816 -27 782 -35 c 0
 747 -42 712 -46 678 -47 c 0
 644 -48 604 -49 559 -49 c 0
 485 -49 417 -37 354 -14 c 0
 295 9 246 42 205 85 c 0
 164 128 133 180 111 240 c 0
 89 300 78 364 78 434 c 2
 78 446 l 2
 78 513 77 576 76 635 c 0
 76 677 77 730 79 791 c 0
 81 852 84 903 89 943 c 0
 94 983 101 1027 111 1073 c 0
 121 1121 132 1163 147 1198 c 0
 182 1287 243 1355 326 1401 c 0
 416 1447 525 1470 653 1470 c 0
 717 1470 778 1461 834 1442 c 0
 889 1423 936 1394 978 1356 c 0
 1020 1318 1053 1268 1080 1209 c 0
 1107 1150 1123 1082 1130 1006 c 2
EndSplineSet
Validated: 1
EndChar

StartChar: one
Encoding: 49 49 17
Width: 1214
GlyphClass: 2
Flags: HW
HStem: -18 226<177 479 748 1123> -10 233<87 479 748 888>
VStem: 479 268<219 1132> 502 252<546 1132>
LayerCount: 2
Fore
SplineSet
1157 102 m 1xa0
 1157 96 l 2
 1157 65 1147 38 1128 16 c 0
 1108 -7 1073 -18 1024 -18 c 0xa0
 507 -14 223 -11 172 -10 c 0
 134 -10 105 1 86 23 c 0
 68 45 59 71 59 102 c 2
 59 109 l 2
 59 139 68 164 84 186 c 0
 103 211 133 223 174 223 c 0
 231 223 333 222 479 219 c 1x60
 479 260 478 295 477 322 c 0
 476 334 475 369 475 428 c 0
 475 480 476 522 477 555 c 0
 477 592 480 665 485 776 c 0
 495 984 501 1105 502 1139 c 1
 413 1078 345 1038 299 1022 c 0
 283 1018 271 1016 266 1016 c 0
 241 1016 218 1027 193 1047 c 0
 160 1074 143 1101 143 1130 c 0
 143 1157 150 1181 162 1201 c 0
 174 1221 194 1242 221 1262 c 0
 259 1291 310 1328 373 1376 c 1
 399 1380 425 1399 451 1432 c 0
 474 1448 497 1463 522 1477 c 0
 544 1489 566 1495 586 1495 c 0
 588 1495 590 1495 592 1495 c 0
 630 1495 669 1481 707 1454 c 0
 727 1439 743 1425 753 1413 c 0
 763 1401 768 1388 768 1376 c 2
 768 1374 l 2
 767 1343 762 1236 754 1052 c 0x50
 746 868 741 760 741 729 c 0
 741 598 742 488 743 401 c 0
 743 356 745 293 748 211 c 1
 822 210 869 209 889 209 c 0
 908 209 934 209 966 208 c 0
 998 207 1018 207 1028 207 c 0
 1073 207 1105 197 1124 177 c 0
 1143 157 1154 133 1157 104 c 2
 1157 102 l 1xa0
EndSplineSet
Validated: 1
EndChar

StartChar: two
Encoding: 50 50 18
Width: 1214
GlyphClass: 2
Flags: HW
HStem: -37 222<339 981> -25 233<988 1105> 1038 43G<233 243> 1255 223<463 797>
VStem: 848 258<936 1204>
LayerCount: 2
Fore
SplineSet
987 207 m 1xb8
 1001 225 1015 225 1030 209 c 0
 1034 209 1042 209 1054 208 c 0
 1066 207 1074 205 1081 202 c 0
 1088 199 1095 194 1102 190 c 0
 1113 183 1120 176 1124 166 c 0
 1132 150 1137 131 1137 109 c 0
 1137 69 1126 35 1106 8 c 0
 1090 -14 1068 -25 1042 -25 c 0x78
 945 -25 789 -29 575 -37 c 0
 503 -40 428 -41 352 -41 c 0
 281 -41 226 -38 186 -33 c 0
 164 -30 145 -21 129 -6 c 0
 117 5 107 19 100 37 c 0
 86 72 80 121 80 184 c 0
 80 247 93 311 119 375 c 0
 145 439 184 501 236 560 c 0
 288 619 350 668 422 705 c 0
 582 783 684 837 729 868 c 0
 784 906 820 947 836 989 c 0
 844 1015 848 1047 848 1085 c 0
 848 1145 830 1188 793 1214 c 0
 753 1241 693 1255 614 1255 c 0
 561 1255 510 1240 462 1210 c 0
 414 1180 375 1147 348 1110 c 0
 334 1091 320 1075 305 1062 c 0
 290 1049 274 1041 258 1040 c 0
 253 1040 247 1039 240 1038 c 0
 226 1038 203 1045 172 1059 c 0
 142 1075 123 1098 115 1128 c 0
 114 1136 113 1144 113 1151 c 0
 113 1174 120 1202 135 1235 c 0
 150 1264 172 1292 201 1320 c 0
 230 1348 262 1374 299 1399 c 0
 339 1424 385 1443 440 1457 c 0
 495 1471 550 1479 606 1479 c 0
 774 1479 900 1444 983 1374 c 0
 1065 1304 1106 1200 1106 1061 c 0
 1106 946 1075 853 1014 782 c 0
 969 731 887 676 768 616 c 0
 738 601 686 577 612 543 c 0
 551 514 500 479 459 437 c 0
 418 395 388 353 369 309 c 0
 354 272 343 232 338 190 c 1
 407 186 473 185 536 185 c 0
 546 185 557 185 567 185 c 0
 639 186 695 187 735 188 c 0
 776 191 860 197 987 207 c 1xb8
EndSplineSet
Validated: 1
EndChar

StartChar: three
Encoding: 51 51 19
Width: 1214
GlyphClass: 2
Flags: HW
HStem: -49 221<438 766> 627 256<361 697> 1065 43G<238 253> 1255 223<429 765>
VStem: 819 260<981 1207> 870 254<266 523>
LayerCount: 2
Fore
SplineSet
1102 572 m 0xf8
 1117 528 1124 476 1124 416 c 0
 1124 274 1078 161 987 76 c 0
 894 -7 761 -49 588 -49 c 0
 585 -49 583 -49 580 -49 c 0
 524 -49 469 -42 414 -27 c 0
 359 -12 313 8 275 31 c 0
 237 54 205 80 176 109 c 0
 147 138 126 166 112 194 c 0
 98 222 90 247 90 272 c 0
 90 280 91 289 94 297 c 0
 101 331 120 355 150 369 c 0
 172 380 192 385 211 385 c 0
 252 385 289 363 322 319 c 0
 352 279 390 245 438 216 c 0
 486 187 537 172 590 172 c 0
 673 172 741 192 793 232 c 0
 845 272 870 324 870 385 c 0xf4
 870 425 864 458 850 486 c 0
 836 514 814 539 785 560 c 0
 756 581 714 597 660 609 c 0
 606 621 541 627 463 627 c 0
 423 627 391 641 365 668 c 0
 338 695 324 726 324 760 c 0
 324 794 333 823 352 846 c 0
 374 871 405 883 446 883 c 0
 566 883 660 902 727 942 c 0
 788 979 819 1032 819 1102 c 2
 819 1108 l 1
 819 1116 l 2
 819 1162 800 1197 762 1219 c 0
 717 1244 651 1255 565 1255 c 0
 539 1255 511 1251 481 1243 c 0
 473 1240 464 1236 453 1228 c 0
 442 1220 433 1214 427 1209 c 0
 421 1204 412 1197 402 1186 c 0
 392 1175 385 1166 381 1161 c 0
 373 1135 365 1126 358 1133 c 1
 331 1098 303 1076 274 1069 c 0
 266 1066 258 1065 248 1065 c 0
 228 1065 206 1071 184 1083 c 0
 154 1098 136 1122 129 1155 c 0
 128 1163 127 1172 127 1180 c 0
 127 1205 133 1231 147 1260 c 0
 176 1319 221 1368 281 1409 c 0
 312 1431 351 1448 399 1460 c 0
 447 1472 499 1479 555 1479 c 0
 735 1479 868 1445 954 1378 c 0
 1037 1311 1079 1213 1079 1085 c 2
 1079 1077 l 1
 1079 1071 l 2
 1079 1033 1074 997 1062 964 c 0
 1050 931 1035 902 1015 879 c 0
 995 856 971 835 944 817 c 0
 917 799 889 786 860 776 c 1
 882 769 902 763 920 756 c 0
 962 738 999 714 1031 684 c 0
 1063 654 1087 616 1102 572 c 0xf8
EndSplineSet
Validated: 1
EndChar

StartChar: four
Encoding: 52 52 20
Width: 1214
GlyphClass: 2
Flags: HW
HStem: -47 43G<870 902> 449 184<342 756 963 1102>
VStem: 741 203<935 1203> 754 209<76 446 633 1203> 756 223<-15 438>
LayerCount: 2
Fore
SplineSet
975 121 m 0xd0
 978 105 979 90 979 76 c 0xc8
 979 49 974 24 963 4 c 0xd0
 945 -30 919 -47 885 -47 c 0
 856 -47 828 -36 800 -15 c 0
 772 6 757 28 756 51 c 0xc8
 755 67 754 94 754 129 c 2
 754 285 l 2xd0
 754 341 755 396 756 449 c 1xc8
 664 449 l 2
 462 449 319 440 236 422 c 0
 226 419 216 418 205 419 c 0
 194 420 183 421 172 424 c 0
 153 431 138 442 126 456 c 0
 114 470 105 487 99 505 c 0
 93 523 90 542 90 561 c 0
 90 583 93 604 100 623 c 0
 114 663 151 725 211 810 c 0
 271 895 351 1001 449 1128 c 0
 536 1240 605 1332 657 1403 c 0
 676 1429 698 1449 723 1463 c 0
 748 1477 772 1485 795 1485 c 2
 809 1485 l 2
 834 1485 857 1480 877 1470 c 0
 903 1456 919 1434 924 1401 c 2
 924 1399 l 1
 932 1351 939 1279 944 1181 c 0xe0
 949 1083 953 1000 954 932 c 0
 955 831 958 731 961 631 c 1
 981 630 1003 629 1028 629 c 0
 1063 629 1089 621 1103 605 c 0
 1117 589 1125 570 1126 545 c 2
 1126 543 l 2
 1126 514 1120 491 1106 475 c 0
 1090 455 1063 444 1028 444 c 0
 1005 444 983 445 963 446 c 1
 966 256 970 148 975 121 c 0xd0
616 633 m 2
 756 633 l 1xc8
 756 869 751 1060 741 1206 c 1xe0
 547 962 414 769 340 627 c 1
 416 631 508 633 616 633 c 2
EndSplineSet
Validated: 1
EndChar

StartChar: five
Encoding: 53 53 21
Width: 1214
GlyphClass: 2
Flags: HW
HStem: -37 223<392 724> 836 232<467 813> 1219 231<559 1093> 1241 213<342 1017>
VStem: 92 244<955 1235> 891 254<371 755>
LayerCount: 2
Fore
SplineSet
102 1149 m 0xdc
 105 1191 106 1223 106 1243 c 1
 92 1266 86 1292 86 1321 c 0
 86 1348 87 1396 127 1432 c 0
 146 1450 168 1458 193 1458 c 0
 244 1458 370 1457 573 1454 c 0xdc
 779 1451 932 1450 1030 1450 c 0
 1056 1450 1078 1439 1094 1417 c 0
 1114 1390 1124 1357 1124 1317 c 0
 1124 1276 1113 1249 1090 1235 c 0
 1083 1231 1076 1228 1069 1225 c 0
 1062 1222 1053 1221 1041 1220 c 0
 1029 1219 1022 1219 1017 1219 c 0xec
 1012 1219 1004 1219 994 1220 c 0
 984 1221 978 1221 975 1221 c 1
 956 1221 920 1224 868 1229 c 0
 813 1233 766 1236 724 1238 c 0
 682 1240 626 1241 556 1241 c 0
 486 1241 414 1239 342 1235 c 1
 338 1153 335 1097 335 1068 c 0
 335 1061 336 1055 336 1051 c 0
 336 1026 336 1008 335 998 c 0
 334 988 335 973 336 954 c 1
 373 981 417 1006 469 1026 c 0
 541 1053 621 1067 710 1067 c 0
 714 1067 719 1067 723 1067 c 0
 794 1067 857 1055 913 1032 c 0
 965 1009 1008 977 1041 935 c 0
 1074 893 1100 846 1118 792 c 0
 1136 738 1145 679 1145 616 c 0
 1145 515 1132 424 1106 341 c 0
 1080 258 1042 189 994 134 c 0
 946 79 885 37 813 8 c 0
 739 -22 659 -37 573 -37 c 0
 505 -37 442 -30 383 -16 c 0
 326 -2 279 15 244 37 c 0
 209 59 179 83 154 109 c 0
 129 135 108 161 92 190 c 0
 77 223 70 251 70 274 c 0
 70 282 71 291 74 299 c 0
 81 329 100 353 131 369 c 0
 147 376 161 380 171 383 c 0
 181 386 190 387 198 387 c 0
 206 387 211 386 215 385 c 0
 233 384 249 376 264 362 c 0
 276 351 289 336 303 317 c 0
 364 230 447 186 551 186 c 0
 655 186 737 222 797 293 c 0
 860 367 891 466 891 592 c 0
 891 668 872 728 834 772 c 0
 799 814 742 836 666 836 c 0
 631 836 593 831 553 823 c 0
 534 819 507 810 473 795 c 0
 465 791 454 784 441 774 c 0
 428 764 420 758 416 754 c 0
 393 735 373 719 358 705 c 0
 327 679 291 663 250 659 c 2
 236 659 l 2
 217 659 198 664 180 672 c 0
 151 684 130 710 115 750 c 0
 103 784 95 826 92 877 c 0
 91 888 91 898 91 909 c 0
 91 920 91 931 92 942 c 0
 92 990 95 1059 102 1149 c 0xdc
EndSplineSet
Validated: 1
EndChar

StartChar: six
Encoding: 54 54 22
Width: 1214
GlyphClass: 2
Flags: HW
HStem: -45 221<457 747> 778 233<449 821>
VStem: 66 238<343 665> 899 252<335 699>
LayerCount: 2
Fore
SplineSet
1120 739 m 0
 1140 675 1151 601 1151 516 c 0
 1151 438 1137 365 1110 297 c 0
 1057 158 963 58 831 -2 c 0
 764 -31 694 -45 619 -45 c 0
 616 -45 611 -45 608 -45 c 0
 512 -45 428 -29 354 4 c 0
 284 38 229 86 187 147 c 0
 145 208 115 280 95 361 c 0
 75 442 66 532 66 629 c 0
 66 752 77 861 101 957 c 0
 125 1053 158 1134 198 1199 c 0
 238 1264 289 1318 350 1362 c 0
 414 1407 484 1441 559 1464 c 0
 634 1487 717 1502 807 1509 c 2
 829 1509 l 2
 860 1509 888 1504 911 1493 c 0
 942 1478 962 1454 967 1421 c 2
 967 1413 l 2
 967 1393 956 1372 936 1350 c 0
 914 1328 889 1313 860 1305 c 0
 844 1301 818 1295 784 1289 c 0
 750 1283 721 1277 698 1272 c 0
 675 1267 648 1258 618 1247 c 0
 558 1225 497 1183 436 1122 c 0
 405 1089 376 1045 350 989 c 0
 338 960 327 934 317 909 c 1
 354 935 396 956 442 971 c 0
 518 997 604 1011 700 1012 c 0
 772 1012 837 1002 893 983 c 0
 946 964 992 935 1031 895 c 0
 1070 855 1100 803 1120 739 c 0
506 195 m 0
 537 183 571 176 606 176 c 2
 610 176 l 1
 612 176 l 2
 660 176 707 192 752 223 c 0
 797 254 832 295 859 343 c 0
 886 391 899 441 899 492 c 0
 899 609 876 687 831 725 c 0
 808 744 782 758 753 766 c 0
 724 774 686 778 641 778 c 0
 571 778 506 763 446 732 c 0
 386 701 338 662 301 614 c 1
 301 562 302 519 303 485 c 0
 308 428 328 372 362 317 c 0
 380 290 401 266 424 245 c 0
 447 224 475 207 506 195 c 0
EndSplineSet
Validated: 1
EndChar

StartChar: seven
Encoding: 55 55 23
Width: 1214
GlyphClass: 2
Flags: HW
HStem: -47 43G<250 266> 1233 229<171 844>
LayerCount: 2
Fore
SplineSet
461 1231 m 0
 326 1228 239 1222 199 1212 c 0
 191 1209 181 1208 171 1208 c 0
 161 1208 150 1210 139 1214 c 0
 121 1221 108 1231 98 1245 c 0
 79 1270 69 1298 68 1329 c 1
 68 1315 68 1316 68 1331 c 0
 68 1360 76 1384 92 1403 c 0
 108 1422 136 1435 176 1442 c 0
 250 1456 374 1462 547 1462 c 0
 618 1462 716 1459 840 1454 c 0
 957 1450 1019 1448 1024 1448 c 0
 1042 1448 1059 1445 1076 1437 c 0
 1093 1429 1109 1417 1124 1401 c 0
 1139 1383 1148 1360 1149 1331 c 0
 1149 1306 1141 1279 1126 1249 c 0
 1107 1208 1073 1148 1022 1068 c 0
 971 988 918 906 862 823 c 0
 803 740 732 629 647 490 c 0
 562 351 483 211 408 66 c 0
 389 26 362 -4 328 -23 c 0
 302 -39 277 -47 254 -47 c 0
 246 -47 237 -46 229 -45 c 0
 192 -37 167 -17 152 16 c 0
 145 31 141 48 141 65 c 0
 141 82 146 101 156 121 c 0
 226 258 302 393 387 528 c 0
 474 663 546 771 603 850 c 0
 660 929 710 1002 753 1069 c 0
 796 1136 826 1190 844 1231 c 1
 785 1232 724 1233 660 1233 c 0
 596 1233 530 1232 461 1231 c 0
EndSplineSet
Validated: 5
EndChar

StartChar: eight
Encoding: 56 56 24
Width: 1214
GlyphClass: 2
Flags: HW
HStem: -57 225<411 783> 1274 197<447 726>
VStem: 53 227<281 540> 109 248<987 1186> 831 240<981 1175> 922 240<287 553>
LayerCount: 2
Fore
SplineSet
440 199 m 0xe4
 488 179 539 168 594 168 c 0
 632 168 671 173 710 184 c 0
 749 195 784 211 816 231 c 0
 848 251 874 278 893 309 c 0
 912 340 922 375 922 412 c 0
 922 432 919 451 915 469 c 0
 911 487 903 507 891 530 c 0
 879 553 862 576 840 596 c 0
 818 616 788 637 749 659 c 0
 710 681 663 701 610 719 c 1
 512 694 432 653 371 594 c 0
 311 535 281 473 281 406 c 0
 281 361 295 320 324 283 c 0
 355 246 394 218 440 199 c 0xe4
425 1211 m 0
 379 1169 356 1125 356 1077 c 0
 356 1039 376 1005 416 975 c 0
 457 944 526 912 623 879 c 1
 679 901 727 930 769 965 c 0
 811 1000 831 1031 831 1057 c 0xd8
 831 1091 821 1124 800 1157 c 0
 779 1190 749 1217 711 1240 c 0
 673 1263 632 1274 590 1274 c 2
 586 1274 l 2
 525 1274 471 1253 425 1211 c 0
1154 504 m 0
 1159 479 1161 453 1161 426 c 0
 1161 381 1155 337 1143 293 c 0
 1131 249 1110 206 1081 163 c 0
 1052 120 1017 82 975 51 c 0
 933 20 877 -7 808 -27 c 0
 739 -47 664 -57 583 -57 c 0
 502 -57 429 -48 365 -29 c 0
 304 -10 254 15 216 46 c 0
 178 77 147 113 122 155 c 0
 97 197 79 239 69 281 c 0
 59 323 53 368 53 414 c 0xe4
 53 460 65 510 90 564 c 0
 115 618 151 669 199 715 c 0
 232 748 267 774 305 793 c 1
 250 824 207 861 174 905 c 0
 130 962 109 1021 109 1081 c 0
 109 1099 110 1118 113 1137 c 0
 116 1156 121 1178 130 1204 c 0
 139 1230 150 1255 164 1279 c 0
 178 1303 196 1327 220 1351 c 0
 244 1375 271 1395 301 1411 c 0
 335 1429 377 1443 426 1454 c 0
 475 1465 529 1470 588 1470 c 0
 647 1470 701 1465 750 1454 c 0
 799 1443 840 1429 874 1413 c 0
 908 1395 938 1375 962 1351 c 0
 986 1327 1004 1303 1018 1279 c 0
 1032 1255 1043 1230 1051 1203 c 0
 1059 1176 1064 1154 1067 1134 c 0
 1070 1114 1071 1094 1071 1075 c 0
 1071 1056 1069 1038 1064 1021 c 0
 1059 1004 1054 989 1047 975 c 0
 1040 961 1030 947 1018 933 c 0
 1006 919 994 907 984 897 c 0
 974 887 961 876 945 864 c 0
 929 852 917 843 907 838 c 0
 897 833 885 824 870 813 c 1
 908 797 942 778 971 758 c 0
 1011 731 1042 703 1066 675 c 0
 1090 647 1109 618 1124 587 c 0
 1139 556 1149 529 1154 504 c 0
EndSplineSet
Validated: 1
EndChar

StartChar: nine
Encoding: 57 57 25
Width: 1214
GlyphClass: 2
Flags: HW
HStem: -47 43G<321 339> 457 231<427 799> 1290 223<462 764>
VStem: 66 250<802 1142> 918 233<778 1111>
LayerCount: 2
Fore
SplineSet
356 1137 m 0
 329 1091 315 1042 315 993 c 0
 315 790 411 688 604 688 c 0
 665 688 725 700 782 725 c 0
 839 750 885 781 918 819 c 1
 918 838 l 2
 918 875 915 923 911 983 c 0
 906 1040 886 1096 852 1151 c 0
 834 1178 815 1203 792 1224 c 0
 769 1245 742 1261 710 1273 c 0
 678 1285 644 1290 610 1290 c 2
 604 1290 l 2
 555 1290 508 1276 464 1248 c 0
 420 1220 383 1183 356 1137 c 0
356 -45 m 0
 349 -45 343 -46 336 -47 c 0
 306 -47 279 -41 256 -29 c 0
 225 -14 207 10 203 43 c 0
 203 46 202 48 201 49 c 0
 201 71 211 93 232 114 c 0
 253 135 277 150 303 158 c 0
 319 162 346 167 384 174 c 0
 422 181 454 188 483 195 c 0
 512 202 544 210 578 221 c 0
 650 246 713 285 768 338 c 0
 803 375 835 417 864 465 c 0
 875 484 885 503 893 522 c 1
 863 506 830 493 795 483 c 0
 728 467 645 458 547 457 c 0
 477 457 411 471 348 500 c 0
 288 529 238 566 198 614 c 0
 158 662 125 717 101 779 c 0
 77 841 66 905 66 969 c 0
 66 1047 78 1119 105 1187 c 0
 132 1255 168 1312 214 1360 c 0
 260 1408 317 1446 385 1473 c 0
 455 1500 528 1513 606 1513 c 0
 799 1513 939 1448 1026 1317 c 0
 1108 1194 1150 1021 1151 797 c 0
 1151 680 1137 575 1110 485 c 0
 1083 395 1046 319 1000 257 c 0
 954 195 898 142 831 98 c 0
 761 54 688 22 609 -1 c 0
 530 -24 446 -38 356 -45 c 0
EndSplineSet
Validated: 1
EndChar

StartChar: colon
Encoding: 58 58 26
Width: 1214
GlyphClass: 2
Flags: HW
LayerCount: 2
Fore
SplineSet
762 827 m 0
 762 787 755 747 743 705 c 0
 735 671 717 645 688 627 c 0
 663 612 639 604 614 604 c 2
 608 604 l 2
 567 607 535 615 510 629 c 0
 476 649 457 680 453 721 c 1
 453 721 l 1
 450 746 449 770 449 795 c 0
 449 821 450 844 451 866 c 0
 452 888 459 908 471 924 c 0
 483 939 498 949 516 956 c 0
 534 963 549 968 563 969 c 0
 577 970 587 971 594 971 c 0
 617 971 637 970 653 967 c 0
 668 964 683 958 698 950 c 0
 714 942 729 929 741 913 c 0
 752 897 759 878 760 856 c 0
 761 846 762 837 762 827 c 0
768 254 m 0
 768 221 764 188 754 154 c 0
 746 120 724 94 690 78 c 0
 661 64 634 56 608 55 c 0
 574 55 541 66 508 86 c 0
 475 106 458 135 455 172 c 0
 454 210 452 233 451 238 c 0
 451 243 452 255 453 274 c 0
 454 293 456 308 457 319 c 0
 457 341 463 361 475 377 c 0
 487 393 504 405 524 410 c 0
 551 420 578 424 604 424 c 0
 629 424 651 421 670 416 c 0
 689 411 708 398 727 379 c 0
 746 361 758 338 762 311 c 0
 766 292 768 273 768 254 c 0
EndSplineSet
Validated: 1
EndChar

StartChar: semicolon
Encoding: 59 59 27
Width: 1214
GlyphClass: 2
Flags: HW
HStem: 518 369<554 776>
VStem: 510 313<565 854>
LayerCount: 2
Fore
SplineSet
823 743 m 2
 823 703 817 662 805 618 c 0
 797 584 779 559 750 541 c 0
 725 526 701 518 676 518 c 0
 657 518 635 522 612 530 c 0
 589 538 568 551 549 567 c 0
 529 586 517 609 514 635 c 1
 511 660 510 685 510 711 c 0
 510 737 511 760 512 780 c 0
 513 802 520 822 532 838 c 0
 544 854 560 865 578 870 c 0
 608 880 637 886 664 887 c 0
 684 887 701 885 715 881 c 0
 730 878 746 872 762 864 c 0
 778 856 792 844 803 829 c 0
 814 811 820 792 823 770 c 2
 823 743 l 2
782 162 m 2
 782 150 l 2
 778 105 734 -75 649 -389 c 0
 639 -423 622 -449 596 -465 c 0
 573 -480 549 -487 526 -487 c 0
 491 -487 459 -477 430 -457 c 0
 405 -439 393 -414 393 -384 c 0
 393 -345 414 -233 434 -135 c 0
 461 0 484 101 500 168 c 0
 505 191 512 211 522 227 c 0
 533 243 545 254 559 258 c 0
 578 265 596 269 614 270 c 0
 621 270 628 269 635 268 c 0
 664 268 693 262 723 248 c 0
 742 240 757 227 768 209 c 0
 778 195 782 180 782 162 c 2
EndSplineSet
Validated: 1
EndChar

StartChar: less
Encoding: 60 60 28
Width: 1214
GlyphClass: 2
Flags: HW
LayerCount: 2
Fore
SplineSet
1010 -51 m 0
 988 -51 963 -47 936 -37 c 0
 899 -26 855 -1 803 37 c 0
 751 75 696 120 637 172 c 0
 578 224 520 277 463 330 c 0
 406 383 346 438 283 494 c 0
 220 550 167 594 123 627 c 0
 101 643 86 665 78 694 c 0
 75 706 74 720 74 735 c 0
 74 749 76 763 80 778 c 0
 88 807 103 828 125 840 c 0
 201 897 292 969 397 1055 c 0
 501 1142 597 1220 684 1290 c 0
 771 1361 850 1417 920 1458 c 0
 947 1476 974 1485 1001 1485 c 0
 1021 1485 1040 1480 1055 1470 c 0
 1085 1452 1106 1429 1120 1399 c 0
 1127 1385 1130 1370 1130 1354 c 0
 1130 1338 1126 1321 1116 1303 c 0
 1100 1276 1067 1244 1016 1210 c 0
 941 1157 831 1075 688 963 c 0
 545 851 448 775 397 737 c 1
 443 700 497 655 557 600 c 0
 618 545 674 495 723 449 c 0
 772 403 826 354 883 305 c 0
 940 256 990 217 1034 190 c 0
 1079 161 1110 135 1126 109 c 0
 1137 93 1143 75 1143 57 c 0
 1143 43 1140 30 1135 16 c 0
 1117 -22 1081 -44 1028 -49 c 0
 1023 -50 1017 -51 1010 -51 c 0
EndSplineSet
Validated: 1
EndChar

StartChar: equal
Encoding: 61 61 29
Width: 1214
GlyphClass: 2
Flags: HW
HStem: 481 219<224 997> 891 217<228 997>
LayerCount: 2
Fore
SplineSet
913 1108 m 0
 953 1108 981 1098 997 1079 c 0
 1013 1060 1023 1037 1026 1008 c 2
 1026 1006 l 2
 1026 991 1025 977 1022 965 c 0
 1019 953 1014 940 1006 928 c 0
 998 916 985 905 967 897 c 0
 955 892 942 890 928 891 c 2
 911 891 l 2
 862 892 812 893 760 893 c 2
 535 887 l 2
 439 884 369 883 324 883 c 0
 284 883 252 893 227 913 c 0
 202 933 190 960 190 991 c 2
 190 997 l 2
 190 1026 200 1052 219 1075 c 0
 239 1097 269 1108 307 1108 c 2
 315 1108 l 2
 396 1106 486 1104 582 1104 c 0
 646 1104 713 1105 784 1106 c 0
 855 1107 898 1108 913 1108 c 0
928 489 m 2
 911 489 l 2
 880 490 851 492 825 492 c 0
 768 492 680 490 561 487 c 0
 442 483 361 481 319 481 c 0
 277 481 245 492 223 514 c 0
 201 536 190 563 190 594 c 2
 190 598 l 2
 190 627 201 652 223 672 c 0
 245 691 275 700 315 700 c 2
 352 700 l 2
 381 700 414 700 449 700 c 0
 519 700 601 700 696 702 c 2
 913 707 l 2
 953 707 981 697 997 678 c 0
 1013 659 1023 635 1026 606 c 2
 1026 604 l 2
 1026 589 1025 576 1022 565 c 0
 1019 553 1014 540 1006 528 c 0
 998 514 985 504 967 496 c 0
 956 492 943 489 928 489 c 2
EndSplineSet
Validated: 1
EndChar

StartChar: greater
Encoding: 62 62 30
Width: 1214
GlyphClass: 2
Flags: HW
LayerCount: 2
Fore
SplineSet
215 -37 m 0
 196 -37 178 -33 162 -23 c 0
 147 -13 133 -2 121 10 c 0
 110 22 101 36 96 51 c 0
 89 65 85 79 84 94 c 0
 84 110 89 127 100 145 c 0
 116 172 150 204 199 238 c 0
 274 291 383 373 528 485 c 0
 671 597 768 673 819 711 c 1
 773 748 718 793 657 848 c 0
 596 903 542 953 494 999 c 0
 445 1045 391 1094 334 1143 c 0
 277 1192 226 1230 182 1257 c 0
 137 1286 106 1313 90 1339 c 0
 79 1355 74 1374 74 1393 c 0
 74 1407 77 1420 82 1432 c 0
 100 1470 135 1492 188 1497 c 0
 195 1498 202 1499 207 1499 c 0
 229 1499 254 1495 281 1485 c 0
 318 1474 362 1449 414 1411 c 0
 466 1373 521 1328 580 1276 c 0
 639 1224 697 1171 754 1118 c 0
 811 1065 871 1010 934 954 c 0
 997 898 1050 854 1094 823 c 0
 1116 807 1131 784 1139 754 c 0
 1142 742 1143 728 1143 713 c 0
 1143 699 1141 685 1137 670 c 0
 1129 641 1114 620 1092 608 c 0
 1016 552 924 480 819 393 c 0
 715 306 619 228 532 158 c 0
 445 88 367 32 297 -10 c 0
 270 -28 242 -37 215 -37 c 0
EndSplineSet
Validated: 1
EndChar

StartChar: question
Encoding: 63 63 31
Width: 1214
GlyphClass: 2
Flags: HW
HStem: -53 365<444 683> 1042 43G<281 311> 1280 223<488 752>
VStem: 371 383<16 241> 438 258<444 648> 803 256<993 1233>
LayerCount: 2
Fore
SplineSet
582 412 m 0xec
 570 412 557 413 543 416 c 0
 475 434 439 476 438 543 c 0
 438 562 442 582 449 604 c 0
 459 644 473 681 492 715 c 0
 511 749 532 778 555 803 c 0
 577 828 600 850 625 870 c 0
 650 892 672 912 694 930 c 0
 716 948 736 966 752 985 c 0
 786 1022 803 1060 803 1099 c 0
 803 1136 800 1201 752 1239 c 0
 717 1266 665 1280 599 1280 c 0
 596 1280 593 1280 590 1280 c 0
 574 1280 558 1277 543 1270 c 0
 527 1262 512 1253 498 1243 c 0
 486 1233 472 1220 457 1202 c 0
 442 1184 430 1169 422 1157 c 0
 414 1145 403 1130 389 1112 c 0
 377 1093 363 1077 348 1065 c 0
 334 1053 319 1045 303 1042 c 2
 285 1042 l 2
 278 1042 270 1044 260 1047 c 0
 250 1050 237 1054 219 1061 c 0
 189 1077 170 1100 162 1130 c 2
 158 1155 l 2
 158 1178 165 1206 180 1239 c 0
 195 1269 215 1298 238 1325 c 0
 261 1354 289 1382 322 1409 c 0
 355 1438 393 1461 438 1479 c 0
 480 1495 524 1503 571 1503 c 0
 575 1503 578 1503 582 1503 c 0
 736 1503 854 1467 936 1395 c 0
 1018 1323 1059 1214 1059 1069 c 0
 1059 1029 1052 994 1038 961 c 0
 1026 928 1009 899 989 874 c 0
 969 851 947 830 922 811 c 2
 848 754 l 2
 823 735 800 715 780 696 c 0
 760 677 742 654 727 625 c 0
 712 598 701 566 696 532 c 0
 689 491 674 460 651 438 c 0
 633 420 611 412 582 412 c 0xec
547 -53 m 2
 499 -53 459 -37 426 -4 c 0
 389 34 371 78 371 129 c 0
 371 180 390 222 430 256 c 0
 472 293 520 311 575 311 c 0
 626 311 667 295 700 262 c 0
 735 227 754 184 754 135 c 0xf4
 754 84 736 42 702 8 c 0
 668 -26 624 -46 569 -53 c 2
 547 -53 l 2
EndSplineSet
Validated: 1
EndChar

StartChar: at
Encoding: 64 64 32
Width: 1214
GlyphClass: 2
Flags: HW
HStem: -291 225<471 785> 215 215<531 655> 756 207<555 761> 1231 233<516 799>
VStem: 55 227<196 882> 307 207<436 718> 680 215<446 687> 963 199<394 986>
LayerCount: 2
Fore
SplineSet
758 303 m 1
 718 244 662 215 588 215 c 0
 499 215 430 243 381 299 c 0
 332 355 307 438 307 549 c 0
 307 604 314 653 326 698 c 0
 338 744 355 784 375 817 c 0
 397 850 422 878 451 901 c 0
 503 942 563 963 633 963 c 0
 675 963 717 955 758 940 c 0
 793 926 822 908 842 883 c 0
 858 864 866 845 866 827 c 0
 866 817 863 808 858 797 c 0
 853 786 846 776 836 766 c 0
 826 756 815 749 803 745 c 0
 785 740 772 737 762 737 c 0
 746 737 725 740 702 745 c 0
 695 746 686 750 672 754 c 0
 657 757 643 757 629 756 c 0
 615 755 602 749 588 741 c 0
 574 733 562 723 551 709 c 0
 540 695 531 676 524 653 c 0
 517 630 514 603 514 573 c 0
 514 557 515 541 518 526 c 0
 519 511 523 495 528 479 c 0
 539 446 557 430 582 430 c 0
 597 430 611 433 623 438 c 0
 635 443 644 453 651 467 c 0
 667 497 677 549 680 623 c 0
 681 656 704 680 748 698 c 0
 771 708 791 713 810 713 c 0
 812 713 815 713 817 713 c 0
 833 713 848 711 860 707 c 0
 887 696 902 676 903 647 c 0
 903 644 902 642 901 639 c 0
 897 601 895 568 895 539 c 0
 895 532 895 525 895 518 c 0
 895 480 898 449 905 424 c 0
 908 414 910 407 913 403 c 0
 917 396 923 393 930 393 c 0
 933 396 935 401 938 406 c 0
 945 422 950 443 954 469 c 0
 959 518 963 563 963 604 c 0
 963 672 959 736 952 795 c 0
 947 852 940 901 930 942 c 0
 920 983 909 1020 895 1051 c 0
 880 1084 867 1109 856 1128 c 0
 844 1147 829 1164 811 1178 c 0
 793 1192 778 1201 766 1208 c 0
 754 1215 739 1220 723 1223 c 0
 707 1227 694 1229 684 1229 c 0
 676 1229 665 1230 651 1231 c 0
 602 1231 556 1215 512 1184 c 0
 468 1153 429 1108 395 1049 c 0
 361 990 333 916 313 829 c 0
 293 742 283 646 283 541 c 0
 283 450 289 367 303 295 c 0
 317 223 334 165 356 121 c 0
 378 77 403 41 432 12 c 0
 461 -17 489 -37 516 -49 c 0
 543 -60 573 -66 606 -66 c 0
 639 -66 669 -62 696 -55 c 0
 723 -48 746 -41 764 -33 c 0
 782 -25 798 -13 813 2 c 0
 829 17 842 31 852 45 c 0
 862 59 873 75 885 94 c 0
 890 105 895 114 899 119 c 0
 903 124 908 131 915 139 c 0
 920 147 927 155 932 160 c 0
 937 164 944 168 952 172 c 0
 960 176 970 178 981 178 c 0
 991 178 1001 176 1012 172 c 0
 1026 167 1037 160 1047 152 c 0
 1057 144 1064 133 1069 121 c 0
 1074 110 1076 98 1075 86 c 0
 1075 63 1069 35 1057 2 c 0
 1049 -18 1041 -36 1034 -51 c 0
 1026 -66 1015 -84 1001 -106 c 0
 987 -128 972 -148 956 -164 c 0
 940 -180 920 -197 897 -213 c 0
 872 -229 846 -244 817 -256 c 0
 788 -267 756 -276 719 -281 c 0
 682 -288 644 -291 604 -291 c 2
 592 -291 l 2
 516 -291 445 -271 379 -233 c 0
 312 -195 255 -144 207 -78 c 0
 159 -12 122 68 96 162 c 0
 69 256 55 358 55 467 c 0
 55 589 65 702 84 807 c 0
 103 912 130 1004 164 1085 c 0
 199 1164 241 1233 289 1290 c 0
 337 1347 390 1390 449 1419 c 0
 508 1448 570 1463 637 1464 c 0
 685 1464 728 1460 766 1452 c 0
 806 1445 844 1433 881 1415 c 0
 918 1396 950 1371 979 1341 c 0
 1008 1311 1034 1274 1057 1229 c 0
 1080 1184 1099 1131 1114 1071 c 0
 1145 945 1161 788 1161 600 c 0
 1161 496 1146 405 1116 326 c 0
 1100 284 1075 249 1044 223 c 0
 1013 197 976 183 932 182 c 0
 869 182 821 204 788 246 c 0
 776 262 766 281 758 303 c 1
EndSplineSet
Validated: 1
EndChar

StartChar: A
Encoding: 65 65 33
Width: 1214
GlyphClass: 2
Flags: HW
LayerCount: 2
Fore
SplineSet
246 100 m 0
 231 51 207 18 176 2 c 0
 158 -8 141 -12 125 -12 c 0
 109 -12 93 -9 78 -2 c 0
 53 9 36 26 25 49 c 0
 17 67 12 87 12 108 c 0
 12 129 15 151 20 176 c 0
 28 218 66 317 133 471 c 1
 114 489 103 511 100 537 c 2
 100 541 l 2
 100 564 112 586 135 606 c 0
 154 624 178 637 207 647 c 1
 383 1021 519 1272 616 1399 c 0
 639 1428 662 1448 682 1462 c 0
 702 1477 726 1485 752 1485 c 2
 768 1485 l 2
 795 1485 820 1478 842 1466 c 0
 872 1450 890 1424 897 1389 c 0
 927 1225 976 993 1044 694 c 0
 1082 527 1113 406 1135 327 c 0
 1157 248 1173 200 1184 182 c 0
 1198 157 1204 135 1204 113 c 2
 1204 100 l 2
 1201 75 1193 55 1179 37 c 0
 1165 19 1147 6 1128 -2 c 0
 1105 -9 1090 -12 1083 -12 c 1
 1083 -12 l 1
 1065 -12 1048 -8 1030 2 c 0
 999 18 973 50 954 98 c 0
 935 142 899 281 846 514 c 1
 675 507 521 493 383 473 c 1
 337 365 291 241 246 100 c 0
475 680 m 1
 594 692 703 699 801 702 c 1
 698 1165 l 1
 639 1065 565 904 475 680 c 1
EndSplineSet
Validated: 5
EndChar

StartChar: B
Encoding: 66 66 34
Width: 1214
GlyphClass: 2
Flags: HW
HStem: -47 43G<226 241> -20 185<414 497> 584 198<315 708> 1239 213<325 717>
VStem: 61 248<168 282 295 584 784 1226> 829 244<884 1142> 905 254<322 468>
LayerCount: 2
Fore
SplineSet
68 84 m 2xba
 71 124 73 191 74 287 c 0
 74 466 69 664 61 881 c 1
 58 970 57 1029 57 1060 c 0
 57 1091 58 1132 60 1183 c 0
 62 1234 63 1270 63 1290 c 0
 64 1332 77 1365 101 1388 c 0
 125 1411 155 1421 190 1421 c 2
 197 1421 l 1
 234 1432 279 1441 334 1446 c 0
 356 1449 379 1450 404 1451 c 0
 429 1452 449 1452 463 1452 c 2
 508 1452 l 1
 532 1452 l 2
 637 1452 732 1435 815 1401 c 0
 897 1366 960 1315 1004 1249 c 0
 1050 1181 1073 1101 1073 1010 c 0xbc
 1073 932 1054 864 1016 807 c 0
 986 763 948 728 903 702 c 1
 933 688 962 673 991 655 c 0
 1037 625 1077 591 1110 553 c 0
 1143 515 1159 477 1159 440 c 2
 1159 438 l 2
 1159 385 1145 333 1117 281 c 0
 1089 229 1049 181 996 138 c 0
 943 95 873 59 786 29 c 0
 699 -1 603 -21 498 -29 c 1
 486 -23 474 -20 462 -20 c 0x7a
 446 -20 430 -25 414 -35 c 1
 343 -40 299 -44 283 -45 c 0
 265 -46 248 -47 233 -47 c 0
 218 -47 203 -46 188 -43 c 2
 184 -43 l 2
 150 -43 121 -31 98 -8 c 0
 78 12 68 39 68 72 c 2
 68 84 l 2xba
309 825 m 2
 309 784 l 1
 369 783 424 782 473 781 c 0
 478 781 483 781 488 781 c 0
 531 781 568 784 599 790 c 0
 634 796 663 803 686 813 c 0
 709 823 730 834 748 848 c 0
 766 862 778 875 788 889 c 0
 798 903 806 918 812 935 c 0
 818 952 822 967 825 981 c 0
 828 995 829 1009 829 1024 c 0
 829 1054 823 1082 809 1107 c 0
 795 1132 778 1153 757 1169 c 0
 736 1185 711 1199 684 1210 c 0
 638 1229 590 1239 539 1239 c 0
 536 1239 531 1239 528 1239 c 0
 457 1239 389 1233 322 1221 c 1
 321 1196 318 1159 317 1110 c 0
 312 1010 309 915 309 825 c 2
876 339 m 0
 896 364 905 388 905 408 c 0
 905 419 899 431 885 446 c 0
 871 461 849 478 819 495 c 0
 789 512 746 529 690 545 c 0
 634 561 570 574 498 584 c 1
 315 584 l 1
 320 396 326 255 330 164 c 1
 345 164 366 164 395 165 c 0x7a
 424 166 449 167 469 168 c 0
 535 171 596 181 653 199 c 0
 710 217 758 238 793 263 c 0
 828 288 856 314 876 339 c 0
EndSplineSet
Validated: 1
EndChar

StartChar: C
Encoding: 67 67 35
Width: 1214
GlyphClass: 2
Flags: HW
LayerCount: 2
Fore
SplineSet
1167 1417 m 0
 1179 1364 1186 1307 1186 1247 c 0
 1186 1206 1185 1182 1184 1174 c 0
 1184 1140 1172 1105 1147 1070 c 0
 1122 1035 1096 1017 1067 1014 c 0
 1062 1013 1056 1012 1049 1012 c 0
 1024 1012 1000 1020 975 1036 c 0
 941 1058 924 1087 924 1124 c 0
 924 1134 925 1158 928 1198 c 1
 909 1210 896 1218 891 1221 c 0
 886 1224 878 1228 868 1233 c 0
 850 1241 833 1245 815 1245 c 0
 774 1245 729 1233 680 1208 c 0
 631 1183 583 1148 537 1101 c 0
 491 1054 449 1000 411 939 c 0
 373 878 342 809 319 732 c 0
 296 655 285 578 285 500 c 0
 285 445 297 393 322 342 c 0
 347 291 380 250 423 218 c 0
 466 186 511 170 557 170 c 0
 603 170 648 174 692 183 c 0
 736 192 775 203 810 217 c 0
 845 231 875 245 900 259 c 0
 925 273 948 288 967 303 c 0
 986 317 1003 327 1018 334 c 0
 1034 342 1052 346 1072 346 c 0
 1092 346 1110 340 1128 328 c 0
 1158 305 1174 277 1174 245 c 0
 1174 213 1156 177 1122 139 c 0
 1003 4 814 -63 553 -63 c 2
 532 -63 l 2
 468 -63 408 -54 352 -35 c 0
 296 -16 249 11 211 44 c 0
 173 77 140 116 113 158 c 0
 86 200 65 245 51 292 c 0
 37 339 31 386 31 434 c 0
 31 532 41 628 62 720 c 0
 83 812 112 895 147 969 c 0
 182 1043 224 1111 272 1174 c 0
 324 1237 379 1288 436 1329 c 0
 493 1370 553 1402 616 1425 c 0
 679 1448 740 1460 799 1460 c 0
 847 1460 891 1456 932 1448 c 1
 940 1463 951 1476 963 1487 c 0
 982 1503 1003 1513 1026 1516 c 0
 1036 1517 1041 1518 1042 1518 c 2
 1044 1518 l 2
 1066 1518 1089 1511 1112 1497 c 0
 1141 1478 1159 1451 1167 1417 c 0
EndSplineSet
Validated: 1
EndChar

StartChar: D
Encoding: 68 68 36
Width: 1214
GlyphClass: 2
Flags: HW
HStem: -63 225<339 799> 1421 41G<140 181>
VStem: 25 249<224 341 398 1260> 41 256<206 1064> 944 246<347 795>
LayerCount: 2
Fore
SplineSet
37 127 m 2xe8
 40 173 41 246 41 346 c 0xd8
 41 526 37 740 29 987 c 1
 28 1061 27 1110 26 1134 c 0
 26 1139 25 1143 25 1149 c 0
 25 1172 27 1203 29 1242 c 0
 32 1290 33 1320 33 1331 c 1
 34 1373 47 1405 70 1427 c 0
 93 1450 123 1462 158 1462 c 0
 204 1462 266 1456 342 1442 c 0
 390 1434 438 1422 488 1408 c 0
 538 1394 592 1374 650 1348 c 0
 708 1322 763 1291 815 1258 c 0
 867 1225 917 1182 965 1130 c 0
 1010 1079 1049 1025 1082 964 c 0
 1115 903 1142 832 1161 749 c 0
 1180 666 1190 577 1190 481 c 0
 1190 433 1183 385 1169 334 c 0
 1155 283 1135 234 1108 188 c 0
 1081 142 1049 100 1011 62 c 0
 973 24 926 -6 870 -29 c 0
 813 -52 752 -63 688 -63 c 2
 668 -63 l 2
 601 -63 533 -60 465 -54 c 0
 397 -48 342 -41 301 -33 c 0
 260 -25 227 -17 200 -10 c 0
 173 -3 157 0 152 0 c 0
 118 0 89 12 66 35 c 0
 47 54 37 78 37 107 c 0
 37 109 37 111 37 113 c 2
 37 127 l 2xe8
470 176 m 0
 532 166 604 162 686 162 c 0
 721 162 755 174 787 197 c 0
 819 220 846 250 869 288 c 0
 892 326 910 368 924 414 c 0
 938 460 944 505 944 549 c 0
 944 796 834 985 616 1116 c 0
 538 1162 425 1211 276 1260 c 1
 274 1198 274 1134 274 1069 c 0xe8
 274 961 277 850 281 737 c 0
 284 678 286 593 289 480 c 0
 292 367 294 281 297 221 c 1
 350 201 408 186 470 176 c 0
EndSplineSet
Validated: 1
EndChar

StartChar: E
Encoding: 69 69 37
Width: 1214
GlyphClass: 2
Flags: HW
HStem: -41 229<313 1018> -12 236<485 1136> 616 223<303 864> 653 217<469 1108> 1208 221<314 1140>
VStem: 51 254<195 616 840 1192>
LayerCount: 2
Fore
SplineSet
188 1442 m 2x8c
 222 1442 251 1431 274 1409 c 1
 391 1423 543 1430 727 1430 c 0
 775 1430 819 1428 860 1427 c 0
 945 1424 1011 1420 1059 1415 c 0
 1097 1411 1125 1400 1142 1383 c 0
 1159 1366 1168 1344 1169 1315 c 0
 1169 1300 1167 1286 1164 1273 c 0
 1161 1260 1156 1248 1149 1237 c 0
 1141 1223 1128 1213 1110 1206 c 0
 1098 1201 1085 1198 1071 1198 c 0
 1066 1198 1060 1199 1055 1200 c 0
 977 1206 894 1209 809 1209 c 0
 792 1209 775 1208 758 1208 c 2
 647 1208 l 2
 517 1205 405 1199 309 1188 c 1
 304 1069 301 953 301 840 c 1xac
 406 841 548 846 727 856 c 0
 903 866 1002 870 1024 870 c 0
 1064 870 1092 861 1109 842 c 0
 1126 823 1135 799 1135 770 c 0
 1135 737 1128 711 1114 692 c 0
 1095 667 1065 654 1024 653 c 0x1c
 999 653 894 648 707 637 c 0
 516 625 381 617 303 616 c 1
 304 582 305 549 305 517 c 2
 305 416 l 2
 306 325 309 260 313 225 c 0
 314 213 316 203 317 195 c 0
 344 191 385 188 439 188 c 0xac
 493 188 561 190 643 193 c 0
 834 200 955 208 1004 219 c 0
 1024 222 1043 223 1060 223 c 0
 1077 223 1092 220 1105 213 c 0
 1118 206 1129 199 1137 191 c 0
 1145 183 1151 175 1156 164 c 0
 1161 153 1164 143 1166 135 c 0
 1168 127 1169 119 1169 109 c 0
 1169 76 1159 48 1137 23 c 0
 1117 0 1088 -13 1051 -14 c 1
 1040 4 1029 4 1018 -12 c 1
 1012 -12 l 2x4c
 981 -12 921 -15 834 -20 c 0
 744 -25 652 -31 558 -35 c 0
 464 -39 394 -41 346 -41 c 0
 300 -41 261 -40 231 -37 c 0
 193 -34 156 -17 121 16 c 0
 86 49 64 88 59 133 c 0
 55 166 52 223 51 305 c 0
 51 380 52 455 53 531 c 0
 54 607 55 671 55 724 c 0
 55 777 54 850 51 944 c 0
 50 1023 49 1076 48 1103 c 0
 48 1108 48 1114 48 1120 c 0
 48 1145 49 1178 51 1217 c 0
 54 1266 55 1297 55 1309 c 2
 55 1311 l 2
 56 1353 69 1385 92 1408 c 0
 115 1431 145 1442 180 1442 c 2
 188 1442 l 2x8c
EndSplineSet
Validated: 1
EndChar

StartChar: F
Encoding: 70 70 38
Width: 1214
GlyphClass: 2
Flags: HW
HStem: -45 43G<179 196> 642 218<303 1033> 1223 223<317 1139> 1423 41G<190 208>
VStem: 51 249<81 292 341 636 852 1206> 59 262<-7 625>
LayerCount: 2
Fore
SplineSet
190 1464 m 0xd8
 225 1464 254 1453 276 1430 c 1
 435 1441 589 1446 740 1446 c 0
 757 1446 774 1446 791 1446 c 0
 900 1446 989 1443 1059 1438 c 0
 1097 1435 1125 1425 1142 1407 c 0
 1159 1389 1168 1366 1169 1337 c 2
 1169 1335 l 2
 1169 1304 1160 1276 1140 1253 c 0
 1120 1230 1091 1219 1051 1219 c 2
 1047 1219 l 2
 991 1222 932 1223 870 1223 c 0
 849 1223 828 1223 807 1223 c 0
 649 1223 482 1217 309 1206 c 1
 308 1186 306 1154 305 1112 c 0
 302 1052 301 994 301 940 c 0xe8
 301 922 301 904 301 887 c 2
 301 852 l 1
 357 857 417 860 483 860 c 0
 501 860 519 859 537 858 c 0
 635 857 724 853 803 848 c 0
 884 843 944 836 984 828 c 0
 1024 820 1052 810 1068 794 c 0
 1084 778 1093 756 1096 729 c 0
 1096 700 1089 675 1075 653 c 0
 1065 639 1052 630 1034 623 c 0
 1022 619 1008 616 993 616 c 2
 979 616 l 2
 937 623 876 630 795 635 c 0
 719 640 640 642 559 642 c 0
 549 642 538 642 528 642 c 0
 437 641 362 638 303 633 c 1
 310 456 317 269 322 72 c 0
 318 35 299 6 268 -14 c 0
 241 -33 211 -44 180 -45 c 0
 177 -45 175 -44 174 -43 c 0
 140 -43 111 -31 88 -8 c 0
 69 11 59 36 59 66 c 0
 59 68 59 70 59 72 c 2
 59 84 l 2xe4
 62 126 63 197 63 297 c 0
 63 485 59 695 51 924 c 0
 48 1013 47 1072 47 1103 c 0
 47 1134 48 1175 50 1226 c 0
 52 1277 54 1312 55 1331 c 0
 56 1373 69 1405 92 1427 c 0
 115 1450 145 1462 180 1462 c 0
 185 1463 189 1464 190 1464 c 0xd8
EndSplineSet
Validated: 1
EndChar

StartChar: G
Encoding: 71 71 39
Width: 1214
GlyphClass: 2
Flags: HW
LayerCount: 2
Fore
SplineSet
698 -33 m 0
 643 -53 590 -63 535 -63 c 0
 468 -63 405 -54 348 -35 c 0
 292 -16 246 11 208 44 c 0
 170 77 138 116 110 158 c 0
 82 200 61 245 47 292 c 0
 33 339 27 386 27 434 c 0
 27 534 37 631 58 725 c 0
 79 819 108 904 143 979 c 0
 178 1054 220 1124 268 1188 c 0
 320 1251 375 1304 433 1347 c 0
 491 1390 551 1423 612 1446 c 0
 675 1471 738 1483 799 1483 c 0
 860 1483 930 1469 1006 1442 c 0
 1080 1415 1128 1389 1151 1366 c 0
 1176 1341 1189 1312 1190 1278 c 0
 1190 1262 1187 1244 1180 1225 c 0
 1172 1200 1153 1182 1126 1171 c 0
 1112 1166 1099 1163 1085 1163 c 0
 1070 1163 1058 1165 1047 1169 c 0
 1036 1173 1015 1184 985 1202 c 0
 955 1220 924 1235 893 1248 c 0
 862 1261 834 1268 811 1268 c 0
 770 1268 725 1255 676 1230 c 0
 627 1205 580 1167 534 1119 c 0
 488 1071 446 1015 408 952 c 0
 370 889 338 818 315 739 c 0
 292 660 281 581 281 502 c 0
 281 447 292 394 317 343 c 0
 342 292 376 250 419 218 c 0
 462 186 507 170 555 170 c 0
 586 170 618 180 651 198 c 0
 684 216 714 240 743 270 c 0
 772 300 799 335 825 373 c 0
 865 432 897 492 920 553 c 1
 841 549 761 541 680 531 c 0
 599 521 543 509 512 494 c 0
 496 486 479 481 463 481 c 0
 447 481 430 486 414 496 c 0
 384 512 365 535 360 565 c 0
 359 572 358 579 358 586 c 0
 358 615 370 641 393 664 c 0
 409 680 432 695 461 707 c 0
 506 727 598 742 739 752 c 0
 840 759 925 762 993 762 c 2
 1061 762 l 2
 1101 759 1129 751 1147 737 c 0
 1170 719 1182 691 1182 653 c 0
 1182 612 1167 583 1137 565 c 0
 1137 561 1136 553 1133 541 c 0
 1132 534 1129 522 1128 506 c 0
 1121 447 1095 372 1047 281 c 0
 1024 239 995 197 961 156 c 0
 926 115 886 78 844 46 c 0
 802 14 753 -13 698 -33 c 0
EndSplineSet
Validated: 1
EndChar

StartChar: H
Encoding: 72 72 40
Width: 1214
GlyphClass: 2
Flags: HW
HStem: -45 43G<189 206 992 1010> 639 176<338 762> 1421 41G<195 236 999 1039>
VStem: 83 251<-6 379 387 639 815 1426> 870 262<-10 691> 891 254<67 698 862 1426>
LayerCount: 2
Fore
SplineSet
70 68 m 2xf4
 70 84 l 2
 73 121 74 212 74 358 c 0
 74 441 76 544 79 663 c 0
 82 782 84 854 84 878 c 2
 84 949 l 2
 84 973 84 1013 83 1069 c 0
 82 1125 82 1163 82 1181 c 0
 82 1199 82 1218 83 1237 c 0
 84 1256 84 1268 84 1272 c 0
 84 1276 84 1281 85 1288 c 0
 86 1295 86 1302 86 1308 c 2
 86 1324 l 1
 86 1331 l 2
 87 1373 100 1405 125 1427 c 0
 148 1450 178 1462 213 1462 c 2
 219 1462 l 2
 252 1462 280 1453 303 1434 c 0
 330 1412 345 1378 346 1333 c 0
 346 1318 344 1288 340 1243 c 0
 336 1198 334 1157 334 1121 c 0
 334 1085 335 1035 336 969 c 0
 337 903 338 852 338 815 c 1
 457 818 601 830 772 852 c 0
 823 859 861 863 887 866 c 0
 887 871 887 881 886 894 c 0
 885 907 885 937 884 985 c 0
 883 1033 883 1070 883 1097 c 0
 883 1124 884 1166 886 1223 c 0
 888 1280 890 1315 891 1327 c 0
 892 1371 905 1404 928 1427 c 0
 953 1450 982 1462 1016 1462 c 2
 1022 1462 l 2
 1056 1462 1085 1453 1108 1434 c 0
 1134 1412 1147 1379 1147 1337 c 0
 1147 1311 1146 1260 1145 1182 c 0
 1144 1086 1143 1001 1142 925 c 0
 1142 900 1141 876 1141 854 c 0
 1141 810 1142 774 1143 744 c 0
 1144 700 1145 659 1145 621 c 0xf4
 1145 546 1143 450 1139 333 c 0
 1135 216 1133 134 1133 88 c 2
 1133 72 l 2
 1129 35 1112 6 1083 -14 c 0
 1056 -33 1026 -44 993 -45 c 0
 990 -45 988 -44 987 -43 c 0
 953 -43 925 -31 903 -8 c 0
 881 12 870 40 870 74 c 2
 870 88 l 1xf8
 884 260 891 452 891 662 c 2
 891 698 l 1
 846 694 759 684 630 667 c 0
 501 650 402 640 332 639 c 1
 332 621 l 2
 328 553 326 473 326 383 c 0
 326 293 328 190 332 74 c 0
 328 36 310 6 279 -14 c 0
 252 -33 221 -44 190 -45 c 0
 187 -45 185 -44 184 -43 c 0
 150 -43 121 -31 98 -8 c 0
 79 11 70 37 70 68 c 2xf4
EndSplineSet
Validated: 1
EndChar

StartChar: I
Encoding: 73 73 41
Width: 1214
GlyphClass: 2
Flags: HW
HStem: -23 211<81 447 741 866 874 1051 1057 1143> -14 203<741 1051 1057 1143> 1229 225<96 475>
VStem: 463 279<190 395> 477 276<193 1225>
LayerCount: 2
Fore
SplineSet
360 -25 m 1x70
 270 -28 208 -29 174 -29 c 0
 133 -29 102 -20 80 -2 c 0
 57 16 45 39 45 68 c 2
 45 74 l 2
 45 101 55 125 75 145 c 0
 95 165 126 177 168 178 c 0
 223 181 321 183 463 186 c 1x70
 473 328 477 476 477 629 c 0
 477 710 476 791 473 874 c 0
 470 933 469 997 469 1065 c 2
 469 1108 l 2
 469 1122 470 1142 472 1170 c 0
 474 1198 475 1218 475 1229 c 1
 396 1230 337 1231 299 1231 c 0
 264 1231 227 1230 190 1229 c 2
 186 1229 l 2
 148 1229 118 1238 95 1257 c 0
 72 1276 60 1302 59 1335 c 2
 59 1339 l 2
 59 1368 70 1393 91 1415 c 0
 112 1437 144 1449 186 1450 c 0
 303 1453 416 1454 524 1454 c 0
 738 1454 914 1448 1051 1436 c 0
 1082 1433 1107 1424 1126 1409 c 0
 1152 1390 1166 1363 1167 1329 c 2
 1167 1327 l 2
 1167 1297 1159 1269 1141 1243 c 0
 1131 1228 1118 1216 1100 1208 c 0
 1089 1203 1077 1200 1063 1200 c 0
 1056 1200 1048 1201 1038 1204 c 0
 1000 1209 906 1217 756 1225 c 1
 756 1210 755 1183 752 1143 c 0
 751 1105 750 1075 750 1054 c 2
 750 991 l 2
 750 910 751 845 752 792 c 0
 753 739 754 686 754 631 c 0x68
 754 576 752 499 749 399 c 0
 746 299 742 230 741 190 c 1
 798 190 846 189 883 188 c 2
 1051 188 l 1xb0
 1051 199 1052 199 1053 188 c 1
 1053 199 1054 199 1055 188 c 1
 1055 199 1056 199 1057 188 c 1x70
 1057 199 1058 199 1059 188 c 1
 1099 188 1127 179 1144 161 c 0
 1161 143 1170 119 1171 92 c 2
 1171 90 l 2
 1171 76 1170 63 1167 51 c 0
 1164 39 1160 26 1153 14 c 0
 1143 -1 1130 -11 1112 -16 c 0
 1101 -20 1091 -23 1081 -23 c 2
 1055 -23 l 2xb0
 1018 -18 956 -14 870 -14 c 0
 780 -14 699 -15 627 -16 c 1
 590 -10 553 -8 516 -8 c 0
 360 -25 l 1x70
EndSplineSet
Validated: 1
EndChar

StartChar: J
Encoding: 74 74 42
Width: 1214
GlyphClass: 2
Flags: HW
HStem: -72 258<391 601> 1229 225<105 602 850 1071>
VStem: 40 234<309 526> 602 248<872 1221> 608 258<213 1219>
LayerCount: 2
Fore
SplineSet
860 444 m 0xe8
 837 206 789 54 715 -14 c 0
 675 -52 628 -72 573 -72 c 0
 518 -72 466 -63 415 -45 c 0
 364 -27 320 -4 283 23 c 0
 248 52 214 83 185 116 c 0
 156 149 132 182 112 215 c 0
 92 248 77 278 65 305 c 0
 53 332 46 355 43 371 c 0
 39 386 38 403 40 421 c 0
 42 439 45 457 49 473 c 0
 54 492 66 509 82 524 c 0
 98 539 119 549 145 553 c 0
 153 554 162 555 170 555 c 0
 197 555 221 546 240 530 c 0
 263 508 274 480 274 446 c 0
 274 413 285 375 307 330 c 0
 321 304 337 280 356 260 c 0
 375 240 401 222 434 208 c 0
 467 194 504 186 545 186 c 0
 546 186 548 187 549 188 c 0
 559 195 567 211 575 236 c 0
 594 295 605 383 608 502 c 2
 608 506 l 1
 608 548 l 2xe8
 608 573 607 641 606 752 c 0
 603 875 602 994 602 1112 c 0
 602 1151 602 1190 602 1229 c 1
 525 1231 453 1232 386 1232 c 0
 319 1232 256 1231 199 1229 c 2
 195 1229 l 2
 157 1229 126 1238 104 1257 c 0
 82 1276 71 1302 70 1335 c 0
 70 1336 69 1338 68 1339 c 0
 68 1368 78 1393 100 1415 c 0
 122 1437 155 1449 197 1450 c 0
 316 1453 429 1454 535 1454 c 0
 748 1454 922 1448 1059 1436 c 0
 1090 1433 1116 1424 1135 1409 c 0
 1161 1390 1175 1362 1178 1327 c 0
 1178 1297 1169 1269 1151 1243 c 0
 1141 1228 1127 1216 1108 1208 c 0
 1097 1203 1085 1200 1071 1200 c 0
 1064 1200 1057 1201 1049 1204 c 0
 1007 1211 940 1217 850 1221 c 1xf0
 850 1187 854 1067 864 862 c 0
 866 817 868 778 868 745 c 0
 868 737 867 729 867 721 c 0
 866 683 866 659 866 649 c 0
 866 563 864 495 860 444 c 0xe8
EndSplineSet
Validated: 1
EndChar

StartChar: K
Encoding: 75 75 43
Width: 1214
GlyphClass: 2
Flags: HW
HStem: -45 43G<183 201 1051 1057> 1421 41G<161 178 978 988>
VStem: 68 240<219 555 928 1106 1109 1435>
LayerCount: 2
Fore
SplineSet
184 -45 m 0
 181 -45 179 -44 176 -43 c 0
 142 -43 114 -34 92 -16 c 0
 72 0 61 22 61 49 c 0
 61 54 62 61 63 66 c 0
 66 110 68 182 68 283 c 0
 68 478 63 694 55 930 c 0
 52 1017 51 1077 51 1108 c 0
 51 1139 52 1184 55 1241 c 0
 58 1300 59 1337 59 1352 c 1
 60 1387 73 1416 96 1436 c 0
 118 1454 145 1462 177 1462 c 0
 179 1462 182 1462 184 1462 c 2
 190 1462 l 2
 223 1462 251 1455 276 1440 c 0
 302 1423 315 1397 315 1363 c 0
 315 1334 314 1266 311 1163 c 0
 308 1067 306 989 305 928 c 1
 356 969 428 1028 522 1104 c 0
 724 1286 844 1391 881 1421 c 0
 904 1439 926 1451 948 1458 c 0
 962 1462 973 1464 983 1464 c 0
 993 1464 1002 1463 1010 1462 c 0
 1028 1458 1043 1450 1057 1438 c 0
 1076 1422 1085 1403 1085 1384 c 0
 1085 1347 1070 1308 1040 1266 c 0
 1020 1240 946 1165 819 1042 c 1
 688 927 573 828 473 743 c 1
 525 694 608 621 721 524 c 0
 834 433 933 350 1016 276 c 0
 1062 231 1096 196 1118 170 c 0
 1141 139 1155 116 1159 104 c 0
 1164 86 1166 69 1165 53 c 0
 1165 42 1163 31 1159 20 c 0
 1149 1 1134 -14 1112 -25 c 0
 1082 -37 1062 -43 1051 -43 c 0
 1050 -43 1050 -43 1049 -43 c 2
 1047 -43 l 2
 1010 -43 975 -26 942 8 c 0
 928 24 876 72 786 150 c 0
 696 226 598 310 492 403 c 0
 416 463 353 514 307 555 c 1
 326 51 l 2
 322 21 303 -2 272 -20 c 0
 246 -36 217 -45 184 -45 c 0
EndSplineSet
Validated: 1
EndChar

StartChar: L
Encoding: 76 76 44
Width: 1214
GlyphClass: 2
Flags: HW
HStem: -31 240<313 315 317 896>
VStem: 51 262<197 545> 106 260<354 1411>
LayerCount: 2
Fore
SplineSet
328 428 m 0xa0
 320 330 314 253 313 197 c 1
 314 205 314 209 315 209 c 0
 317 197 l 1
 434 197 572 203 729 217 c 0
 883 231 985 244 1034 258 c 0
 1042 260 1049 261 1057 261 c 0
 1063 261 l 0
 1073 260 1082 258 1092 254 c 0
 1110 247 1125 236 1137 221 c 0
 1147 207 1153 193 1157 178 c 0
 1162 162 1165 147 1165 135 c 0
 1165 104 1157 78 1141 59 c 0
 1125 40 1097 27 1057 20 c 0
 963 2 812 -10 607 -18 c 0
 402 -26 255 -31 166 -31 c 0
 132 -31 103 -19 80 4 c 0
 61 23 51 48 51 78 c 0
 51 80 51 82 51 84 c 2
 51 102 l 2xc0
 51 110 59 185 75 326 c 0
 91 467 102 601 109 731 c 0
 111 757 111 788 111 822 c 0
 111 839 111 858 111 877 c 0
 111 928 109 1073 106 1313 c 2
 106 1315 l 2
 107 1357 120 1389 144 1412 c 0
 168 1435 197 1446 231 1446 c 2
 238 1446 l 2
 271 1446 300 1436 326 1417 c 0
 353 1396 367 1367 367 1327 c 0
 367 1325 367 1267 365 1165 c 0
 362 1076 358 993 354 915 c 0
 350 829 347 743 344 657 c 0
 341 602 336 526 328 428 c 0xa0
EndSplineSet
Validated: 1
EndChar

StartChar: M
Encoding: 77 77 45
Width: 1214
GlyphClass: 2
Flags: HW
HStem: -20 43G<105 132 573 637>
VStem: 14 221<34 646>
LayerCount: 2
Fore
SplineSet
236 131 m 2
 236 109 l 2
 236 72 225 41 203 16 c 0
 178 -9 149 -20 115 -20 c 2
 113 -20 l 2
 98 -20 84 -17 72 -12 c 0
 54 -4 40 11 29 33 c 0
 19 58 14 90 14 131 c 0
 14 149 16 178 20 219 c 0
 24 259 30 311 35 377 c 0
 42 447 49 529 57 625 c 0
 65 722 72 798 76 854 c 0
 94 1051 109 1187 123 1262 c 0
 133 1310 143 1343 154 1362 c 0
 170 1391 195 1411 229 1425 c 0
 258 1436 286 1442 315 1442 c 2
 328 1442 l 2
 362 1442 390 1437 412 1427 c 0
 442 1415 462 1395 473 1366 c 0
 491 1306 510 1207 530 1069 c 0
 550 931 573 773 596 596 c 0
 601 556 605 520 608 489 c 1
 618 587 627 679 637 764 c 0
 651 877 669 991 692 1104 c 0
 715 1217 736 1305 752 1366 c 0
 759 1386 774 1403 799 1417 c 0
 821 1429 843 1437 868 1440 c 0
 883 1443 896 1444 906 1443 c 0
 916 1442 925 1442 932 1442 c 2
 938 1442 l 1
 970 1442 l 2
 979 1442 991 1440 1006 1436 c 0
 1021 1433 1033 1428 1043 1423 c 0
 1053 1418 1063 1410 1073 1399 c 0
 1083 1387 1089 1372 1092 1356 c 0
 1097 1315 1113 1116 1139 760 c 0
 1165 405 1183 204 1194 158 c 0
 1199 131 1202 105 1202 82 c 0
 1202 63 1198 47 1190 33 c 0
 1179 14 1161 0 1135 -8 c 0
 1120 -12 1103 -14 1087 -15 c 0
 1071 -16 1054 -12 1036 -4 c 0
 1005 10 982 38 967 80 c 0
 940 162 915 479 893 1032 c 1
 875 927 863 827 856 733 c 0
 842 577 824 430 801 291 c 0
 778 152 759 66 745 35 c 0
 725 2 676 -14 598 -14 c 2
 588 -14 l 2
 559 -14 534 -10 512 -2 c 0
 486 8 470 21 463 39 c 0
 445 105 416 254 375 487 c 0
 348 647 322 802 297 952 c 1
 294 925 291 876 287 805 c 2
 279 696 l 1
 266 518 l 2
 262 462 257 403 252 342 c 0
 248 296 243 248 238 197 c 0
 237 168 236 146 236 131 c 2
EndSplineSet
Validated: 1
EndChar

StartChar: N
Encoding: 78 78 46
Width: 1214
GlyphClass: 2
Flags: HW
HStem: -25 43G<137 174 964 1021>
VStem: 53 221<13 370> 70 219<163 995> 943 218<384 1345>
LayerCount: 2
Fore
SplineSet
285 995 m 1xb0
 288 934 289 883 289 842 c 0xb0
 289 798 288 736 287 657 c 0
 286 581 284 487 281 375 c 0
 277 263 274 192 274 162 c 2
 274 106 l 1
 274 90 l 2
 274 53 264 24 242 4 c 0
 219 -15 191 -25 158 -25 c 0
 116 -25 87 -13 72 12 c 0
 60 35 53 69 53 113 c 0xd0
 53 140 55 246 59 430 c 0
 66 714 70 910 70 1016 c 0
 70 1121 69 1218 66 1307 c 2
 66 1325 l 2
 66 1345 69 1364 76 1380 c 0
 87 1399 102 1413 121 1421 c 0
 148 1436 179 1444 213 1444 c 0
 220 1444 228 1443 236 1442 c 0
 266 1442 291 1437 313 1427 c 0
 343 1415 365 1395 377 1366 c 0
 408 1279 494 1117 633 881 c 0
 752 682 854 515 940 381 c 1
 942 459 943 554 943 664 c 0
 943 719 942 779 942 842 c 0
 939 1084 934 1243 924 1321 c 0
 923 1329 922 1338 922 1346 c 0
 922 1371 930 1392 948 1411 c 0
 970 1433 999 1444 1034 1444 c 0
 1067 1444 1094 1438 1114 1427 c 0
 1125 1422 1133 1414 1137 1403 c 0
 1141 1392 1144 1382 1147 1374 c 0
 1150 1364 1152 1350 1155 1331 c 0
 1159 1308 1161 1199 1161 1004 c 2
 1161 918 l 2
 1161 747 1159 571 1155 389 c 0
 1152 272 1148 184 1141 127 c 0
 1136 72 1129 38 1122 23 c 0
 1103 -10 1057 -28 985 -29 c 2
 977 -29 l 2
 951 -29 927 -24 907 -14 c 0
 882 -3 866 11 858 27 c 0
 844 54 809 114 752 207 c 0
 692 304 632 396 573 485 c 0
 512 586 447 699 379 823 c 0
 342 884 311 942 285 995 c 1xb0
EndSplineSet
Validated: 1
EndChar

StartChar: O
Encoding: 79 79 47
Width: 1214
GlyphClass: 2
Flags: HW
HStem: -49 221<415 727> 1253 217<486 778>
VStem: 57 248<316 996> 914 245<367 1099>
LayerCount: 2
Fore
SplineSet
449 193 m 0
 474 179 501 172 532 172 c 0
 610 172 679 189 739 223 c 0
 770 239 798 263 823 292 c 0
 848 321 867 355 881 393 c 0
 886 408 892 446 898 507 c 0
 904 568 909 640 913 725 c 0
 914 737 914 750 914 762 c 0
 914 774 914 787 913 799 c 0
 913 858 910 916 905 975 c 0
 897 1056 868 1123 817 1176 c 0
 768 1228 708 1253 636 1253 c 0
 564 1253 504 1230 455 1184 c 0
 404 1135 367 1066 344 979 c 0
 318 881 305 768 305 641 c 0
 305 562 309 492 317 432 c 0
 322 398 332 364 344 331 c 0
 356 298 371 270 387 247 c 0
 403 224 424 207 449 193 c 0
1149 983 m 0
 1156 898 1159 814 1159 730 c 0
 1159 665 1157 601 1153 537 c 0
 1148 456 1138 394 1124 350 c 0
 1106 286 1084 230 1057 184 c 0
 1030 138 999 100 966 70 c 0
 933 40 892 16 844 -2 c 0
 796 -20 747 -32 699 -39 c 0
 651 -46 595 -49 532 -49 c 0
 435 -48 348 -22 272 29 c 0
 201 81 148 148 111 233 c 0
 76 315 57 404 57 500 c 2
 57 510 l 1
 57 545 l 2
 57 605 57 653 58 688 c 0
 59 723 62 771 66 831 c 0
 74 948 97 1058 137 1159 c 1
 137 1161 l 1
 174 1252 239 1327 330 1384 c 0
 428 1441 540 1470 664 1470 c 0
 727 1470 787 1459 844 1436 c 0
 901 1414 951 1382 993 1342 c 0
 1035 1302 1071 1251 1098 1190 c 0
 1125 1129 1142 1059 1149 983 c 0
EndSplineSet
Validated: 1
EndChar

StartChar: P
Encoding: 80 80 48
Width: 1214
GlyphClass: 2
Flags: HW
HStem: -39 43G<214 249> 446 217<343 758> 1239 217<350 794>
VStem: 107 266<-5 459> 107 233<66 192 198 463 673 1227> 903 238<802 1143>
LayerCount: 2
Fore
SplineSet
358 223 m 0xec
 368 125 373 73 373 66 c 0
 373 32 356 6 322 -12 c 0
 295 -30 264 -39 233 -39 c 0
 195 -39 164 -28 139 -6 c 0
 117 13 107 39 107 70 c 0xf4
 107 75 108 84 109 96 c 0
 110 115 111 149 111 195 c 0
 111 271 110 376 107 510 c 0
 102 737 97 871 96 913 c 0
 96 949 96 986 96 1024 c 0
 96 1099 96 1178 98 1260 c 1
 97 1249 95 1250 94 1264 c 1
 94 1253 93 1253 92 1264 c 0
 80 1282 75 1299 76 1317 c 2
 76 1333 l 2
 80 1353 89 1373 104 1389 c 0
 119 1405 137 1415 156 1419 c 0
 207 1430 281 1439 381 1446 c 0
 486 1453 560 1456 602 1456 c 0
 708 1456 804 1440 887 1407 c 0
 963 1373 1024 1321 1070 1252 c 0
 1116 1183 1140 1102 1141 1008 c 1
 1141 932 1128 859 1102 790 c 0
 1076 721 1040 661 995 610 c 0
 950 559 892 519 821 489 c 0
 752 460 678 446 599 446 c 0
 595 446 592 446 588 446 c 0
 488 446 406 452 340 463 c 1
 344 385 350 305 358 223 c 0xec
334 684 m 1
 383 670 439 663 503 663 c 0
 509 663 514 664 520 664 c 0
 561 664 599 667 633 672 c 0
 667 677 696 684 721 692 c 0
 746 700 767 711 785 725 c 0
 803 739 820 752 833 766 c 0
 846 780 856 796 865 814 c 0
 874 832 881 849 886 864 c 0
 891 879 894 898 897 919 c 0
 900 940 901 957 902 971 c 0
 903 985 903 1000 903 1018 c 0
 903 1052 897 1082 883 1108 c 0
 869 1134 851 1154 831 1170 c 0
 811 1186 787 1199 759 1210 c 0
 731 1221 704 1229 678 1233 c 0
 652 1237 627 1239 602 1239 c 0
 554 1239 469 1235 346 1225 c 1
 341 1061 337 951 336 895 c 0
 335 820 334 750 334 684 c 1
EndSplineSet
Validated: 1
EndChar

StartChar: Q
Encoding: 81 81 49
Width: 1214
GlyphClass: 2
Flags: HW
HStem: -49 43G<547 602> 1253 217<478 771>
VStem: 47 248<330 989> 481 217<284 425> 911 242<281 1078>
LayerCount: 2
Fore
SplineSet
1108 -418 m 0
 1090 -429 1071 -434 1051 -434 c 0
 1041 -434 1030 -433 1018 -430 c 0
 987 -422 961 -405 942 -379 c 0
 920 -353 885 -308 837 -242 c 0
 789 -176 741 -110 696 -43 c 1
 661 -47 623 -49 582 -49 c 0
 512 -49 448 -38 389 -18 c 0
 330 1 282 28 242 63 c 0
 202 98 168 140 139 186 c 0
 84 276 54 384 49 510 c 0
 48 545 47 579 47 612 c 0
 47 826 75 1006 131 1151 c 1
 168 1242 233 1319 326 1380 c 0
 424 1440 533 1470 655 1470 c 0
 785 1470 894 1432 981 1354 c 0
 1023 1316 1058 1264 1086 1201 c 0
 1114 1138 1133 1065 1143 983 c 0
 1150 920 1153 847 1153 766 c 0
 1153 752 1153 739 1153 725 c 0
 1153 552 1144 423 1126 338 c 0
 1097 199 1034 97 936 31 c 1
 980 -29 1033 -98 1096 -176 c 0
 1134 -224 1153 -249 1153 -250 c 0
 1164 -266 1169 -283 1169 -301 c 0
 1169 -306 1168 -311 1167 -315 c 0
 1164 -335 1158 -356 1147 -375 c 0
 1135 -394 1122 -408 1108 -418 c 0
504 233 m 0
 489 268 481 301 481 330 c 0
 481 374 500 407 535 432 c 0
 555 447 577 456 600 457 c 0
 619 457 637 450 655 438 c 0
 673 426 687 407 698 381 c 0
 721 321 755 256 797 186 c 1
 842 221 873 274 889 344 c 0
 893 363 897 404 902 465 c 0
 907 526 910 603 911 696 c 2
 911 729 l 2
 911 810 907 887 897 961 c 0
 885 1052 855 1125 807 1178 c 0
 761 1229 701 1253 628 1253 c 0
 555 1253 493 1230 444 1182 c 0
 393 1133 357 1062 334 971 c 0
 308 871 295 766 295 657 c 0
 295 652 295 646 295 641 c 0
 295 600 296 558 299 514 c 1
 304 439 320 371 346 312 c 0
 372 253 405 206 446 172 c 0
 480 145 518 129 559 125 c 1
 534 169 516 204 504 233 c 0
EndSplineSet
Validated: 1
EndChar

StartChar: R
Encoding: 82 82 50
Width: 1214
GlyphClass: 2
Flags: HW
HStem: -39 43G<169 211 1020 1052> 1421 41G<165 199>
VStem: 68 244<264 1247> 68 221<71 514 756 1019> 77 253<-5 511> 81 232<761 1243> 897 240<837 1011>
LayerCount: 2
Fore
SplineSet
307 920 m 0xc6
 304 885 300 830 293 758 c 1
 304 757 318 756 336 756 c 0
 354 756 375 757 401 760 c 0
 461 763 512 765 553 768 c 0
 657 776 732 787 778 801 c 0
 803 809 825 818 844 829 c 0
 863 840 877 852 885 865 c 0
 893 878 897 893 897 911 c 0
 897 944 883 977 855 1009 c 0
 827 1041 790 1070 745 1096 c 0
 700 1122 649 1145 591 1167 c 0
 533 1189 480 1207 432 1219 c 0
 384 1231 342 1240 305 1247 c 1
 308 1160 310 1084 313 1020 c 0
 313 993 311 960 307 920 c 0xc6
311 264 m 0xe2
 323 152 330 88 330 70 c 0xca
 330 35 314 7 283 -12 c 0
 257 -30 228 -39 195 -39 c 2
 186 -39 l 2
 152 -38 123 -26 100 -6 c 0
 78 13 68 39 68 70 c 2
 68 86 l 2xd2
 73 154 76 212 76 258 c 0
 76 270 76 297 77 339 c 0
 77 353 77 369 77 386 c 0xca
 77 421 77 462 76 511 c 0
 75 584 74 630 74 648 c 0
 74 666 75 703 78 758 c 0
 80 805 81 849 81 891 c 0xc6
 81 933 80 973 78 1010 c 0
 77 1055 73 1116 68 1192 c 0xe2
 63 1268 59 1315 59 1331 c 2
 59 1341 l 2
 59 1344 58 1347 57 1350 c 0
 57 1375 68 1399 91 1424 c 0
 114 1449 144 1462 184 1462 c 0
 213 1462 237 1457 256 1446 c 1
 375 1441 486 1426 588 1402 c 0
 690 1378 776 1348 846 1313 c 0
 913 1278 968 1237 1012 1192 c 0
 1056 1147 1087 1101 1107 1055 c 0
 1127 1009 1137 961 1137 913 c 0
 1137 807 1095 727 1010 674 c 0
 983 658 953 643 922 631 c 0
 889 620 850 610 806 601 c 0
 762 592 723 586 692 583 c 0
 661 580 634 576 614 575 c 1
 734 514 842 445 936 369 c 0
 1044 276 1115 195 1149 125 c 0
 1154 110 1157 96 1157 82 c 0
 1157 68 1155 55 1151 43 c 0
 1141 18 1126 -1 1104 -16 c 0
 1085 -30 1063 -37 1040 -37 c 0
 999 -37 964 -16 934 25 c 0
 912 52 880 86 837 128 c 0
 794 170 741 215 680 266 c 0
 619 317 549 367 471 416 c 0
 408 456 348 488 289 514 c 1xd2
 293 446 300 362 311 264 c 0xe2
EndSplineSet
Validated: 1
EndChar

StartChar: S
Encoding: 83 83 51
Width: 1214
GlyphClass: 2
Flags: HW
HStem: -59 223<351 722> 1272 211<508 1050>
VStem: 45 21<164 166> 107 262<974 1166> 918 254<319 574>
LayerCount: 2
Fore
SplineSet
66 150 m 1
 52 179 45 204 45 227 c 0
 45 237 45 248 47 256 c 0
 55 287 74 311 104 326 c 0
 122 334 135 339 145 341 c 0
 155 343 163 344 171 344 c 2
 188 344 l 2
 204 343 221 336 235 324 c 0
 249 312 262 295 276 276 c 0
 299 242 333 215 376 195 c 0
 419 175 467 164 522 164 c 0
 555 164 590 168 627 176 c 0
 664 184 699 197 734 214 c 0
 769 231 800 250 827 272 c 0
 854 294 877 319 893 348 c 0
 909 377 918 407 918 440 c 0
 918 458 916 474 913 488 c 0
 910 502 906 519 898 535 c 0
 890 551 880 566 868 580 c 0
 856 594 838 608 815 622 c 0
 792 636 764 648 732 659 c 0
 700 670 659 680 611 690 c 0
 563 700 510 708 452 713 c 0
 394 718 341 732 295 752 c 0
 251 772 216 797 189 828 c 0
 162 859 142 892 128 926 c 0
 114 960 107 994 107 1028 c 0
 107 1076 115 1121 132 1165 c 0
 149 1209 175 1250 210 1289 c 0
 245 1328 287 1362 338 1391 c 0
 390 1420 452 1442 524 1458 c 0
 596 1474 675 1483 758 1483 c 0
 799 1483 855 1480 926 1473 c 0
 992 1466 1037 1458 1063 1448 c 0
 1094 1437 1118 1419 1133 1393 c 0
 1144 1374 1149 1352 1149 1329 c 0
 1149 1299 1140 1276 1124 1260 c 0
 1110 1246 1094 1238 1075 1235 c 0
 1065 1234 1058 1233 1051 1233 c 0
 1044 1233 1036 1234 1028 1235 c 0
 1013 1236 997 1240 981 1245 c 0
 958 1250 940 1254 926 1257 c 0
 911 1260 887 1264 854 1267 c 0
 821 1270 783 1272 739 1272 c 0
 673 1272 613 1263 557 1246 c 0
 501 1229 456 1205 421 1174 c 0
 386 1143 369 1107 369 1069 c 0
 369 1025 390 988 432 958 c 0
 478 927 545 909 631 905 c 0
 716 901 791 889 858 870 c 0
 924 851 975 828 1013 799 c 0
 1051 770 1082 736 1107 697 c 0
 1132 658 1149 621 1158 584 c 0
 1167 547 1171 507 1171 465 c 0
 1171 402 1161 343 1138 287 c 0
 1115 231 1084 182 1044 140 c 0
 1004 98 958 63 905 33 c 0
 848 3 787 -20 721 -35 c 0
 654 -50 585 -58 514 -59 c 0
 405 -59 310 -39 229 2 c 0
 151 42 98 91 68 150 c 0
 67 166 66 166 66 150 c 1
EndSplineSet
Validated: 1
EndChar

StartChar: T
Encoding: 84 84 52
Width: 1214
GlyphClass: 2
Flags: HW
LayerCount: 2
Fore
SplineSet
723 2 m 0
 694 -17 662 -27 627 -27 c 2
 618 -27 l 2
 581 -27 551 -15 526 8 c 0
 504 27 494 53 494 86 c 0
 494 91 495 100 496 112 c 0
 497 124 498 151 498 193 c 0
 498 287 493 455 484 698 c 0
 475 941 471 1115 471 1217 c 2
 471 1229 l 1
 296 1237 196 1243 170 1247 c 0
 136 1252 108 1262 86 1274 c 0
 57 1292 43 1317 43 1348 c 2
 43 1354 l 2
 43 1383 54 1409 74 1432 c 0
 93 1452 119 1462 150 1462 c 0
 158 1462 166 1461 176 1460 c 0
 250 1448 542 1440 1053 1436 c 0
 1093 1436 1123 1425 1143 1405 c 0
 1163 1385 1174 1360 1174 1331 c 0
 1174 1300 1163 1272 1143 1247 c 0
 1123 1222 1094 1210 1057 1210 c 0
 1056 1210 953 1214 750 1221 c 1
 753 953 762 576 778 90 c 0
 774 52 756 22 723 2 c 0
EndSplineSet
Validated: 1
EndChar

StartChar: U
Encoding: 85 85 53
Width: 1214
GlyphClass: 2
Flags: HW
HStem: -59 236<427 770> 1411 41G<149 186 1049 1074>
VStem: 34 243<362 1410> 941 241<369 1416>
LayerCount: 2
Fore
SplineSet
915 35 m 0
 878 15 840 -3 799 -18 c 0
 759 -33 721 -44 683 -50 c 0
 645 -56 606 -59 564 -59 c 0
 522 -59 478 -54 432 -42 c 0
 386 -30 339 -11 291 16 c 0
 246 43 205 78 170 120 c 0
 135 162 105 215 82 280 c 0
 59 345 46 417 43 498 c 0
 37 723 34 895 34 1016 c 0
 34 1028 34 1040 34 1051 c 0
 35 1173 36 1261 39 1317 c 0
 40 1359 53 1392 78 1416 c 0
 103 1440 132 1452 166 1452 c 0
 207 1452 237 1438 256 1411 c 0
 270 1391 276 1362 276 1327 c 0
 276 882 280 613 287 522 c 0
 290 484 294 450 302 420 c 0
 310 390 321 359 336 328 c 0
 351 297 369 270 391 249 c 0
 413 228 441 211 474 197 c 0
 507 183 546 176 588 176 c 0
 686 176 765 205 826 263 c 0
 887 320 922 409 930 532 c 0
 934 588 937 652 940 723 c 0
 941 771 941 815 941 855 c 0
 941 895 941 932 940 965 c 0
 939 1103 938 1182 938 1203 c 2
 938 1298 l 2
 938 1329 941 1356 946 1379 c 0
 951 1402 961 1419 975 1430 c 0
 989 1441 1002 1447 1014 1450 c 0
 1026 1453 1041 1454 1057 1454 c 0
 1091 1454 1119 1442 1140 1417 c 0
 1161 1392 1173 1361 1174 1321 c 0
 1179 1217 1182 1100 1182 970 c 0
 1182 840 1179 695 1174 537 c 0
 1171 476 1162 418 1148 364 c 0
 1134 310 1116 263 1093 223 c 0
 1070 183 1044 148 1014 115 c 0
 984 82 950 55 915 35 c 0
EndSplineSet
Validated: 1
EndChar

StartChar: V
Encoding: 86 86 54
Width: 1214
GlyphClass: 2
Flags: HW
LayerCount: 2
Fore
SplineSet
621 -25 m 2
 604 -25 l 2
 571 -25 543 -20 520 -10 c 0
 489 2 467 22 453 51 c 0
 392 196 307 420 199 723 c 0
 95 1029 37 1215 23 1282 c 0
 18 1309 13 1335 12 1358 c 0
 12 1376 17 1392 27 1407 c 0
 38 1425 55 1438 80 1448 c 0
 95 1453 111 1456 127 1456 c 0
 143 1456 160 1453 178 1446 c 0
 209 1432 233 1404 248 1360 c 0
 256 1330 325 1124 455 743 c 0
 515 570 561 438 594 348 c 1
 647 493 717 688 803 932 c 2
 954 1360 l 2
 970 1402 995 1430 1028 1444 c 0
 1046 1451 1063 1454 1080 1455 c 0
 1097 1456 1113 1453 1128 1448 c 0
 1147 1441 1164 1431 1178 1417 c 0
 1190 1402 1198 1384 1202 1364 c 2
 1202 1352 l 2
 1202 1327 1197 1301 1186 1272 c 0
 1156 1202 1086 1011 975 700 c 0
 858 385 783 170 750 55 c 0
 742 32 729 14 711 0 c 0
 688 -16 658 -25 621 -25 c 2
EndSplineSet
Validated: 1
EndChar

StartChar: W
Encoding: 87 87 55
Width: 1214
GlyphClass: 2
Flags: HW
HStem: -23 43G<868 913> 1419 43G<124 152 592 630 646 662 1074 1091>
VStem: 16 229<821 1421> 979 219<756 1424>
LayerCount: 2
Fore
SplineSet
979 1294 m 0
 979 1306 978 1319 977 1333 c 0
 977 1371 988 1402 1010 1425 c 0
 1032 1448 1058 1460 1090 1460 c 0
 1092 1460 1094 1460 1096 1460 c 0
 1164 1460 1198 1412 1198 1316 c 0
 1198 1232 1191 1120 1178 985 c 0
 1162 802 1153 707 1153 700 c 0
 1148 641 1139 556 1128 444 c 0
 1116 331 1105 243 1094 180 c 0
 1083 120 1072 79 1061 57 c 0
 1045 28 1018 8 983 -6 c 0
 954 -17 926 -23 899 -23 c 2
 885 -23 l 2
 852 -23 824 -18 801 -8 c 0
 771 4 750 24 739 53 c 0
 702 183 673 356 653 573 c 2
 618 940 l 1
 603 799 587 656 569 510 c 0
 540 275 516 123 496 53 c 0
 489 33 472 16 446 4 c 0
 423 -8 400 -16 377 -20 c 0
 362 -23 349 -25 338 -24 c 0
 327 -23 318 -23 313 -23 c 2
 305 -23 l 2
 293 -23 282 -21 274 -20 c 0
 266 -20 254 -19 238 -16 c 0
 223 -13 210 -9 199 -4 c 0
 188 1 178 11 170 23 c 0
 160 35 155 50 152 66 c 1
 151 76 143 120 129 199 c 0
 115 277 105 348 100 414 c 0
 84 570 56 861 18 1290 c 0
 17 1302 16 1315 16 1327 c 0
 16 1391 41 1434 92 1456 c 0
 104 1460 117 1462 131 1462 c 2
 143 1462 l 2
 159 1461 175 1457 190 1450 c 0
 208 1445 221 1435 231 1421 c 0
 241 1405 246 1387 246 1368 c 2
 246 1352 l 2
 246 1261 269 975 315 494 c 0
 318 461 323 420 330 369 c 1
 333 389 337 425 344 477 c 0
 364 634 378 736 383 782 c 0
 434 1152 469 1361 489 1407 c 0
 509 1440 555 1456 628 1456 c 0
 631 1456 634 1456 637 1456 c 0
 641 1456 644 1457 647 1458 c 0
 677 1458 703 1454 723 1444 c 0
 749 1434 765 1421 772 1403 c 0
 779 1378 787 1337 797 1280 c 0
 813 1175 830 1056 846 924 c 0
 862 790 875 696 883 641 c 0
 891 577 901 505 915 426 c 1
 933 588 950 783 965 1010 c 0
 975 1147 979 1241 979 1294 c 0
EndSplineSet
Validated: 1
EndChar

StartChar: X
Encoding: 88 88 56
Width: 1214
GlyphClass: 2
Flags: HW
HStem: -49 43G<138 157 1067 1079> 1411 41G<1047 1073>
LayerCount: 2
Fore
SplineSet
188 -43 m 0
 174 -47 163 -49 152 -49 c 0
 125 -49 99 -39 74 -20 c 0
 48 -1 34 22 33 49 c 0
 33 82 43 118 63 156 c 0
 74 174 129 258 229 410 c 0
 334 556 411 664 457 735 c 1
 98 1239 l 2
 73 1283 61 1323 61 1358 c 0
 61 1383 75 1403 102 1419 c 0
 118 1430 138 1439 158 1444 c 0
 166 1445 174 1446 182 1446 c 0
 197 1446 213 1443 231 1438 c 0
 257 1430 282 1414 305 1391 c 0
 351 1338 460 1185 631 932 c 1
 791 1187 892 1343 936 1399 c 0
 954 1419 974 1434 997 1444 c 0
 1015 1451 1032 1453 1047 1452 c 2
 1063 1452 l 2
 1083 1449 1101 1444 1116 1434 c 0
 1145 1417 1159 1395 1159 1368 c 0
 1159 1345 1157 1310 1137 1270 c 0
 1127 1254 1075 1170 981 1018 c 1
 881 873 813 772 776 715 c 1
 814 662 878 567 967 432 c 0
 1048 295 1104 206 1135 164 c 0
 1154 135 1167 110 1174 90 c 0
 1181 68 1183 50 1182 35 c 0
 1182 19 1173 4 1157 -10 c 0
 1142 -24 1125 -34 1106 -41 c 0
 1096 -44 1085 -45 1073 -45 c 0
 1061 -45 1047 -42 1032 -37 c 0
 1005 -29 978 -13 952 10 c 0
 923 39 889 83 848 143 c 0
 807 204 762 275 713 356 c 0
 664 432 627 489 602 526 c 1
 556 463 488 365 401 231 c 0
 314 93 264 16 252 0 c 0
 232 -22 210 -36 188 -43 c 0
EndSplineSet
Validated: 1
EndChar

StartChar: Y
Encoding: 89 89 57
Width: 1214
GlyphClass: 2
Flags: HW
HStem: 1413 41G<147 165 1057 1073>
VStem: 461 248<-44 406> 479 242<151 562>
LayerCount: 2
Fore
SplineSet
631 -76 m 0xc0
 619 -80 606 -81 594 -80 c 0
 568 -80 543 -71 518 -55 c 0
 484 -30 465 1 461 41 c 2
 461 49 l 2xc0
 479 508 l 1
 452 554 415 613 369 685 c 0
 323 757 290 808 272 838 c 0
 256 868 230 912 194 970 c 0
 158 1028 127 1078 103 1121 c 0
 79 1164 59 1207 43 1249 c 0
 32 1276 27 1301 27 1323 c 0
 27 1328 28 1334 29 1339 c 0
 33 1365 40 1387 52 1403 c 0
 64 1419 80 1432 100 1442 c 0
 118 1450 138 1454 158 1454 c 0
 173 1454 187 1452 201 1448 c 0
 220 1441 238 1428 254 1409 c 0
 270 1390 283 1366 293 1337 c 0
 301 1311 311 1284 323 1256 c 0
 335 1228 344 1206 352 1189 c 0
 360 1172 374 1147 392 1115 c 0
 410 1083 422 1064 427 1056 c 0
 432 1048 446 1025 470 987 c 0
 494 949 507 929 508 928 c 0
 548 864 583 799 614 735 c 1
 619 745 626 756 631 770 c 0
 651 812 687 881 739 976 c 0
 791 1071 829 1145 852 1198 c 0
 859 1216 872 1242 890 1275 c 0
 908 1308 922 1334 930 1352 c 0
 941 1378 954 1399 968 1417 c 0
 982 1435 998 1447 1015 1454 c 0
 1032 1461 1049 1464 1065 1464 c 0
 1081 1464 1098 1461 1114 1454 c 0
 1143 1440 1164 1419 1178 1389 c 0
 1185 1374 1188 1355 1188 1335 c 0
 1188 1310 1182 1286 1171 1260 c 0
 1163 1244 1149 1217 1129 1179 c 0
 825 670 l 0
 785 596 751 540 721 485 c 0xa0
 709 -10 l 0
 693 -43 666 -65 631 -76 c 0xc0
EndSplineSet
Validated: 1
EndChar

StartChar: Z
Encoding: 90 90 58
Width: 1214
GlyphClass: 2
Flags: HW
HStem: -14 230<338 1047> 1210 240<109 790> 1214 211<223 790>
LayerCount: 2
Fore
SplineSet
539 497 m 0xa0
 456 386 389 288 338 205 c 1
 469 212 592 215 707 215 c 0
 726 215 745 215 764 215 c 0
 894 215 988 211 1047 203 c 1
 1047 215 1048 215 1049 203 c 1
 1091 195 1122 182 1141 166 c 0
 1160 150 1170 127 1171 100 c 2
 1171 92 l 2
 1171 62 1162 36 1143 16 c 0
 1123 -7 1088 -18 1040 -18 c 0
 1030 -18 964 -17 840 -14 c 0
 658 -10 520 -7 426 -6 c 0
 333 -6 245 -7 160 -10 c 2
 156 -10 l 2
 123 -10 96 6 74 39 c 0
 55 67 45 95 45 122 c 0
 45 133 45 152 65 201 c 0
 78 234 100 277 133 332 c 0
 177 407 275 548 428 756 c 0
 586 964 708 1119 793 1221 c 1
 719 1220 611 1217 469 1214 c 0xa0
 328 1213 234 1211 186 1210 c 2
 178 1210 l 2
 143 1210 116 1221 98 1243 c 0
 80 1265 72 1291 72 1321 c 2
 72 1325 l 2
 72 1356 87 1385 116 1411 c 0
 145 1437 180 1450 221 1450 c 0xc0
 252 1450 296 1446 352 1438 c 0
 411 1430 458 1425 492 1425 c 2
 494 1425 l 2
 558 1425 622 1426 688 1428 c 0
 754 1430 828 1435 911 1440 c 0
 1000 1445 1046 1448 1047 1448 c 0
 1077 1448 1102 1435 1122 1410 c 0
 1142 1385 1154 1356 1157 1323 c 2
 1157 1321 l 2
 1157 1305 1147 1286 1127 1263 c 0
 1107 1240 1086 1216 1062 1190 c 0
 1038 1164 1022 1144 1014 1130 c 0
 972 1063 903 970 807 848 c 0
 711 725 622 608 539 497 c 0xa0
EndSplineSet
Validated: 1
EndChar

StartChar: bracketleft
Encoding: 91 91 59
Width: 1214
GlyphClass: 2
Flags: HW
HStem: -207 211<467 753 758 976> -193 203<468 976> 1547 219<481 968>
VStem: 234 234<7 1544>
LayerCount: 2
Fore
SplineSet
621 1765 m 2xb0
 680 1765 l 2
 752 1765 820 1766 881 1767 c 2
 885 1767 l 2
 922 1767 950 1757 969 1735 c 0
 988 1715 998 1689 999 1659 c 0
 999 1645 997 1631 993 1616 c 0
 989 1601 983 1587 973 1573 c 0
 963 1559 950 1549 932 1542 c 0
 920 1537 907 1534 893 1534 c 0
 886 1534 879 1535 872 1536 c 0
 826 1543 761 1547 675 1547 c 0
 661 1547 646 1546 631 1546 c 0
 586 1546 536 1545 481 1544 c 1
 481 1506 480 1434 477 1329 c 0
 472 1158 469 1027 469 934 c 2
 469 750 l 2
 471 701 472 629 472 534 c 0
 472 487 471 434 471 375 c 0
 468 198 467 92 467 59 c 2
 467 4 l 1
 502 4 l 2xb0
 569 4 648 6 739 10 c 0
 830 14 881 16 891 16 c 0
 931 16 959 7 977 -12 c 0
 995 -31 1004 -55 1004 -84 c 2
 1004 -86 l 2
 1004 -116 997 -142 983 -164 c 0
 973 -179 960 -190 944 -195 c 0
 933 -199 921 -201 909 -201 c 2
 889 -201 l 2
 851 -196 807 -193 756 -193 c 0x70
 705 -193 661 -194 621 -197 c 0
 503 -204 417 -207 365 -207 c 0
 356 -207 349 -207 342 -207 c 0
 302 -207 271 -198 248 -182 c 0
 223 -164 211 -139 211 -106 c 0
 211 -92 213 -78 217 -63 c 2
 217 -47 l 2
 222 23 227 150 231 334 c 0
 233 426 234 518 234 610 c 0
 234 702 233 795 231 887 c 0
 229 935 228 997 228 1073 c 0
 228 1124 228 1180 229 1243 c 0
 230 1354 232 1438 233 1495 c 0
 234 1552 236 1585 236 1593 c 2
 236 1599 l 2
 231 1613 227 1631 227 1651 c 0
 227 1680 238 1704 260 1726 c 0
 282 1748 313 1759 354 1759 c 0
 451 1763 540 1765 621 1765 c 2xb0
EndSplineSet
Validated: 1
EndChar

StartChar: backslash
Encoding: 92 92 60
Width: 1214
GlyphClass: 2
Flags: HW
HStem: 1528 41G<192 214>
LayerCount: 2
Fore
SplineSet
72 1452 m 0
 72 1463 73 1473 76 1481 c 0
 84 1514 104 1538 135 1554 c 0
 158 1564 181 1569 203 1569 c 0
 225 1569 246 1561 268 1546 c 0
 290 1532 308 1514 322 1489 c 0
 422 1291 515 1113 604 956 c 1
 746 702 917 411 1116 82 c 0
 1135 51 1145 17 1145 -20 c 0
 1145 -27 1144 -34 1143 -41 c 0
 1139 -89 1123 -120 1094 -135 c 0
 1077 -146 1058 -151 1039 -151 c 0
 1021 -151 1003 -146 983 -137 c 0
 945 -119 914 -89 889 -47 c 0
 875 -24 845 37 797 137 c 0
 748 238 711 310 688 352 c 0
 654 418 555 587 391 860 c 0
 227 1133 127 1304 90 1374 c 0
 78 1403 72 1429 72 1452 c 0
EndSplineSet
Validated: 1
EndChar

StartChar: bracketright
Encoding: 93 93 61
Width: 1214
GlyphClass: 2
Flags: HW
HStem: -193 197<240 748> 1534 233<247 733>
VStem: 747 239<61 1544>
LayerCount: 2
Fore
SplineSet
989 1651 m 0
 989 1632 986 1614 981 1599 c 2
 981 1593 l 2
 982 1582 983 1552 983 1503 c 0
 984 1406 985 1345 986 1320 c 0
 987 1295 987 1261 987 1217 c 0
 987 1180 988 1143 988 1106 c 0
 988 1033 987 960 985 887 c 0
 983 787 982 686 982 586 c 0
 982 502 982 419 984 335 c 0
 987 150 992 23 997 -47 c 1
 997 -63 l 2
 1001 -78 1004 -92 1004 -106 c 0
 1004 -137 992 -163 969 -182 c 0
 947 -198 915 -207 874 -207 c 0
 825 -207 731 -203 592 -195 c 0
 555 -194 525 -193 500 -193 c 2
 455 -193 l 2
 406 -193 363 -196 328 -201 c 0
 308 -204 288 -202 271 -196 c 0
 254 -190 241 -179 231 -164 c 0
 224 -152 220 -139 217 -126 c 0
 214 -113 213 -100 213 -86 c 2
 213 -84 l 2
 214 -54 224 -29 240 -11 c 0
 256 7 284 16 324 16 c 0
 335 16 386 14 477 10 c 0
 568 6 647 4 713 4 c 2
 748 4 l 1
 748 59 l 2
 748 92 746 171 745 295 c 0
 744 411 743 508 743 587 c 0
 743 666 744 726 745 768 c 0
 746 831 747 887 747 936 c 0
 747 985 746 1028 745 1063 c 0
 744 1122 742 1195 740 1284 c 0
 738 1373 736 1435 735 1471 c 0
 734 1507 733 1532 733 1544 c 1
 678 1545 630 1546 586 1546 c 0
 478 1546 397 1543 344 1536 c 0
 334 1535 329 1534 327 1534 c 2
 324 1534 l 2
 310 1534 297 1537 285 1542 c 0
 267 1550 254 1561 244 1573 c 0
 226 1599 216 1628 215 1659 c 1
 216 1689 227 1715 246 1736 c 0
 265 1757 294 1767 332 1767 c 2
 336 1767 l 2
 397 1766 465 1765 537 1765 c 2
 598 1765 l 2
 679 1765 766 1763 862 1759 c 0
 904 1758 936 1746 957 1725 c 0
 978 1704 989 1680 989 1651 c 0
EndSplineSet
Validated: 1
EndChar

StartChar: asciicircum
Encoding: 94 94 62
Width: 1214
GlyphClass: 2
Flags: HW
LayerCount: 2
Fore
SplineSet
209 1206 m 0
 197 1198 184 1194 170 1194 c 0
 143 1194 117 1206 92 1231 c 0
 80 1243 69 1257 61 1272 c 0
 53 1287 49 1304 49 1323 c 0
 49 1353 60 1382 82 1409 c 0
 109 1444 145 1487 190 1538 c 0
 235 1589 285 1645 338 1708 c 0
 391 1771 445 1839 500 1911 c 0
 516 1933 538 1948 567 1956 c 0
 579 1959 593 1960 608 1960 c 0
 622 1960 636 1958 651 1954 c 0
 680 1946 701 1931 713 1909 c 0
 764 1839 808 1781 846 1735 c 0
 884 1689 914 1654 934 1632 c 0
 953 1610 982 1579 1022 1538 c 0
 1067 1492 1104 1452 1133 1421 c 0
 1156 1395 1167 1367 1167 1337 c 0
 1167 1318 1162 1300 1151 1284 c 0
 1140 1268 1128 1254 1116 1243 c 0
 1102 1231 1088 1221 1073 1214 c 0
 1061 1207 1048 1205 1034 1206 c 0
 1020 1206 1007 1211 995 1219 c 0
 976 1231 948 1256 911 1294 c 2
 889 1317 l 2
 808 1399 754 1457 725 1491 c 0
 695 1525 657 1573 612 1636 c 1
 583 1598 555 1563 528 1532 c 0
 501 1501 479 1476 461 1460 c 0
 443 1444 420 1422 391 1395 c 0
 362 1366 333 1336 303 1303 c 0
 298 1298 291 1290 283 1280 c 0
 250 1242 225 1217 209 1206 c 0
EndSplineSet
Validated: 1
EndChar

StartChar: underscore
Encoding: 95 95 63
Width: 1214
GlyphClass: 2
Flags: HW
HStem: -229 223<109 1115>
LayerCount: 2
Fore
SplineSet
178 -6 m 0
 181 -6 215 -7 279 -8 c 0
 341 -9 407 -10 478 -10 c 0
 585 -10 702 -8 831 -6 c 0
 939 -5 1005 -3 1030 -2 c 0
 1070 -2 1098 -13 1116 -35 c 0
 1132 -54 1142 -79 1143 -109 c 2
 1143 -111 l 2
 1143 -144 1135 -168 1120 -186 c 0
 1101 -211 1071 -223 1030 -223 c 2
 676 -227 l 2
 440 -228 276 -229 186 -229 c 0
 114 -229 77 -192 74 -117 c 2
 74 -109 l 2
 74 -72 86 -45 109 -27 c 0
 125 -13 148 -6 178 -6 c 0
EndSplineSet
Validated: 1
EndChar

StartChar: grave
Encoding: 96 96 64
Width: 1214
GlyphClass: 2
Flags: HW
LayerCount: 2
Fore
SplineSet
348 1628 m 0
 366 1654 394 1671 432 1679 c 2
 461 1683 l 2
 487 1683 512 1675 537 1659 c 0
 544 1654 587 1619 666 1556 c 0
 680 1545 699 1531 725 1513 c 0
 751 1495 774 1483 793 1473 c 0
 828 1454 853 1428 868 1395 c 0
 876 1377 881 1359 881 1343 c 0
 881 1328 876 1314 868 1300 c 0
 852 1274 827 1258 793 1253 c 0
 786 1252 779 1252 772 1253 c 0
 745 1253 715 1261 684 1276 c 0
 605 1320 557 1347 539 1358 c 0
 521 1369 497 1384 467 1403 c 0
 436 1422 410 1439 391 1454 c 0
 372 1469 358 1487 348 1509 c 0
 338 1531 334 1552 334 1571 c 0
 335 1590 340 1609 348 1628 c 0
EndSplineSet
Validated: 1
EndChar

StartChar: a
Encoding: 97 97 65
Width: 1214
GlyphClass: 2
Flags: HW
HStem: -78 43G<998 1038> -57 211<426 693> 811 233<476 816>
VStem: 913 188<-65 105>
LayerCount: 2
Fore
SplineSet
442 185 m 0x70
 475 164 512 154 553 154 c 0
 604 154 651 170 696 201 c 0
 721 219 743 239 763 264 c 0
 783 289 799 320 813 360 c 0
 824 391 833 426 838 461 c 1
 580 438 416 382 348 293 c 1
 378 242 409 206 442 185 c 0x70
481 1024 m 0
 536 1038 598 1044 668 1044 c 2
 692 1044 l 2
 841 1041 938 1007 983 940 c 0
 1047 846 1080 711 1081 535 c 0
 1081 491 1080 440 1079 383 c 0
 1078 326 1077 296 1077 295 c 0
 1077 265 1084 204 1096 113 c 0
 1100 83 1102 55 1102 29 c 0
 1102 -23 1089 -56 1063 -70 c 0
 1053 -75 1043 -78 1032 -78 c 0xb0
 964 -78 924 -57 913 -16 c 0
 902 41 892 81 881 106 c 1
 840 53 796 13 750 -14 c 0
 699 -43 618 -57 506 -57 c 0
 454 -57 399 -45 340 -20 c 0
 287 3 241 39 201 87 c 0
 161 135 132 187 113 240 c 1
 113 244 l 2
 113 281 117 318 127 356 c 0
 138 402 160 442 193 473 c 0
 237 515 269 542 291 553 c 0
 365 588 410 607 426 610 c 0
 546 637 607 652 610 653 c 0
 686 660 734 666 752 670 c 0
 757 671 788 680 844 696 c 1
 845 707 845 719 844 733 c 0
 843 737 837 745 827 756 c 0
 812 772 795 785 775 794 c 0
 755 803 722 808 676 811 c 2
 655 811 l 2
 625 811 593 807 558 798 c 0
 523 789 494 777 469 762 c 0
 427 737 397 716 379 700 c 0
 338 647 296 621 252 621 c 0
 229 621 206 627 184 641 c 0
 147 667 129 699 129 737 c 0
 129 767 142 801 168 838 c 0
 187 867 211 892 238 915 c 0
 289 960 369 997 481 1024 c 0
EndSplineSet
Validated: 1
EndChar

StartChar: b
Encoding: 98 98 66
Width: 1214
GlyphClass: 2
Flags: HW
HStem: -29 225<389 749> 848 219<403 750> 1532 41G<186 233>
VStem: 85 247<233 789 995 1537> 885 248<341 714>
LayerCount: 2
Fore
SplineSet
754 803 m 0
 709 833 654 848 590 848 c 0
 501 848 415 819 332 762 c 1
 332 605 331 439 328 264 c 1
 357 241 390 224 430 213 c 0
 470 202 519 197 578 197 c 0
 676 197 752 228 805 289 c 0
 858 350 885 434 885 539 c 0
 885 598 873 650 850 696 c 0
 828 740 796 776 754 803 c 0
1081 819 m 0
 1115 747 1133 664 1133 573 c 2
 1133 561 l 1
 1133 547 l 2
 1133 479 1124 413 1108 352 c 0
 1092 291 1068 236 1038 190 c 0
 1008 144 974 105 934 72 c 0
 893 39 847 14 795 -2 c 0
 744 -18 692 -28 639 -29 c 0
 515 -29 407 -2 317 51 c 1
 310 32 301 16 287 4 c 0
 267 -12 242 -22 213 -23 c 2
 205 -23 l 2
 161 -23 129 -7 109 23 c 0
 94 45 86 75 86 113 c 0
 85 221 85 361 85 532 c 0
 85 617 85 710 85 811 c 0
 86 1114 88 1322 92 1434 c 0
 92 1482 103 1516 123 1538 c 0
 143 1560 170 1572 203 1573 c 2
 217 1573 l 2
 248 1573 276 1563 299 1544 c 0
 325 1522 338 1487 338 1438 c 0
 335 1206 334 1058 334 995 c 1
 428 1043 535 1067 655 1067 c 2
 657 1067 l 2
 761 1066 850 1043 924 999 c 0
 994 955 1046 895 1081 819 c 0
EndSplineSet
Validated: 1
EndChar

StartChar: c
Encoding: 99 99 67
Width: 1214
GlyphClass: 2
Flags: HW
HStem: -63 233<441 822> 844 236<539 785>
VStem: 100 258<252 638>
LayerCount: 2
Fore
SplineSet
539 1053 m 0
 599 1071 661 1079 724 1079 c 0
 729 1079 732 1079 737 1079 c 0
 824 1079 900 1051 963 995 c 0
 1023 940 1063 875 1083 797 c 0
 1088 775 1092 754 1092 735 c 0
 1092 702 1083 675 1065 653 c 0
 1050 634 1031 620 1006 610 c 0
 987 603 968 600 952 600 c 0
 936 600 921 602 907 606 c 0
 889 611 874 623 860 639 c 0
 845 655 833 675 825 700 c 0
 813 737 806 759 803 766 c 0
 793 791 784 806 776 813 c 0
 761 827 745 836 727 840 c 0
 715 843 701 844 686 844 c 0
 663 844 638 841 613 834 c 0
 588 827 561 814 532 796 c 0
 503 778 478 754 454 725 c 0
 430 696 409 658 392 611 c 0
 375 564 364 512 360 453 c 0
 359 441 358 429 358 418 c 0
 358 346 375 289 406 248 c 0
 444 199 507 173 594 170 c 2
 621 170 l 2
 685 170 738 179 782 196 c 0
 826 213 852 232 862 252 c 0
 873 277 886 297 901 315 c 0
 923 341 950 354 982 354 c 0
 984 354 985 354 987 354 c 0
 1005 354 1023 350 1043 342 c 0
 1063 334 1080 322 1092 307 c 0
 1108 290 1115 270 1115 246 c 0
 1115 227 1111 198 1094 162 c 0
 1080 133 1060 106 1034 81 c 0
 1008 56 976 32 936 9 c 0
 896 -14 845 -31 782 -45 c 0
 718 -57 650 -63 578 -63 c 2
 565 -63 l 2
 487 -62 417 -49 354 -23 c 0
 295 3 248 38 212 80 c 0
 176 122 148 169 129 220 c 0
 110 271 100 324 100 377 c 2
 100 387 l 2
 101 478 113 562 136 638 c 0
 159 714 188 779 225 833 c 0
 262 887 306 932 358 969 c 0
 414 1007 475 1035 539 1053 c 0
EndSplineSet
Validated: 1
EndChar

StartChar: d
Encoding: 100 100 68
Width: 1214
GlyphClass: 2
Flags: HW
LayerCount: 2
Fore
SplineSet
1038 -18 m 0
 1027 -21 1018 -21 1008 -20 c 0
 971 -20 942 -6 922 23 c 0
 907 43 895 67 887 96 c 1
 870 80 l 2
 851 61 828 43 799 26 c 0
 770 9 736 -4 697 -14 c 0
 658 -24 616 -29 571 -29 c 0
 518 -29 467 -20 416 -4 c 0
 365 11 317 35 272 68 c 0
 230 101 193 139 162 185 c 0
 131 231 106 285 89 347 c 0
 72 409 63 474 63 541 c 2
 63 555 l 1
 63 567 l 2
 63 654 82 733 119 803 c 0
 157 877 213 935 285 979 c 0
 363 1023 452 1046 553 1047 c 2
 555 1047 l 2
 677 1047 782 1024 872 979 c 1
 875 1207 880 1355 887 1425 c 0
 891 1467 902 1501 920 1526 c 0
 943 1559 977 1575 1022 1575 c 1
 1022 1575 l 1
 1057 1574 1086 1561 1106 1538 c 0
 1124 1518 1133 1486 1133 1444 c 2
 1133 1421 l 2
 1129 1343 1123 1198 1116 986 c 0
 1109 774 1106 614 1106 506 c 0
 1107 432 1111 368 1116 313 c 0
 1121 258 1128 221 1134 199 c 0
 1140 177 1145 158 1148 142 c 0
 1151 126 1153 114 1153 106 c 0
 1153 66 1138 35 1108 12 c 0
 1090 -3 1067 -13 1038 -18 c 0
385 289 m 0
 434 232 503 203 590 203 c 1
 591 219 592 219 592 203 c 1
 615 203 637 205 657 208 c 0
 677 211 695 215 709 220 c 0
 723 225 736 232 750 242 c 0
 764 252 774 259 783 266 c 0
 792 273 802 283 813 296 c 0
 824 309 833 319 838 327 c 0
 843 335 849 342 854 350 c 0
 859 358 863 364 864 365 c 0
 864 410 863 450 862 487 c 0
 862 509 863 531 864 551 c 0
 864 566 864 586 865 612 c 0
 866 638 866 658 866 672 c 0
 835 714 796 749 748 776 c 0
 700 803 650 817 598 817 c 2
 590 817 l 2
 533 814 482 800 440 775 c 0
 398 750 366 717 346 676 c 0
 323 632 311 583 311 530 c 0
 311 426 336 346 385 289 c 0
EndSplineSet
Validated: 5
EndChar

StartChar: e
Encoding: 101 101 69
Width: 1214
GlyphClass: 2
Flags: HW
HStem: -57 217<434 777> 856 211<490 753>
LayerCount: 2
Fore
SplineSet
920 -4 m 0
 845 -38 737 -56 596 -57 c 2
 565 -57 l 2
 407 -56 288 -6 207 92 c 0
 131 185 92 311 92 469 c 0
 92 566 107 652 136 728 c 0
 165 804 205 866 254 914 c 0
 303 962 364 1000 436 1026 c 0
 510 1053 589 1067 674 1067 c 0
 725 1067 780 1055 840 1030 c 0
 896 1007 946 974 992 930 c 0
 1038 886 1071 838 1090 786 c 0
 1093 776 1094 768 1094 758 c 0
 1094 728 1082 697 1059 664 c 0
 1032 623 1003 591 973 569 c 0
 918 531 836 494 725 457 c 0
 670 439 624 424 586 410 c 0
 546 398 511 387 482 378 c 0
 453 369 409 356 352 340 c 1
 357 318 365 298 375 278 c 0
 385 258 398 238 414 219 c 0
 451 181 506 161 580 160 c 2
 598 160 l 2
 629 160 662 164 696 173 c 0
 730 182 760 194 785 208 c 0
 810 222 831 235 846 246 c 0
 861 257 870 265 874 270 c 0
 914 323 955 350 999 350 c 1
 1022 350 1045 343 1067 328 c 0
 1104 302 1122 270 1122 233 c 0
 1122 202 1109 168 1083 133 c 0
 1061 102 1039 75 1014 55 c 0
 989 35 958 15 920 -4 c 0
737 825 m 0
 706 846 672 856 634 856 c 0
 632 856 629 856 627 856 c 0
 578 856 530 840 485 809 c 0
 460 791 439 770 419 745 c 0
 399 720 383 689 369 649 c 0
 358 619 350 587 346 553 c 1
 589 609 749 665 827 721 c 1
 797 770 767 805 737 825 c 0
EndSplineSet
Validated: 1
EndChar

StartChar: f
Encoding: 102 102 70
Width: 1214
GlyphClass: 2
Flags: HW
HStem: -37 221<255 363 622 982> 776 227<175 319 597 951> 793 217<788 1039> 1339 227<762 1054>
VStem: 319 264<1006 1191> 363 262<190 770>
LayerCount: 2
Fore
SplineSet
625 184 m 1xb4
 774 180 862 178 889 178 c 0
 930 178 961 170 983 152 c 0
 1005 134 1016 110 1016 80 c 0
 1016 50 1004 24 981 2 c 0
 959 -21 927 -33 885 -33 c 0
 727 -36 624 -37 578 -37 c 0
 426 -37 316 -34 248 -29 c 0
 204 -28 172 -15 152 10 c 0
 134 29 125 51 125 76 c 0
 125 78 125 80 125 82 c 2
 125 88 l 2
 125 118 136 144 156 164 c 0
 176 184 207 195 248 195 c 2
 252 195 l 1
 252 199 252 201 252 201 c 0
 252 201 253 199 254 195 c 0
 269 194 287 192 310 191 c 0
 333 190 351 190 363 190 c 1xb4
 363 204 360 220 357 237 c 0
 354 254 352 275 352 302 c 0
 352 329 351 367 348 416 c 0
 336 632 329 751 328 776 c 1
 249 776 l 2
 218 776 193 784 174 799 c 0
 151 817 138 847 137 889 c 2
 137 897 l 2
 137 935 149 963 174 981 c 0
 193 995 218 1003 248 1004 c 2
 319 1004 l 1
 319 1073 l 2
 319 1141 330 1204 352 1260 c 0
 375 1316 408 1363 450 1401 c 0
 492 1439 541 1470 598 1495 c 0
 655 1520 716 1538 780 1550 c 0
 841 1561 905 1567 969 1567 c 0
 1003 1567 1032 1558 1055 1540 c 0
 1080 1521 1093 1496 1093 1464 c 0
 1093 1440 1088 1406 1065 1376 c 0
 1046 1351 1020 1339 989 1339 c 0
 870 1339 772 1312 696 1257 c 0
 621 1205 584 1138 584 1053 c 0xd8
 584 1035 585 1020 586 1006 c 1
 644 999 702 995 758 995 c 0
 825 995 890 1000 954 1010 c 0
 994 1010 1022 1000 1039 981 c 0
 1056 962 1066 938 1069 909 c 2
 1069 907 l 2
 1069 874 1060 848 1044 829 c 0
 1025 804 995 793 954 793 c 0
 924 793 867 791 784 788 c 0
 697 785 634 784 596 784 c 1
 603 634 607 534 610 483 c 0
 613 426 615 367 618 306 c 0
 621 245 624 204 625 184 c 1xb4
EndSplineSet
Validated: 1
EndChar

StartChar: g
Encoding: 103 103 71
Width: 1214
GlyphClass: 2
Flags: HW
HStem: -598 221<279 630> -64 229<429 739> 821 221<523 883>
VStem: 111 244<250 662> 868 238<-157 33 280 798>
LayerCount: 2
Fore
SplineSet
469 182 m 0
 494 171 522 166 553 166 c 0
 597 166 637 171 673 182 c 0
 709 193 738 206 761 222 c 0
 784 238 803 256 820 276 c 0
 837 296 850 318 860 338 c 0
 868 358 874 379 877 399 c 0
 877 436 878 497 879 580 c 0
 880 663 881 726 881 770 c 0
 881 780 882 789 885 799 c 1
 822 814 764 821 709 821 c 0
 674 821 639 817 608 809 c 0
 577 801 547 789 518 774 c 0
 489 759 464 741 441 719 c 0
 418 697 400 669 384 635 c 0
 368 601 358 563 354 522 c 0
 353 498 353 476 353 456 c 0
 353 436 353 418 354 402 c 0
 355 370 362 339 372 308 c 0
 382 277 395 251 410 230 c 0
 425 209 444 193 469 182 c 0
1102 786 m 0
 1105 578 1106 450 1106 401 c 0
 1106 210 1101 56 1090 -61 c 0
 1083 -132 1066 -198 1041 -257 c 0
 1016 -316 984 -367 946 -409 c 0
 908 -451 863 -485 811 -514 c 0
 707 -570 590 -598 459 -598 c 0
 408 -598 359 -592 313 -580 c 0
 268 -568 232 -553 203 -537 c 0
 199 -534 192 -530 184 -526 c 0
 164 -516 150 -509 145 -502 c 0
 144 -501 142 -499 141 -496 c 0
 133 -489 128 -481 127 -473 c 0
 127 -472 126 -469 123 -464 c 0
 120 -459 119 -453 118 -446 c 0
 117 -439 117 -433 117 -426 c 0
 117 -392 129 -364 152 -342 c 0
 171 -323 192 -313 215 -313 c 2
 233 -313 l 2
 245 -314 263 -322 283 -334 c 0
 303 -346 324 -357 346 -365 c 0
 369 -373 393 -377 416 -377 c 0
 490 -377 559 -363 623 -336 c 0
 687 -309 740 -269 782 -218 c 0
 824 -167 851 -109 862 -45 c 0
 865 -26 867 0 868 33 c 1
 790 -31 683 -64 545 -64 c 0
 542 -64 540 -63 537 -63 c 0
 383 -60 273 -14 207 76 c 0
 143 163 111 292 111 461 c 0
 112 542 123 615 146 681 c 0
 169 747 199 803 237 847 c 0
 275 891 319 928 371 958 c 0
 428 988 488 1010 551 1022 c 0
 614 1036 680 1042 750 1042 c 0
 832 1042 890 1039 923 1033 c 0
 956 1027 990 1014 1024 995 c 0
 1042 985 1054 972 1061 954 c 0
 1066 940 1069 926 1069 912 c 0
 1069 898 1067 884 1063 872 c 1
 1089 854 1102 826 1102 786 c 0
EndSplineSet
Validated: 1
EndChar

StartChar: h
Encoding: 104 104 72
Width: 1214
GlyphClass: 2
Flags: HW
HStem: -45 41G<228 245 962 996> 848 193<565 838> 1532 41G<235 276>
VStem: 123 260<64 647 887 1536> 844 264<-5 705> 850 238<104 806>
LayerCount: 2
Fore
SplineSet
1075 794 m 0xf4
 1083 751 1087 704 1087 655 c 2
 1087 623 l 2xf4
 1087 549 1091 455 1098 341 c 0
 1105 227 1108 147 1108 101 c 0
 1108 55 1095 20 1069 -6 c 0
 1043 -33 1013 -47 979 -47 c 0
 945 -47 914 -33 887 -6 c 0
 858 20 844 52 844 91 c 0xf8
 844 130 845 199 847 298 c 0
 849 397 850 466 850 505 c 2
 850 584 l 2
 849 674 837 742 815 788 c 0
 805 807 794 823 782 833 c 0
 770 843 755 848 737 848 c 0
 695 848 657 841 622 829 c 0
 587 817 558 801 535 782 c 0
 512 763 490 742 471 717 c 0
 452 692 437 668 427 645 c 0
 417 622 408 598 401 573 c 0
 390 535 385 507 385 489 c 0
 384 479 383 454 383 412 c 2
 383 410 l 2
 382 393 382 372 382 349 c 0
 382 337 382 325 382 312 c 0
 383 273 383 243 383 223 c 0
 382 172 378 123 371 72 c 0
 367 35 348 6 317 -14 c 0
 290 -33 260 -44 229 -45 c 0
 226 -45 224 -44 223 -43 c 0
 189 -43 160 -31 137 -8 c 0
 118 11 108 35 108 64 c 0
 108 66 109 68 109 70 c 2
 109 84 l 2
 113 137 118 223 123 341 c 0
 128 459 131 545 131 598 c 2
 131 641 l 2
 126 768 123 898 123 1030 c 0
 123 1169 124 1305 127 1436 c 0
 128 1480 141 1513 165 1537 c 0
 189 1561 218 1573 252 1573 c 2
 260 1573 l 2
 293 1573 321 1562 344 1542 c 0
 371 1520 385 1488 385 1444 c 0
 385 1307 386 1122 389 887 c 1
 418 917 454 945 498 971 c 0
 536 993 582 1010 636 1022 c 0
 690 1034 748 1040 811 1040 c 0
 864 1040 910 1029 948 1006 c 0
 985 984 1013 953 1033 915 c 0
 1053 877 1067 837 1075 794 c 0xf4
EndSplineSet
Validated: 1
EndChar

StartChar: i
Encoding: 105 105 73
Width: 1214
GlyphClass: 2
Flags: HW
HStem: -35 227<111 508 778 1105> 791 217<189 514> 1090 367<472 732>
VStem: 391 422<1165 1383> 502 264<399 790> 508 272<193 528>
LayerCount: 2
Fore
SplineSet
610 1092 m 0xf0
 603 1091 596 1090 588 1090 c 0
 535 1090 490 1107 453 1141 c 0
 412 1179 391 1224 391 1276 c 0
 391 1325 413 1367 457 1401 c 0
 501 1435 550 1453 606 1456 c 1
 610 1456 613 1457 616 1458 c 0
 672 1458 719 1441 756 1407 c 0
 794 1372 813 1329 813 1279 c 0
 813 1229 795 1187 757 1153 c 0
 719 1119 670 1099 610 1092 c 0xf0
641 -29 m 0
 409 -33 261 -35 197 -35 c 0
 156 -35 127 -23 109 2 c 0
 94 22 86 47 86 74 c 2
 86 82 l 2
 86 113 95 140 111 160 c 0
 129 182 158 193 199 193 c 2
 508 193 l 1xe4
 508 242 507 283 504 317 c 0
 503 363 502 402 502 432 c 0xe8
 502 534 506 655 514 793 c 1
 506 793 494 793 479 794 c 0
 474 794 468 794 461 794 c 0
 446 794 427 794 403 793 c 0
 368 792 338 791 315 791 c 2
 266 791 l 2
 233 791 207 800 188 819 c 0
 169 838 160 861 160 887 c 2
 160 893 l 2
 160 919 168 943 184 963 c 0
 203 985 229 995 262 995 c 0
 370 1002 471 1007 565 1008 c 0
 590 1008 614 1007 639 1006 c 0
 668 1006 693 1000 713 989 c 0
 733 978 748 963 758 944 c 0
 773 917 780 892 780 870 c 1xe4
 770 765 766 652 766 530 c 0xe8
 766 486 767 442 769 397 c 0
 771 352 775 284 780 193 c 1xe4
 1022 193 l 2
 1062 193 1090 182 1108 160 c 0
 1123 141 1130 116 1130 86 c 1
 1129 55 1121 29 1106 10 c 0
 1087 -13 1058 -25 1018 -25 c 0
 1012 -25 1000 -24 981 -24 c 0
 925 -24 812 -26 641 -29 c 0
EndSplineSet
Validated: 1
EndChar

StartChar: j
Encoding: 106 106 74
Width: 1214
GlyphClass: 2
Flags: HW
HStem: -588 236<190 532> 772 230<224 756> 1083 365<746 1000>
VStem: 670 395<1160 1385> 750 260<-2 772> 770 246<-162 461>
LayerCount: 2
Fore
SplineSet
741 -134 m 0xe4
 760 -95 770 -51 770 -2 c 0xe4
 770 9 767 58 762 145 c 0
 754 269 750 376 750 465 c 0
 750 554 752 656 756 772 c 1
 644 772 l 2
 593 772 548 772 509 773 c 0
 470 774 446 774 436 774 c 2
 401 774 l 1
 365 774 l 1
 333 774 l 1
 317 774 l 2
 279 774 248 786 223 811 c 0
 201 833 190 857 190 884 c 0
 190 886 190 887 190 889 c 2
 190 895 l 2
 190 921 202 944 226 962 c 0
 250 980 280 990 315 991 c 0
 363 994 441 996 549 999 c 0
 622 1001 681 1002 727 1002 c 0
 750 1002 770 1001 786 1001 c 2
 873 1001 l 1
 895 1001 l 2
 920 1001 941 996 959 984 c 0
 977 972 991 958 999 940 c 0
 1013 911 1020 886 1020 864 c 2
 1020 862 l 2
 1017 847 1014 829 1011 807 c 0
 1008 785 1006 768 1005 754 c 0
 1004 740 1004 721 1004 696 c 0
 1004 671 1006 570 1010 390 c 0xe8
 1014 210 1016 70 1016 -31 c 0
 1016 -91 1008 -147 993 -199 c 0
 978 -251 958 -295 933 -333 c 0
 908 -371 877 -404 840 -434 c 0
 800 -464 758 -489 713 -508 c 0
 668 -527 619 -543 566 -555 c 0
 513 -567 463 -576 412 -580 c 0
 367 -585 320 -588 274 -588 c 0
 240 -588 211 -579 188 -561 c 0
 163 -542 152 -515 152 -482 c 0
 152 -449 162 -419 185 -392 c 0
 208 -365 234 -352 264 -352 c 0
 368 -352 463 -335 549 -301 c 0
 594 -283 633 -260 665 -233 c 0
 697 -206 722 -173 741 -134 c 0xe4
1012 1139 m 0
 977 1102 932 1083 877 1083 c 0
 816 1083 765 1104 727 1145 c 0
 689 1186 670 1232 670 1284 c 0
 670 1333 691 1373 735 1403 c 0
 780 1433 830 1448 885 1448 c 0
 936 1448 978 1432 1012 1399 c 0
 1047 1364 1065 1321 1065 1270 c 0xf0
 1065 1219 1047 1176 1012 1139 c 0
EndSplineSet
Validated: 1
EndChar

StartChar: k
Encoding: 107 107 75
Width: 1214
GlyphClass: 2
Flags: HW
LayerCount: 2
Fore
SplineSet
358 84 m 2
 358 66 l 2
 355 25 340 -5 313 -23 c 0
 290 -38 261 -46 227 -47 c 0
 223 -47 218 -46 213 -45 c 0
 180 -44 152 -34 129 -18 c 0
 106 -2 93 20 92 49 c 0
 92 54 93 61 94 66 c 0
 99 127 103 225 104 360 c 0
 105 497 107 625 107 745 c 0
 107 826 105 1067 104 1470 c 0
 104 1504 118 1530 145 1548 c 0
 171 1564 203 1573 238 1573 c 0
 273 1573 303 1564 326 1548 c 0
 352 1532 365 1507 365 1473 c 0
 365 1301 360 1035 352 676 c 1
 428 737 524 812 639 899 c 0
 754 986 819 1037 834 1049 c 0
 857 1068 879 1080 901 1085 c 0
 915 1089 926 1092 936 1092 c 0
 962 1092 987 1083 1010 1067 c 0
 1030 1051 1040 1033 1040 1014 c 0
 1040 977 1024 937 993 893 c 0
 966 863 866 781 694 649 c 1
 725 601 778 535 850 449 c 0
 918 368 974 303 1016 252 c 0
 1058 196 1087 157 1102 137 c 0
 1109 126 1113 117 1116 109 c 0
 1120 98 1122 89 1122 82 c 2
 1122 63 l 2
 1122 23 1103 -7 1065 -27 c 0
 1043 -39 1021 -45 999 -45 c 0
 983 -45 966 -42 950 -35 c 0
 930 -27 911 -12 895 8 c 0
 888 19 864 48 823 94 c 0
 782 139 741 185 700 231 c 0
 659 272 620 316 582 362 c 0
 544 414 516 458 498 492 c 1
 346 371 l 1
 346 350 l 2
 346 308 348 260 352 207 c 0
 356 151 358 110 358 84 c 2
EndSplineSet
Validated: 1
EndChar

StartChar: l
Encoding: 108 108 76
Width: 1091
GlyphClass: 2
Flags: HMW
HStem: -57 225
VStem: 250 263 268 274<1092 1293 1092 1296 1092 1308>
LayerCount: 2
Fore
SplineSet
248 371 m 2xc0
 248 483 l 1
 248 504 l 2
 248 520 249 547 252 584 c 0
 255 621 256 645 256 657 c 0
 271 957 277 1084 277 1158 c 0
 277 1212 274 1238 268 1284 c 1
 268 1293 l 1
 268 1296 l 2
 268 1319 275 1342 289 1364 c 0
 308 1391 336 1405 371 1405 c 0
 404 1405 438 1394 473 1374 c 0
 511 1352 534 1327 539 1300 c 0
 542 1274 543 1236 543 1184 c 0xa0
 543 1001 542 1001 524 683 c 0
 521 636 520 603 519 583 c 0
 518 563 517 533 515 492 c 0
 513 451 512 426 512 418 c 0
 512 410 512 402 513 397 c 0
 514 392 511 373 514 342 c 0
 518 291 510 275 545 244 c 0
 580 213 600 196 664 193 c 2
 684 193 l 2
 731 193 817 281 885 311 c 0
 897 316 910 318 922 317 c 0
 938 317 953 313 965 303 c 0
 987 288 1002 264 1010 231 c 0
 1011 224 1012 218 1012 211 c 0
 1012 185 1003 161 985 139 c 0
 965 113 934 101 903 82 c 0
 841 42 733 -13 657 -31 c 1
 657 -33 l 1
 657 -33 531 -27 489 -4 c 0
 441 22 420 11 379 41 c 0
 338 71 307 110 285 157 c 0
 263 204 251 256 250 313 c 0
 249 327 248 346 248 371 c 2xc0
EndSplineSet
Validated: 1
EndChar

StartChar: m
Encoding: 109 109 77
Width: 1214
GlyphClass: 2
Flags: HW
HStem: -47 44G<162 186 613 621 1042 1050> 803 242<398 494> 852 193<834 916>
VStem: 66 238<-15 553 565 702 932 1033> 477 255<-13 724> 498 246<131 753> 924 242<-17 850>
LayerCount: 2
Fore
SplineSet
655 977 m 0xd6
 671 950 686 917 698 879 c 1
 780 990 885 1045 1013 1045 c 0
 1015 1045 1016 1044 1018 1044 c 0
 1043 1044 1063 1036 1081 1020 c 0
 1095 1008 1106 992 1116 973 c 0
 1136 932 1150 879 1155 815 c 0
 1162 728 1165 625 1165 508 c 0
 1165 456 1164 410 1163 368 c 0
 1162 326 1161 285 1161 244 c 0
 1161 203 1162 156 1165 104 c 2
 1165 94 l 2
 1165 41 1155 4 1135 -16 c 0
 1124 -28 1112 -36 1100 -39 c 0
 1088 -43 1073 -45 1057 -46 c 0
 1054 -46 1052 -46 1049 -46 c 0
 1036 -46 1024 -45 1014 -42 c 0
 1002 -39 988 -31 973 -20 c 0
 958 -9 946 8 936 31 c 0
 929 50 925 75 923 106 c 0
 921 137 920 173 920 211 c 2
 920 309 l 2
 923 446 924 567 924 672 c 0
 924 731 920 778 915 815 c 0
 912 831 910 844 907 852 c 1
 877 851 849 834 823 803 c 0
 792 765 764 715 741 655 c 1
 743 622 744 586 744 544 c 0xb6
 744 488 742 424 739 352 c 0
 735 266 733 205 732 170 c 0
 732 158 732 148 732 139 c 0
 732 121 732 108 733 101 c 0
 734 91 735 83 735 76 c 0
 735 58 732 42 727 27 c 0
 720 5 709 -12 695 -22 c 0
 681 -32 667 -39 654 -42 c 0
 641 -45 628 -47 614 -47 c 0
 611 -47 609 -46 606 -45 c 0
 571 -45 541 -34 518 -14 c 0
 496 5 483 38 479 86 c 0
 478 96 477 110 477 129 c 0xba
 477 171 480 238 487 327 c 0
 494 416 498 489 498 545 c 2
 498 592 l 2
 498 688 496 749 492 778 c 0
 491 788 487 795 483 799 c 0
 482 802 479 803 475 803 c 0
 448 803 418 785 385 748 c 0
 348 708 317 661 291 606 c 1
 291 580 l 2
 291 527 292 461 293 385 c 1
 293 340 295 282 299 211 c 0
 302 140 303 97 303 82 c 0
 303 59 299 38 291 20 c 0
 284 1 274 -14 260 -24 c 0
 246 -34 233 -40 220 -43 c 0
 207 -46 193 -47 178 -47 c 1
 145 -46 118 -35 96 -16 c 0
 76 3 66 36 66 82 c 0
 66 93 64 127 61 184 c 0
 54 314 51 439 51 559 c 0
 51 679 52 801 55 924 c 0
 56 975 71 1012 98 1038 c 0
 123 1063 151 1075 183 1075 c 0
 185 1075 186 1075 188 1075 c 2
 195 1075 l 2
 230 1075 259 1061 281 1034 c 0
 296 1015 303 991 303 962 c 0
 303 960 303 957 303 954 c 2
 303 932 l 1
 369 1007 450 1045 546 1045 c 0
 548 1045 549 1044 551 1044 c 0
 592 1044 626 1022 655 977 c 0xd6
EndSplineSet
Validated: 1
EndChar

StartChar: n
Encoding: 110 110 78
Width: 1214
GlyphClass: 2
Flags: HW
HStem: -47 43G<240 257 989 1006 1016 1033> 805 240<528 784>
VStem: 92 250<81 582> 115 254<-11 388> 819 244<244 773>
LayerCount: 2
Fore
SplineSet
355 214 m 0xe8
 364 145 369 100 369 80 c 0
 369 35 354 2 324 -18 c 0
 301 -36 273 -46 242 -47 c 0
 238 -47 232 -46 227 -45 c 0
 196 -44 170 -32 150 -12 c 0
 128 8 116 39 115 80 c 2
 115 82 l 2xd8
 115 92 111 122 105 175 c 0
 99 228 95 273 94 311 c 0
 93 336 92 362 92 389 c 0
 92 463 96 563 105 689 c 0
 114 815 119 890 119 913 c 0
 120 961 135 997 164 1020 c 0
 191 1042 222 1054 256 1055 c 2
 262 1055 l 2
 299 1055 329 1043 352 1018 c 0
 372 999 383 970 383 932 c 2
 383 922 l 1
 412 948 445 971 485 991 c 0
 552 1027 632 1045 723 1045 c 0
 726 1045 730 1044 733 1044 c 0
 845 1044 928 1008 981 936 c 0
 1032 866 1059 769 1063 645 c 0
 1066 566 1076 465 1094 342 c 0
 1112 219 1121 138 1124 98 c 2
 1124 84 l 2
 1124 44 1115 14 1096 -8 c 0
 1075 -33 1049 -45 1017 -45 c 0
 1015 -45 1014 -45 1012 -45 c 0
 1009 -45 1007 -46 1006 -47 c 0
 972 -47 941 -35 915 -12 c 0
 888 11 873 46 870 94 c 0
 862 164 854 224 846 276 c 0
 831 387 822 478 819 549 c 0
 812 657 800 728 784 762 c 0
 777 777 766 788 750 795 c 0
 736 800 719 804 700 805 c 0
 666 805 633 801 600 791 c 0
 567 781 539 769 514 754 c 0
 489 739 465 720 442 699 c 0
 419 678 401 658 387 639 c 2
 346 582 l 1
 342 535 341 489 341 447 c 0
 341 426 341 405 342 385 c 2
 342 383 l 2
 342 339 346 283 355 214 c 0xe8
EndSplineSet
Validated: 1
EndChar

StartChar: o
Encoding: 111 111 79
Width: 1214
GlyphClass: 2
Flags: HW
HStem: -55 223<448 761> 860 211<466 762>
VStem: 86 262<268 706> 870 258<299 746>
LayerCount: 2
Fore
SplineSet
801 254 m 0
 847 322 870 416 870 535 c 0
 870 644 849 724 805 776 c 0
 759 832 691 860 604 860 c 0
 570 860 539 855 512 844 c 0
 478 829 449 804 426 770 c 0
 382 706 356 615 348 496 c 0
 348 486 348 476 348 466 c 0
 348 437 349 411 352 387 c 0
 356 356 364 326 376 299 c 0
 388 272 403 249 422 231 c 0
 441 213 467 199 500 188 c 0
 533 177 571 171 616 168 c 2
 629 168 l 2
 664 168 696 174 723 188 c 0
 754 202 781 224 801 254 c 0
117 288 m 0
 97 350 86 413 86 479 c 2
 86 492 l 2
 86 573 97 647 120 717 c 0
 143 787 175 847 218 900 c 0
 261 953 317 994 387 1024 c 0
 461 1055 544 1071 635 1071 c 0
 692 1071 746 1064 797 1049 c 0
 849 1035 896 1012 940 981 c 0
 982 950 1019 910 1048 864 c 0
 1077 818 1098 760 1112 690 c 0
 1123 639 1128 585 1128 526 c 0
 1128 504 1127 482 1126 459 c 0
 1121 377 1107 305 1085 244 c 0
 1063 183 1031 128 989 82 c 0
 947 36 891 2 823 -20 c 0
 752 -43 669 -55 575 -55 c 2
 567 -55 l 2
 489 -54 418 -37 352 -4 c 0
 292 27 243 68 205 119 c 0
 167 170 137 226 117 288 c 0
EndSplineSet
Validated: 1
EndChar

StartChar: p
Encoding: 112 112 80
Width: 1214
GlyphClass: 2
Flags: HW
HStem: -608 43G<254 270> -63 167<365 733> -47 152<362 733> 819 223<456 760>
VStem: 104 242<107 741 967 1026> 123 246<-562 -47> 848 264<239 713>
LayerCount: 2
Fore
SplineSet
346 713 m 1xba
 346 700 l 2
 346 678 347 592 350 440 c 0
 354 288 356 180 356 113 c 1
 382 108 415 104 455 104 c 0
 473 104 490 104 508 104 c 0
 544 104 580 104 616 106 c 0
 657 107 694 119 725 141 c 0
 756 163 781 192 799 229 c 0
 832 297 848 377 848 467 c 2
 848 487 l 2
 845 543 839 592 829 633 c 0
 819 674 809 706 796 729 c 0
 783 752 768 770 751 784 c 0
 734 798 716 807 698 812 c 0
 680 817 660 819 635 819 c 0
 589 819 538 808 485 787 c 0
 432 766 386 742 346 713 c 1xba
367 -287 m 0
 368 -387 369 -450 369 -479 c 1
 369 -464 370 -465 371 -483 c 0
 371 -523 359 -553 334 -575 c 0
 312 -597 285 -608 255 -608 c 0
 253 -608 252 -608 250 -608 c 0
 206 -605 174 -590 152 -563 c 0
 136 -541 126 -513 123 -479 c 0xb6
 118 -359 113 -173 110 80 c 0
 107 333 104 509 104 610 c 2
 104 827 l 2
 104 891 107 941 111 975 c 0
 115 1009 120 1033 127 1047 c 0
 141 1074 160 1094 186 1108 c 0
 204 1118 224 1123 243 1123 c 0
 245 1123 248 1122 250 1122 c 0
 287 1122 317 1109 340 1083 c 0
 356 1065 365 1046 365 1026 c 0
 365 1019 363 1011 360 1002 c 0
 357 993 355 982 352 967 c 1
 446 1018 542 1042 638 1042 c 0
 641 1042 642 1042 645 1042 c 0
 706 1042 761 1037 809 1026 c 0
 855 1015 898 996 936 968 c 0
 974 940 1005 903 1030 858 c 0
 1055 813 1075 756 1089 688 c 0
 1103 620 1111 541 1112 451 c 2
 1112 442 l 2
 1112 400 1107 356 1096 310 c 0
 1085 264 1066 220 1041 176 c 0
 1016 132 986 92 951 57 c 0
 916 22 873 -7 821 -29 c 0
 766 -52 708 -63 645 -63 c 2
 604 -63 l 2xda
 500 -63 419 -58 362 -47 c 1
 363 -107 366 -187 367 -287 c 0
EndSplineSet
Validated: 1
EndChar

StartChar: q
Encoding: 113 113 81
Width: 1214
GlyphClass: 2
Flags: HW
LayerCount: 2
Fore
SplineSet
1047 -469 m 0
 1043 -513 1027 -546 1000 -570 c 0
 973 -594 943 -606 909 -606 c 0
 875 -606 846 -594 821 -569 c 0
 799 -547 788 -518 788 -483 c 0
 789 -478 791 -472 791 -465 c 0
 799 -369 806 -227 813 -37 c 1
 750 -55 672 -63 578 -63 c 2
 551 -63 l 2
 488 -62 430 -51 377 -29 c 0
 325 -9 282 19 247 52 c 0
 212 85 182 124 157 166 c 0
 132 208 113 251 102 295 c 0
 91 339 86 381 86 422 c 2
 86 428 l 2
 87 519 99 602 122 675 c 0
 145 748 174 809 211 857 c 0
 248 905 293 946 346 977 c 0
 403 1008 463 1030 524 1044 c 0
 585 1058 652 1065 723 1065 c 0
 806 1065 880 1053 946 1028 c 0
 1009 1005 1057 975 1090 938 c 0
 1105 920 1115 903 1121 886 c 0
 1127 869 1130 854 1130 842 c 0
 1130 820 1124 802 1112 788 c 0
 1102 777 1090 768 1075 760 c 1
 1075 477 1074 307 1073 248 c 0
 1072 178 1070 96 1069 2 c 0
 1065 -201 1058 -358 1047 -469 c 0
580 158 m 0
 591 158 601 157 612 156 c 0
 695 156 765 166 821 188 c 1
 824 275 829 483 836 809 c 1
 817 817 796 823 776 826 c 0
 756 829 721 831 672 831 c 0
 649 831 624 828 598 821 c 0
 572 814 544 802 515 786 c 0
 486 770 460 750 437 726 c 0
 414 702 395 670 379 629 c 0
 363 588 353 541 350 489 c 2
 350 473 l 2
 350 395 366 325 399 264 c 0
 415 233 440 207 471 188 c 0
 502 169 539 159 580 158 c 0
EndSplineSet
Validated: 1
EndChar

StartChar: r
Encoding: 114 114 82
Width: 1214
GlyphClass: 2
Flags: HW
HStem: -49 43G<266 301> 600 436<861 1044> 821 215<656 833> 1014 41G<281 317>
VStem: 129 251<62 601> 160 262<-14 374 868 933> 835 252<636 821>
LayerCount: 2
Fore
SplineSet
365 -25 m 0xaa
 345 -40 318 -48 285 -49 c 0
 247 -49 217 -39 195 -20 c 0
 173 -2 161 25 158 63 c 0
 154 107 149 140 145 160 c 0
 137 220 132 269 131 309 c 0
 130 329 129 352 129 375 c 0xaa
 129 450 133 550 143 674 c 0
 153 798 159 878 160 915 c 0
 163 963 177 998 203 1020 c 0
 230 1043 262 1055 299 1055 c 0x96
 336 1055 366 1043 389 1020 c 0
 411 1001 422 972 422 933 c 0
 422 931 422 928 422 926 c 2
 422 911 l 2
 421 886 419 872 417 868 c 1
 459 902 514 933 580 963 c 0
 635 988 696 1006 764 1018 c 0
 832 1030 898 1036 961 1036 c 2
 993 1036 l 2
 1016 1031 1036 1012 1051 979 c 0
 1063 952 1072 922 1077 889 c 0
 1083 852 1087 818 1087 788 c 0
 1087 771 1085 731 1077 700 c 0
 1072 671 1059 650 1040 635 c 0
 1021 619 999 607 973 602 c 0
 965 601 957 600 950 600 c 0xc6
 927 600 905 608 885 623 c 0
 859 642 844 665 840 694 c 0
 837 709 836 728 835 750 c 0
 834 772 832 787 829 797 c 0
 826 807 823 814 819 821 c 0
 777 820 734 812 691 797 c 0
 648 782 609 763 575 740 c 0
 541 717 510 693 481 665 c 0
 452 637 431 612 415 592 c 0
 399 572 388 554 383 539 c 0
 382 482 381 445 380 430 c 0
 380 425 380 421 380 416 c 0
 380 407 380 397 381 389 c 0
 381 343 385 280 393 201 c 0
 403 112 408 65 408 61 c 0
 408 23 394 -6 365 -25 c 0xaa
EndSplineSet
Validated: 1
EndChar

StartChar: s
Encoding: 115 115 83
Width: 1214
GlyphClass: 2
Flags: HW
LayerCount: 2
Fore
SplineSet
181 26 m 0
 141 61 114 104 100 156 c 0
 95 179 92 201 92 222 c 0
 92 243 96 263 104 281 c 0
 115 304 134 322 160 336 c 0
 183 344 206 348 230 348 c 0
 254 348 278 340 301 324 c 0
 324 308 342 284 356 254 c 0
 364 236 371 223 376 215 c 0
 381 207 386 198 394 189 c 0
 402 180 410 174 418 171 c 0
 426 168 439 165 455 162 c 0
 471 159 491 158 514 158 c 0
 554 158 600 166 654 182 c 0
 708 198 758 222 803 252 c 0
 843 279 864 305 868 330 c 1
 868 330 l 1
 868 338 863 346 852 354 c 0
 836 365 809 376 774 387 c 0
 740 397 654 415 516 444 c 0
 457 456 408 468 367 479 c 0
 282 505 224 534 193 566 c 0
 162 598 145 646 145 708 c 0
 145 770 167 824 209 872 c 0
 242 910 287 944 344 971 c 0
 482 1032 682 1063 946 1063 c 0
 961 1063 974 1056 985 1044 c 0
 996 1032 1006 1014 1016 991 c 0
 1031 953 1042 917 1047 882 c 0
 1052 847 1056 821 1057 803 c 2
 1057 778 l 1
 1057 754 l 2
 1056 735 1049 716 1038 700 c 0
 1026 682 1008 671 985 664 c 0
 971 660 958 657 946 657 c 0
 927 657 908 662 889 672 c 0
 859 687 839 706 829 729 c 0
 811 766 796 804 782 842 c 1
 747 841 708 836 665 831 c 0
 622 826 579 817 537 805 c 0
 495 793 461 777 436 758 c 0
 418 743 409 728 408 713 c 0
 408 709 409 706 410 705 c 0
 411 702 415 698 422 694 c 0
 429 690 441 685 457 680 c 0
 495 666 551 653 623 641 c 0
 684 630 739 619 788 607 c 0
 837 595 885 581 930 563 c 0
 974 545 1010 526 1039 503 c 0
 1068 480 1091 453 1106 422 c 0
 1118 397 1124 371 1124 342 c 0
 1124 332 1123 323 1122 315 c 0
 1111 236 1077 167 1020 108 c 0
 963 49 888 3 797 -27 c 0
 701 -57 597 -72 485 -72 c 0
 424 -72 367 -64 315 -49 c 0
 266 -34 221 -9 181 26 c 0
EndSplineSet
Validated: 1
EndChar

StartChar: t
Encoding: 116 116 84
Width: 1214
GlyphClass: 2
Flags: HW
HStem: -57 225<603 985> 778 227<140 287 562 938> 784 204<568 1049>
VStem: 268 264<236 776> 300 259<1004 1361>
LayerCount: 2
Fore
SplineSet
268 371 m 2xb0
 268 483 l 1
 268 504 l 2xb0
 268 520 269 547 272 584 c 0
 275 621 276 645 276 657 c 0
 277 684 282 725 287 778 c 1
 213 778 l 2
 182 778 157 785 139 799 c 0
 114 818 102 847 102 885 c 2
 102 893 l 2
 102 934 114 964 139 983 c 0
 158 998 184 1006 216 1006 c 0
 248 1006 276 1005 299 1004 c 1
 300 1015 300 1025 300 1037 c 0
 300 1049 300 1061 299 1073 c 0
 299 1159 296 1229 289 1284 c 2
 289 1293 l 1
 289 1296 l 2
 289 1319 295 1342 309 1364 c 0
 328 1391 356 1405 391 1405 c 0
 424 1405 459 1394 494 1374 c 0
 532 1352 554 1327 559 1300 c 0
 562 1274 563 1236 563 1184 c 0
 563 1132 562 1069 559 997 c 1xc8
 759 991 887 989 941 989 c 0
 952 989 960 989 965 989 c 0
 1006 989 1036 977 1055 952 c 0
 1070 934 1077 911 1077 881 c 2
 1077 879 l 2
 1076 850 1067 827 1050 810 c 0
 1033 793 1005 784 965 784 c 0
 909 781 851 780 794 780 c 0
 714 780 633 782 551 788 c 1
 550 765 548 730 545 683 c 0
 542 636 541 603 540 583 c 0
 539 563 538 533 536 492 c 0
 534 451 532 426 532 418 c 0
 532 410 533 402 534 397 c 0
 535 392 535 373 535 342 c 0
 539 291 559 250 594 219 c 0
 629 188 679 171 743 168 c 2
 764 168 l 2
 845 168 919 183 987 213 c 0
 999 218 1012 220 1024 219 c 0
 1040 219 1055 215 1067 205 c 0
 1089 190 1104 166 1112 133 c 0
 1113 126 1114 120 1114 113 c 0
 1114 87 1105 63 1087 41 c 0
 1067 15 1040 -4 1006 -16 c 0
 934 -43 843 -57 737 -57 c 2
 707 -57 l 2
 647 -54 591 -45 539 -29 c 0
 487 -13 440 11 399 41 c 0
 358 71 327 110 305 157 c 0
 283 204 271 256 270 313 c 0
 269 327 268 346 268 371 c 2xb0
EndSplineSet
Validated: 1
EndChar

StartChar: u
Encoding: 117 117 85
Width: 1214
GlyphClass: 2
Flags: HW
HStem: -49 43G<965 982> -35 242<410 687> 991 41G<214 248 948 980>
VStem: 102 252<230 1001> 846 250<790 1002> 854 260<-11 94 300 986>
LayerCount: 2
Fore
SplineSet
1108 674 m 0x78
 1112 559 1114 363 1114 86 c 0
 1114 42 1102 10 1079 -12 c 0
 1057 -34 1029 -46 995 -47 c 0
 988 -47 984 -48 981 -49 c 0
 948 -49 920 -39 897 -20 c 0
 868 2 854 37 854 88 c 2
 854 94 l 1xb4
 827 76 799 60 770 45 c 0
 722 20 666 1 602 -14 c 0
 550 -28 500 -35 451 -35 c 0
 437 -35 424 -34 410 -33 c 0
 354 -29 303 -10 258 23 c 0
 213 56 179 93 155 136 c 0
 131 179 117 224 113 272 c 0
 106 362 102 468 102 588 c 0
 102 630 103 682 106 745 c 0
 109 808 111 850 111 870 c 2
 111 911 l 2
 111 951 122 981 145 1001 c 0
 168 1021 197 1032 231 1032 c 0
 265 1032 296 1021 322 1001 c 0
 351 981 365 951 365 913 c 0
 365 901 362 862 359 796 c 0
 356 730 354 674 354 629 c 2
 354 602 l 2
 354 471 360 371 371 303 c 0
 378 259 391 232 410 221 c 0
 421 214 432 210 445 209 c 0
 458 208 476 207 498 207 c 0
 559 207 621 219 684 243 c 0
 747 267 804 295 856 326 c 1
 857 356 858 381 858 401 c 0
 858 475 857 541 856 600 c 0
 856 742 853 846 846 913 c 2
 846 915 l 2
 846 949 858 977 883 997 c 0
 906 1019 933 1031 963 1032 c 0
 997 1032 1028 1021 1055 999 c 0
 1082 979 1096 950 1096 915 c 0
 1099 893 1101 850 1103 787 c 0
 1105 724 1107 686 1108 674 c 0x78
EndSplineSet
Validated: 1
EndChar

StartChar: v
Encoding: 118 118 86
Width: 1214
GlyphClass: 2
Flags: HW
LayerCount: 2
Fore
SplineSet
657 -51 m 0
 643 -54 628 -55 612 -55 c 0
 596 -55 579 -53 563 -49 c 0
 530 -42 507 -30 492 -12 c 0
 315 290 176 569 76 827 c 0
 66 856 61 883 61 909 c 0
 61 928 65 944 72 958 c 0
 87 983 109 1001 139 1012 c 0
 155 1019 172 1022 189 1022 c 0
 206 1022 224 1019 242 1013 c 0
 260 1007 277 995 293 979 c 0
 309 961 322 940 330 915 c 0
 364 815 400 723 440 637 c 0
 456 600 469 572 477 553 c 0
 485 534 501 498 526 446 c 0
 551 398 570 363 582 340 c 0
 594 315 602 300 606 293 c 1
 744 536 845 749 909 932 c 0
 925 977 950 1006 983 1020 c 0
 1002 1028 1020 1032 1038 1032 c 0
 1056 1032 1071 1029 1085 1024 c 0
 1123 1010 1146 982 1153 940 c 0
 1154 935 1155 929 1155 924 c 0
 1155 899 1151 872 1141 842 c 0
 1123 789 1100 731 1071 670 c 0
 1042 607 994 504 926 362 c 0
 852 224 786 99 729 -14 c 0
 717 -33 692 -46 657 -51 c 0
EndSplineSet
Validated: 1
EndChar

StartChar: w
Encoding: 119 119 87
Width: 1214
GlyphClass: 2
Flags: HW
HStem: -55 25G<319 346 855 900>
VStem: 12 244<608 982>
LayerCount: 2
Fore
SplineSet
461 -6 m 0
 451 -28 435 -44 410 -55 c 0
 385 -67 360 -74 333 -74 c 0
 306 -74 280 -67 254 -55 c 0
 229 -43 213 -23 203 6 c 0
 98 347 34 645 14 899 c 0
 13 909 12 918 12 928 c 0
 12 950 20 968 35 983 c 0
 54 1001 81 1011 115 1014 c 0
 126 1015 132 1016 133 1016 c 2
 135 1016 l 2
 161 1016 185 1010 205 999 c 0
 234 984 251 960 256 926 c 2
 256 924 l 1
 271 779 302 575 350 311 c 1
 373 422 l 2
 398 544 419 650 438 741 c 0
 457 831 474 898 489 942 c 0
 497 965 510 983 528 997 c 0
 553 1013 585 1022 623 1022 c 2
 633 1022 l 2
 662 1021 687 1013 710 1001 c 0
 733 989 750 969 762 940 c 0
 765 933 775 884 791 791 c 0
 807 698 824 604 842 510 c 0
 861 416 877 343 889 291 c 1
 914 434 943 646 977 926 c 0
 982 963 999 987 1026 1001 c 0
 1045 1011 1065 1015 1087 1014 c 0
 1095 1014 1104 1013 1114 1012 c 0
 1147 1007 1171 994 1186 975 c 0
 1197 959 1203 937 1204 911 c 0
 1204 900 1203 891 1202 881 c 0
 1186 744 1161 588 1128 412 c 0
 1095 239 1063 107 1032 20 c 0
 1021 -7 1001 -27 971 -41 c 0
 948 -51 918 -55 883 -55 c 2
 872 -55 l 2
 838 -55 809 -50 784 -39 c 0
 757 -28 737 -9 723 18 c 0
 698 75 678 144 662 225 c 0
 646 307 629 403 614 514 c 0
 611 536 609 558 606 578 c 1
 602 556 597 533 592 508 c 0
 574 421 555 333 535 244 c 0
 513 155 488 72 461 -6 c 0
EndSplineSet
Validated: 1
EndChar

StartChar: x
Encoding: 120 120 88
Width: 1214
GlyphClass: 2
Flags: HW
LayerCount: 2
Fore
SplineSet
219 -43 m 0
 205 -47 193 -49 182 -49 c 0
 155 -49 128 -39 102 -20 c 0
 76 -1 63 22 63 49 c 0
 63 82 73 118 92 156 c 0
 108 185 138 221 182 266 c 0
 224 304 270 345 319 389 c 0
 371 438 413 482 446 522 c 1
 402 566 345 619 274 680 c 1
 206 751 163 798 145 821 c 0
 118 862 104 902 104 942 c 0
 104 967 118 988 147 1006 c 0
 163 1017 183 1024 203 1028 c 0
 210 1029 216 1030 223 1030 c 0
 238 1030 255 1027 274 1022 c 0
 300 1014 325 999 348 977 c 0
 381 946 426 899 483 838 c 0
 539 777 589 721 631 672 c 1
 709 769 756 828 772 850 c 0
 828 916 869 960 895 983 c 0
 935 1017 974 1035 1014 1036 c 0
 1037 1036 1057 1030 1075 1018 c 0
 1090 1008 1101 997 1108 985 c 0
 1116 973 1121 959 1122 944 c 0
 1122 909 1112 877 1090 848 c 2
 782 498 l 1
 816 457 855 415 899 373 c 0
 939 336 978 301 1016 268 c 0
 1056 226 1086 191 1106 164 c 0
 1125 135 1138 110 1143 90 c 0
 1150 68 1153 50 1153 35 c 0
 1153 19 1144 4 1128 -10 c 0
 1113 -24 1096 -34 1077 -41 c 0
 1067 -44 1056 -45 1044 -45 c 0
 1032 -45 1017 -42 1001 -37 c 0
 974 -29 948 -13 922 10 c 0
 799 132 692 245 602 350 c 1
 560 302 499 237 420 154 c 0
 342 69 296 18 281 0 c 0
 262 -22 241 -36 219 -43 c 0
EndSplineSet
Validated: 1
EndChar

StartChar: y
Encoding: 121 121 89
Width: 1214
GlyphClass: 2
Flags: HW
HStem: 1006 31G<158 175 1047 1063>
LayerCount: 2
Fore
SplineSet
594 270 m 1
 736 536 844 758 918 934 c 0
 929 960 941 981 956 999 c 0
 971 1017 988 1029 1005 1036 c 0
 1022 1043 1039 1047 1055 1047 c 0
 1071 1047 1087 1043 1102 1036 c 0
 1131 1022 1152 1001 1167 971 c 0
 1174 956 1178 938 1178 918 c 0
 1178 893 1172 868 1161 842 c 0
 1128 767 1080 665 1014 535 c 0
 948 405 883 282 819 166 c 0
 715 -7 612 -191 508 -385 c 0
 462 -470 425 -535 399 -580 c 0
 381 -613 354 -634 319 -645 c 0
 310 -648 301 -650 293 -650 c 0
 290 -650 288 -649 285 -649 c 0
 262 -649 238 -642 215 -627 c 0
 181 -601 163 -567 160 -526 c 0
 160 -523 159 -521 158 -518 c 0
 158 -498 164 -477 176 -457 c 0
 263 -282 355 -118 449 35 c 1
 276 337 143 602 53 831 c 0
 43 855 39 878 39 898 c 0
 39 900 39 903 39 905 c 2
 39 922 l 2
 43 948 51 969 63 985 c 0
 75 1001 92 1014 111 1022 c 0
 129 1032 148 1036 168 1036 c 0
 183 1036 198 1033 213 1028 c 0
 232 1021 249 1008 264 989 c 0
 280 970 293 947 301 918 c 0
 326 846 358 763 399 671 c 0
 440 579 474 507 500 455 c 0
 526 403 557 341 594 270 c 1
EndSplineSet
Validated: 1
EndChar

StartChar: z
Encoding: 122 122 90
Width: 1214
GlyphClass: 2
Flags: HW
HStem: -18 232<440 1081> 791 213<230 788>
LayerCount: 2
Fore
SplineSet
1090 18 m 0
 1070 -5 1034 -17 985 -18 c 0
 974 -18 917 -17 815 -14 c 0
 661 -10 543 -7 461 -6 c 0
 379 -6 297 -7 215 -10 c 2
 213 -10 l 2
 180 -10 152 6 129 37 c 0
 109 67 98 96 98 125 c 0
 98 137 100 149 105 161 c 0
 110 173 122 190 140 213 c 0
 158 236 184 264 217 297 c 0
 239 319 293 367 379 442 c 0
 472 518 555 588 627 650 c 0
 699 712 753 761 788 795 c 1
 691 792 605 791 530 791 c 0
 395 791 298 795 238 805 c 0
 208 810 183 820 164 834 c 0
 142 852 130 877 127 911 c 2
 127 918 l 2
 127 947 136 971 153 994 c 0
 170 1017 195 1028 229 1028 c 0
 234 1028 241 1027 246 1026 c 0
 397 1011 548 1003 699 1003 c 0
 737 1004 l 0
 826 1004 909 1006 987 1010 c 2
 993 1010 l 2
 1023 1010 1049 998 1069 973 c 0
 1089 948 1101 920 1102 887 c 2
 1102 885 l 2
 1102 871 1096 852 1085 828 c 0
 1074 804 1056 773 1030 735 c 1
 989 678 942 622 889 567 c 0
 832 512 779 467 731 430 c 0
 593 325 496 250 440 205 c 1
 556 211 658 213 744 213 c 0
 849 213 932 209 993 201 c 1
 1037 193 1068 180 1087 164 c 0
 1106 148 1116 125 1116 98 c 2
 1116 92 l 2
 1116 90 1116 88 1116 86 c 0
 1116 60 1108 37 1090 18 c 0
EndSplineSet
Validated: 1
EndChar

StartChar: braceleft
Encoding: 123 123 91
Width: 1214
GlyphClass: 2
Flags: HW
HStem: -229 223<744 1054> 631 256<165 509> 1544 223<768 1047>
VStem: 436 244<68 310 1163 1463> 545 254<384 590 919 1063>
LayerCount: 2
Fore
SplineSet
1083 -113 m 0xe8
 1083 -142 1074 -167 1055 -190 c 0
 1035 -215 1003 -228 961 -229 c 0
 894 -229 830 -223 770 -209 c 0
 709 -195 653 -177 604 -152 c 0
 555 -127 514 -93 483 -49 c 0
 452 -5 436 43 436 96 c 0
 436 136 441 174 451 211 c 0
 459 248 469 281 481 311 c 0
 493 340 505 368 516 395 c 0
 542 456 556 510 557 555 c 0
 550 563 537 572 518 582 c 0
 499 592 478 599 455 604 c 0
 432 611 402 618 367 623 c 0
 333 628 297 631 260 631 c 0
 223 631 193 645 168 672 c 0
 143 699 131 730 131 764 c 0
 131 798 140 827 158 850 c 0
 177 875 205 887 242 887 c 0
 279 887 311 888 338 889 c 0
 367 890 395 893 424 897 c 0
 453 901 476 907 492 915 c 0
 510 922 522 930 530 940 c 0
 540 950 545 961 545 973 c 0xe8
 545 980 539 992 528 1010 c 0
 517 1029 506 1050 494 1075 c 0
 480 1098 467 1133 455 1178 c 0
 443 1223 436 1270 436 1321 c 0
 436 1458 484 1566 578 1647 c 0
 672 1728 800 1767 961 1767 c 0
 994 1767 1022 1758 1047 1739 c 0
 1073 1719 1085 1694 1085 1667 c 0
 1085 1637 1070 1609 1040 1583 c 0
 1010 1557 981 1544 952 1544 c 0
 865 1544 798 1525 750 1487 c 0
 704 1450 680 1402 680 1343 c 0xf0
 680 1312 685 1277 696 1239 c 0
 708 1201 722 1167 737 1137 c 0
 768 1076 788 1033 795 1008 c 0
 798 997 799 987 799 979 c 0
 799 948 789 918 770 891 c 0
 751 864 727 840 698 821 c 0
 663 798 625 780 584 766 c 1
 632 747 673 725 707 700 c 0
 741 677 764 655 778 635 c 0
 792 615 799 594 799 575 c 0
 799 542 794 510 786 477 c 0
 778 444 768 414 756 387 c 0
 744 360 732 332 721 305 c 0
 710 278 700 248 692 215 c 0
 685 187 682 158 682 128 c 0
 682 123 682 118 682 113 c 0
 682 97 688 82 702 68 c 0
 732 38 784 16 856 2 c 0
 889 -3 921 -6 954 -6 c 0
 987 -6 1015 -15 1040 -33 c 0
 1069 -53 1083 -80 1083 -113 c 0xe8
EndSplineSet
Validated: 1
EndChar

StartChar: bar
Encoding: 124 124 92
Width: 1214
GlyphClass: 2
Flags: HW
VStem: 485 229<-370 950> 502 219<203 1695>
LayerCount: 2
Fore
SplineSet
590 -408 m 2x80
 584 -408 l 2
 550 -408 524 -396 506 -371 c 0
 492 -352 485 -328 485 -299 c 0x80
 485 -292 486 -284 487 -276 c 0
 491 -223 495 -63 498 203 c 2
 502 1057 l 2
 503 1360 505 1543 506 1606 c 0
 507 1672 527 1713 567 1731 c 0
 581 1736 598 1740 618 1741 c 0
 659 1741 690 1726 709 1696 c 0
 723 1674 729 1645 729 1610 c 2
 721 745 l 2x40
 717 392 714 125 714 -57 c 0
 714 -166 715 -244 717 -291 c 0
 713 -329 698 -359 672 -379 c 0
 649 -398 621 -408 590 -408 c 2x80
EndSplineSet
Validated: 1
EndChar

StartChar: braceright
Encoding: 125 125 93
Width: 1214
GlyphClass: 2
Flags: HW
HStem: -229 223<171 446> 672 258<705 1050> 1544 223<175 474>
VStem: 418 252<490 642 970 1169> 535 244<73 388 1232 1488>
LayerCount: 2
Fore
SplineSet
131 -129 m 0xe8
 131 -98 145 -72 176 -45 c 0
 207 -18 235 -6 262 -6 c 0
 350 -6 420 12 467 51 c 0
 512 86 535 133 535 190 c 0xe8
 535 208 534 244 518 303 c 0
 506 344 493 381 479 414 c 0
 448 486 428 530 422 553 c 0
 420 563 418 574 418 582 c 0
 418 613 428 643 446 670 c 0
 464 697 489 721 518 739 c 0
 553 762 590 781 631 795 c 1
 584 813 543 835 510 858 c 0
 475 881 452 903 438 926 c 0
 424 946 418 965 418 983 c 0xf0
 418 1016 422 1048 430 1081 c 0
 438 1112 449 1140 461 1165 c 0
 471 1190 484 1214 494 1241 c 0
 504 1268 514 1296 522 1327 c 0
 528 1354 532 1382 532 1411 c 2
 532 1425 l 2
 532 1441 526 1456 512 1470 c 0
 496 1486 476 1501 449 1511 c 0
 422 1521 391 1530 358 1536 c 0
 325 1542 293 1544 262 1544 c 0
 229 1544 201 1553 174 1571 c 0
 147 1591 133 1616 133 1647 c 0
 133 1663 133 1694 162 1729 c 0
 182 1754 213 1765 254 1767 c 0
 322 1767 387 1761 446 1747 c 0
 505 1733 561 1715 612 1690 c 0
 663 1665 702 1630 733 1587 c 0
 764 1544 778 1495 778 1442 c 0xe8
 778 1403 774 1364 766 1327 c 0
 758 1292 747 1260 735 1233 c 0
 723 1206 710 1180 698 1157 c 0
 671 1102 659 1051 657 1004 c 0
 663 998 678 989 696 979 c 0
 714 969 737 960 762 954 c 0
 785 948 815 942 850 938 c 0
 885 932 921 930 958 930 c 0
 993 930 1022 916 1047 889 c 0
 1074 862 1085 830 1085 795 c 0
 1085 760 1077 734 1059 711 c 0
 1041 686 1012 674 973 674 c 0
 936 674 904 674 877 672 c 0
 848 670 820 668 793 662 c 0
 764 658 741 651 723 645 c 0
 705 639 692 631 684 621 c 0
 674 611 670 600 670 588 c 0xf0
 670 582 676 568 686 545 c 0
 696 522 709 500 723 473 c 0
 737 446 750 412 760 365 c 0
 772 318 778 268 778 217 c 0
 778 80 731 -29 637 -109 c 0
 543 -189 416 -229 254 -229 c 0
 221 -229 193 -219 170 -201 c 0
 143 -181 131 -156 131 -129 c 0xe8
EndSplineSet
Validated: 1
EndChar

StartChar: asciitilde
Encoding: 126 126 94
Width: 1214
GlyphClass: 2
Flags: HW
HStem: 516 264<768 868> 846 266<354 476>
LayerCount: 2
Fore
SplineSet
1038 1071 m 0
 1049 1075 1061 1077 1073 1077 c 0
 1084 1077 1095 1074 1106 1069 c 0
 1125 1061 1138 1047 1145 1028 c 0
 1150 1016 1153 1002 1153 987 c 0
 1153 980 1152 974 1151 969 c 0
 1148 949 1145 928 1141 909 c 0
 1134 886 1126 864 1118 844 c 0
 1029 626 921 516 793 516 c 0
 727 516 673 538 629 580 c 0
 609 600 589 621 573 643 c 0
 557 665 540 692 522 725 c 0
 518 732 512 744 502 760 c 0
 494 775 488 784 485 788 c 0
 471 808 463 821 459 825 c 0
 455 828 449 832 444 836 c 0
 439 840 434 843 430 844 c 0
 426 845 420 846 412 846 c 0
 404 846 397 845 393 842 c 0
 388 841 382 835 375 827 c 0
 368 819 361 812 356 805 c 0
 351 797 345 783 338 764 c 0
 330 744 322 726 317 711 c 2
 293 643 l 2
 282 612 259 583 225 557 c 0
 199 538 176 528 154 528 c 0
 153 528 151 528 150 528 c 0
 143 528 136 529 129 530 c 0
 107 535 90 554 76 584 c 0
 68 602 63 619 63 637 c 0
 63 648 65 660 68 672 c 0
 103 807 152 913 213 991 c 0
 277 1072 342 1112 406 1112 c 0
 429 1112 449 1111 467 1108 c 0
 483 1104 501 1099 520 1094 c 0
 539 1087 557 1077 573 1063 c 0
 607 1033 641 988 672 928 c 0
 677 918 684 906 692 891 c 0
 700 876 706 864 709 856 c 0
 723 831 732 816 737 809 c 0
 751 794 761 785 768 782 c 0
 773 781 779 780 784 780 c 2
 795 780 l 2
 806 780 813 781 817 782 c 0
 821 782 827 783 834 784 c 0
 841 785 845 789 848 793 c 0
 864 811 879 832 891 858 c 0
 899 876 910 898 922 924 c 0
 937 962 958 997 985 1028 c 0
 1000 1048 1018 1063 1038 1071 c 0
EndSplineSet
Validated: 1
EndChar

StartChar: endash
Encoding: 8211 8211 95
Width: 1214
GlyphClass: 2
Flags: HW
HStem: 485 227<228 999>
LayerCount: 2
Fore
SplineSet
301 713 m 0
 403 713 527 712 670 709 c 0
 766 707 834 706 874 706 c 0
 894 706 907 707 913 707 c 0
 953 707 981 697 999 678 c 0
 1015 659 1025 635 1026 606 c 2
 1026 604 l 2
 1026 571 1019 546 1004 528 c 0
 985 503 954 490 913 489 c 0
 547 486 344 485 303 485 c 0
 272 485 246 493 227 508 c 0
 202 527 190 557 190 598 c 2
 190 606 l 2
 190 644 202 673 225 692 c 0
 244 706 270 713 301 713 c 0
EndSplineSet
Validated: 1
EndChar

StartChar: emdash
Encoding: 8212 8212 96
Width: 1214
GlyphClass: 2
Flags: HW
HStem: 485 223<105 1119>
LayerCount: 2
Fore
SplineSet
176 709 m 2
 274 709 l 2
 346 708 429 708 522 708 c 0
 615 708 719 708 834 709 c 0
 943 710 1009 711 1034 711 c 0
 1074 711 1102 700 1120 680 c 0
 1136 661 1146 636 1147 606 c 2
 1147 604 l 2
 1147 571 1139 546 1124 528 c 0
 1105 503 1075 490 1034 489 c 2
 676 487 l 2
 437 486 272 485 182 485 c 0
 110 485 73 523 70 598 c 2
 70 606 l 2
 70 643 81 670 104 688 c 0
 122 702 146 709 176 709 c 2
EndSplineSet
Validated: 1
EndChar

StartChar: quoteleft
Encoding: 8216 8216 97
Width: 1214
GlyphClass: 2
Flags: HW
HStem: 965 582<576 622>
VStem: 394 427
LayerCount: 2
Fore
SplineSet
401 1382 m 0
 396 1397 393 1412 394 1428 c 0
 395 1444 400 1460 408 1475 c 0
 422 1501 440 1519 465 1530 c 0
 488 1541 509 1546 529 1546 c 0
 549 1546 568 1542 586 1532 c 0
 609 1521 625 1504 633 1479 c 0
 662 1400 720 1287 807 1141 c 0
 817 1125 821 1108 821 1090 c 0
 821 1048 790 1011 729 981 c 0
 707 970 686 965 666 965 c 2
 649 965 l 2
 633 966 617 972 602 983 c 0
 587 994 574 1009 563 1028 c 0
 540 1072 511 1129 478 1201 c 0
 445 1273 419 1333 401 1382 c 0
EndSplineSet
Validated: 1
EndChar

StartChar: quoteright
Encoding: 8217 8217 98
Width: 1214
GlyphClass: 2
Flags: HW
LayerCount: 2
Fore
SplineSet
580 918 m 0
 564 911 546 907 530 907 c 0
 515 907 501 911 487 918 c 0
 457 933 433 958 414 993 c 0
 404 1012 399 1031 399 1049 c 0
 399 1068 405 1087 416 1106 c 0
 439 1146 468 1203 502 1278 c 0
 536 1352 562 1412 578 1458 c 0
 589 1483 605 1499 627 1509 c 0
 645 1517 662 1523 680 1524 c 0
 702 1524 723 1518 745 1507 c 0
 770 1496 790 1478 805 1452 c 0
 813 1437 817 1422 817 1407 c 0
 817 1391 814 1375 809 1360 c 0
 745 1181 694 1059 657 993 c 0
 637 956 611 932 580 918 c 0
EndSplineSet
Validated: 1
EndChar

StartChar: quotesinglbase
Encoding: 8218 8218 99
Width: 1214
GlyphClass: 2
Flags: HW
LayerCount: 2
Fore
SplineSet
797 1061 m 0
 797 1036 789 1015 774 997 c 0
 756 974 734 958 707 950 c 0
 691 946 673 945 657 946 c 0
 632 946 610 953 590 967 c 0
 570 981 556 1000 551 1026 c 0
 537 1087 496 1207 428 1386 c 0
 423 1398 420 1410 420 1421 c 0
 420 1426 421 1433 422 1438 c 0
 425 1453 429 1465 436 1475 c 0
 443 1486 453 1495 465 1503 c 0
 477 1511 488 1518 498 1522 c 0
 508 1526 517 1529 528 1532 c 0
 548 1539 568 1541 586 1540 c 0
 604 1540 622 1534 641 1522 c 0
 660 1508 675 1488 686 1462 c 1
 686 1460 l 1
 704 1409 723 1348 745 1274 c 0
 767 1199 784 1136 795 1087 c 0
 796 1077 797 1069 797 1061 c 0
EndSplineSet
Validated: 1
EndChar

StartChar: quotedblleft
Encoding: 8220 8220 100
Width: 1214
GlyphClass: 2
Flags: HW
HStem: 1053 43G<795 827>
LayerCount: 2
Fore
SplineSet
248 1360 m 0
 243 1375 240 1390 241 1406 c 0
 242 1422 246 1437 254 1452 c 0
 268 1478 286 1496 311 1507 c 0
 334 1518 356 1524 376 1524 c 0
 396 1524 414 1519 432 1511 c 0
 455 1500 471 1482 479 1456 c 0
 508 1377 566 1264 653 1118 c 0
 663 1102 668 1085 668 1067 c 0
 668 1025 638 988 578 958 c 0
 556 947 534 942 512 942 c 0
 507 942 501 943 496 944 c 0
 480 945 464 952 449 963 c 0
 434 974 421 989 410 1008 c 0
 387 1052 358 1109 325 1180 c 0
 292 1251 266 1311 248 1360 c 0
555 1470 m 0
 550 1485 547 1501 548 1516 c 0
 549 1531 553 1547 561 1563 c 0
 575 1589 593 1607 618 1618 c 0
 639 1628 659 1633 678 1633 c 0
 679 1633 681 1633 682 1633 c 0
 702 1632 721 1628 739 1620 c 0
 761 1609 776 1592 786 1567 c 0
 815 1488 874 1375 961 1229 c 0
 971 1213 975 1196 975 1178 c 0
 975 1136 944 1099 883 1069 c 0
 861 1058 838 1053 815 1053 c 2
 803 1053 l 2
 787 1054 771 1060 756 1071 c 0
 741 1082 728 1097 717 1116 c 0
 694 1160 665 1217 632 1289 c 0
 599 1361 573 1421 555 1470 c 0
EndSplineSet
Validated: 1
EndChar

StartChar: quotedblright
Encoding: 8221 8221 101
Width: 1214
GlyphClass: 2
Flags: HW
LayerCount: 2
Fore
SplineSet
510 1104 m 0
 496 1079 478 1061 455 1047 c 0
 433 1033 411 1025 391 1024 c 0
 371 1024 352 1027 336 1034 c 0
 275 1065 243 1103 242 1145 c 0
 242 1161 247 1178 258 1196 c 0
 281 1236 311 1295 348 1376 c 0
 385 1457 412 1521 428 1567 c 0
 438 1592 454 1609 477 1620 c 0
 495 1630 512 1633 530 1632 c 0
 552 1632 574 1628 596 1618 c 0
 621 1607 640 1589 655 1563 c 0
 663 1548 668 1532 668 1516 c 0
 668 1501 664 1485 659 1470 c 0
 595 1291 545 1170 510 1104 c 0
737 918 m 0
 721 911 704 907 688 907 c 0
 673 907 659 911 645 918 c 0
 615 933 590 957 571 991 c 0
 560 1010 556 1030 557 1049 c 0
 557 1068 562 1087 573 1106 c 0
 596 1146 625 1203 659 1278 c 0
 690 1348 716 1407 735 1456 c 0
 745 1481 761 1499 784 1511 c 0
 802 1519 820 1524 836 1524 c 0
 858 1524 880 1518 903 1507 c 0
 928 1496 947 1478 961 1452 c 0
 969 1437 973 1421 973 1403 c 0
 973 1389 971 1375 967 1360 c 0
 900 1177 849 1054 815 993 c 0
 795 956 768 932 737 918 c 0
EndSplineSet
Validated: 1
EndChar

StartChar: bullet
Encoding: 8226 8226 102
Width: 1214
GlyphClass: 2
Flags: HW
HStem: 662 426<479 738>
VStem: 383 449<751 996>
LayerCount: 2
Fore
SplineSet
590 662 m 0
 534 662 487 681 449 721 c 0
 405 765 383 818 383 879 c 0
 383 935 407 983 455 1024 c 0
 501 1064 553 1084 610 1087 c 2
 612 1087 l 1
 623 1087 l 2
 683 1087 732 1068 772 1030 c 0
 812 990 832 942 832 886 c 0
 832 856 830 791 772 733 c 0
 732 693 680 671 614 664 c 0
 606 663 598 662 590 662 c 0
EndSplineSet
Validated: 1
EndChar

StartChar: lambda
Encoding: 955 955 103
Width: 1214
Flags: HW
HStem: -56 43G<158 175 1047 1063>
LayerCount: 2
Fore
SplineSet
594 710 m 1
 557 639 526 578 500 526 c 0
 474 474 440 402 399 310 c 0
 358 218 326 135 301 63 c 0
 293 34 280 10 264 -9 c 0
 249 -28 232 -41 213 -48 c 0
 198 -53 183 -56 168 -56 c 0
 148 -56 129 -51 111 -41 c 0
 92 -33 75 -21 63 -5 c 0
 51 11 43 33 39 59 c 2
 39 75 l 2
 39 77 39 81 39 83 c 0
 39 103 43 125 53 149 c 0
 143 378 276 644 449 946 c 1
 355 1099 263 1262 176 1437 c 0
 164 1457 158 1479 158 1499 c 0
 159 1502 160 1504 160 1507 c 0
 163 1548 181 1581 215 1607 c 0
 238 1622 262 1630 285 1630 c 0
 288 1630 290 1630 293 1630 c 0
 301 1630 310 1629 319 1626 c 0
 354 1615 381 1593 399 1560 c 0
 425 1515 462 1451 508 1366 c 0
 612 1172 715 988 819 815 c 0
 883 699 948 576 1014 446 c 0
 1080 316 1128 214 1161 139 c 0
 1172 113 1178 88 1178 63 c 0
 1178 43 1174 25 1167 10 c 0
 1152 -20 1131 -42 1102 -56 c 0
 1087 -63 1071 -66 1055 -66 c 0
 1039 -66 1022 -63 1005 -56 c 0
 988 -49 971 -37 956 -19 c 0
 941 -1 929 21 918 47 c 0
 844 223 736 444 594 710 c 1
EndSplineSet
Validated: 1
EndChar
